<?xml version="1.0" encoding="us-ascii" standalone="no"?><svg xmlns="http://www.w3.org/2000/svg" xmlns:xlink="http://www.w3.org/1999/xlink" contentStyleType="text/css" height="430px" preserveAspectRatio="none" style="width:343px;height:430px;background:#FFFFFF;" version="1.1" viewBox="0 0 343 430" width="343px" zoomAndPan="magnify"><defs/><g><!--class ReaderRepository--><g id="elem_ReaderRepository"><rect codeLine="3" fill="#F1F1F1" height="124.2717" id="ReaderRepository" rx="2.5" ry="2.5" style="stroke:#181818;stroke-width:0.5;" width="164" x="7" y="7"/><ellipse cx="27.85" cy="23" fill="#ADD1B2" rx="11" ry="11" style="stroke:#181818;stroke-width:1.0;"/><path d="M27.3188,29.9219 Q25.5688,29.9219 24.4281,29.1875 Q23.3031,28.4375 22.7406,27.0938 Q22.1938,25.7344 22.1938,23.9375 Q22.1938,21.9063 22.85,20.4531 Q23.5063,19 24.7875,18.2188 Q26.0688,17.4375 27.9438,17.4375 Q28.8344,17.4375 29.5063,17.625 Q30.1781,17.7969 30.8656,18.1406 L30.0531,20.1563 Q29.4281,19.8438 28.8813,19.7188 Q28.35,19.5938 27.8656,19.5938 Q26.6938,19.5938 25.9906,20.125 Q25.2875,20.6563 24.9906,21.6094 Q24.6938,22.5625 24.6938,23.8281 Q24.6938,25.8438 25.4125,26.8125 Q26.1313,27.7656 27.725,27.7656 Q28.3188,27.7656 28.9438,27.6094 Q29.5688,27.4531 30.3969,27.0781 L30.3969,29.2969 Q29.6625,29.6094 28.8656,29.7656 Q28.0844,29.9219 27.3188,29.9219 Z " fill="#000000"/><text fill="#000000" font-family="sans-serif" font-size="14" lengthAdjust="spacing" textLength="119" x="43.15" y="28.432">ReaderRepository</text><line style="stroke:#181818;stroke-width:0.5;" x1="8" x2="170" y1="39" y2="39"/><ellipse cx="18" cy="54.034" fill="none" rx="3" ry="3" style="stroke:#038048;stroke-width:1.0;"/><text fill="#000000" font-family="sans-serif" font-size="14" lengthAdjust="spacing" textLength="62" x="27" y="57.9659">add: void</text><ellipse cx="18" cy="73.1019" fill="none" rx="3" ry="3" style="stroke:#038048;stroke-width:1.0;"/><text fill="#000000" font-family="sans-serif" font-size="14" lengthAdjust="spacing" textLength="86" x="27" y="77.0339">remove: void</text><ellipse cx="18" cy="92.1698" fill="none" rx="3" ry="3" style="stroke:#038048;stroke-width:1.0;"/><text fill="#000000" font-family="sans-serif" font-size="14" lengthAdjust="spacing" textLength="84" x="27" y="96.1018">update: void</text><ellipse cx="18" cy="111.2377" fill="none" rx="3" ry="3" style="stroke:#038048;stroke-width:1.0;"/><text fill="#000000" font-family="sans-serif" font-size="14" lengthAdjust="spacing" textLength="138" x="27" y="115.1697">getAll: List&lt;Reader&gt;;</text><line style="stroke:#181818;stroke-width:0.5;" x1="8" x2="170" y1="123.2717" y2="123.2717"/></g><!--class ReaderService--><g id="elem_ReaderService"><rect codeLine="14" fill="#F1F1F1" height="124.2717" id="ReaderService" rx="2.5" ry="2.5" style="stroke:#181818;stroke-width:0.5;" width="130" x="24" y="299.27"/><ellipse cx="39.9" cy="315.27" fill="#ADD1B2" rx="11" ry="11" style="stroke:#181818;stroke-width:1.0;"/><path d="M39.3688,322.1919 Q37.6188,322.1919 36.4781,321.4575 Q35.3531,320.7075 34.7906,319.3638 Q34.2438,318.0044 34.2438,316.2075 Q34.2438,314.1763 34.9,312.7231 Q35.5563,311.27 36.8375,310.4888 Q38.1188,309.7075 39.9938,309.7075 Q40.8844,309.7075 41.5563,309.895 Q42.2281,310.0669 42.9156,310.4106 L42.1031,312.4263 Q41.4781,312.1138 40.9313,311.9888 Q40.4,311.8638 39.9156,311.8638 Q38.7438,311.8638 38.0406,312.395 Q37.3375,312.9263 37.0406,313.8794 Q36.7438,314.8325 36.7438,316.0981 Q36.7438,318.1138 37.4625,319.0825 Q38.1813,320.0356 39.775,320.0356 Q40.3688,320.0356 40.9938,319.8794 Q41.6188,319.7231 42.4469,319.3481 L42.4469,321.5669 Q41.7125,321.8794 40.9156,322.0356 Q40.1344,322.1919 39.3688,322.1919 Z " fill="#000000"/><text fill="#000000" font-family="sans-serif" font-size="14" lengthAdjust="spacing" textLength="96" x="54.1" y="320.702">ReaderService</text><line style="stroke:#181818;stroke-width:0.5;" x1="25" x2="153" y1="331.27" y2="331.27"/><ellipse cx="35" cy="346.304" fill="none" rx="3" ry="3" style="stroke:#038048;stroke-width:1.0;"/><text fill="#000000" font-family="sans-serif" font-size="14" lengthAdjust="spacing" textLength="98" x="44" y="350.2359">create: Reader</text><ellipse cx="35" cy="365.3719" fill="none" rx="3" ry="3" style="stroke:#038048;stroke-width:1.0;"/><text fill="#000000" font-family="sans-serif" font-size="14" lengthAdjust="spacing" textLength="86" x="44" y="369.3039">remove: void</text><ellipse cx="35" cy="384.4398" fill="none" rx="3" ry="3" style="stroke:#038048;stroke-width:1.0;"/><text fill="#000000" font-family="sans-serif" font-size="14" lengthAdjust="spacing" textLength="104" x="44" y="388.3718">update: Reader</text><ellipse cx="35" cy="403.5077" fill="none" rx="3" ry="3" style="stroke:#038048;stroke-width:1.0;"/><text fill="#000000" font-family="sans-serif" font-size="14" lengthAdjust="spacing" textLength="62" x="44" y="407.4397">add: void</text><line style="stroke:#181818;stroke-width:0.5;" x1="25" x2="153" y1="415.5417" y2="415.5417"/></g><!--class ReaderController--><g id="elem_ReaderController"><rect codeLine="21" fill="#F1F1F1" height="48" id="ReaderController" rx="2.5" ry="2.5" style="stroke:#181818;stroke-width:0.5;" width="147" x="189.5" y="337.4"/><ellipse cx="204.5" cy="353.4" fill="#ADD1B2" rx="11" ry="11" style="stroke:#181818;stroke-width:1.0;"/><path d="M203.9688,360.3219 Q202.2188,360.3219 201.0781,359.5875 Q199.9531,358.8375 199.3906,357.4938 Q198.8438,356.1344 198.8438,354.3375 Q198.8438,352.3063 199.5,350.8531 Q200.1563,349.4 201.4375,348.6188 Q202.7188,347.8375 204.5938,347.8375 Q205.4844,347.8375 206.1563,348.025 Q206.8281,348.1969 207.5156,348.5406 L206.7031,350.5563 Q206.0781,350.2438 205.5313,350.1188 Q205,349.9938 204.5156,349.9938 Q203.3438,349.9938 202.6406,350.525 Q201.9375,351.0563 201.6406,352.0094 Q201.3438,352.9625 201.3438,354.2281 Q201.3438,356.2438 202.0625,357.2125 Q202.7813,358.1656 204.375,358.1656 Q204.9688,358.1656 205.5938,358.0094 Q206.2188,357.8531 207.0469,357.4781 L207.0469,359.6969 Q206.3125,360.0094 205.5156,360.1656 Q204.7344,360.3219 203.9688,360.3219 Z " fill="#000000"/><text fill="#000000" font-family="sans-serif" font-size="14" lengthAdjust="spacing" textLength="115" x="218.5" y="358.832">ReaderController</text><line style="stroke:#181818;stroke-width:0.5;" x1="190.5" x2="335.5" y1="369.4" y2="369.4"/><line style="stroke:#181818;stroke-width:0.5;" x1="190.5" x2="335.5" y1="377.4" y2="377.4"/></g><!--class Reader--><g id="elem_Reader"><rect codeLine="24" fill="#F1F1F1" height="48" id="Reader" rx="2.5" ry="2.5" style="stroke:#181818;stroke-width:0.5;" width="80" x="96" y="191.27"/><ellipse cx="111" cy="207.27" fill="#ADD1B2" rx="11" ry="11" style="stroke:#181818;stroke-width:1.0;"/><path d="M110.4688,214.1919 Q108.7188,214.1919 107.5781,213.4575 Q106.4531,212.7075 105.8906,211.3638 Q105.3438,210.0044 105.3438,208.2075 Q105.3438,206.1763 106,204.7231 Q106.6563,203.27 107.9375,202.4888 Q109.2188,201.7075 111.0938,201.7075 Q111.9844,201.7075 112.6563,201.895 Q113.3281,202.0669 114.0156,202.4106 L113.2031,204.4263 Q112.5781,204.1138 112.0313,203.9888 Q111.5,203.8638 111.0156,203.8638 Q109.8438,203.8638 109.1406,204.395 Q108.4375,204.9263 108.1406,205.8794 Q107.8438,206.8325 107.8438,208.0981 Q107.8438,210.1138 108.5625,211.0825 Q109.2813,212.0356 110.875,212.0356 Q111.4688,212.0356 112.0938,211.8794 Q112.7188,211.7231 113.5469,211.3481 L113.5469,213.5669 Q112.8125,213.8794 112.0156,214.0356 Q111.2344,214.1919 110.4688,214.1919 Z " fill="#000000"/><text fill="#000000" font-family="sans-serif" font-size="14" lengthAdjust="spacing" textLength="48" x="125" y="212.702">Reader</text><line style="stroke:#181818;stroke-width:0.5;" x1="97" x2="175" y1="223.27" y2="223.27"/><line style="stroke:#181818;stroke-width:0.5;" x1="97" x2="175" y1="231.27" y2="231.27"/></g><!--reverse link ReaderRepository to ReaderService--><g id="link_ReaderRepository_ReaderService"><path codeLine="29" d="M81.8986,137.549 C79.2086,169.629 77.53,203.56 79,239.27 C79.8,258.67 81.32,279.77 82.93,298.84 " fill="none" id="ReaderRepository-backto-ReaderService" style="stroke:#181818;stroke-width:1.0;"/><polygon fill="#181818" points="82.4,131.57,77.662,140.2043,81.9822,136.5525,85.634,140.8728,82.4,131.57" style="stroke:#181818;stroke-width:1.0;"/><text fill="#000000" font-family="sans-serif" font-size="13" lengthAdjust="spacing" textLength="7" x="74.2953" y="153.264">1</text><text fill="#000000" font-family="sans-serif" font-size="13" lengthAdjust="spacing" textLength="7" x="74.8235" y="287.5608">1</text></g><!--reverse link Reader to ReaderService--><g id="link_Reader_ReaderService"><path codeLine="31" d="M126.4809,245.4547 C121.2309,261.5647 115.86,278.04 109.03,298.99 " fill="none" id="Reader-backto-ReaderService" style="stroke:#181818;stroke-width:1.0;"/><polygon fill="#181818" points="128.34,239.75,121.7482,247.0677,126.7908,244.5039,129.3545,249.5465,128.34,239.75" style="stroke:#181818;stroke-width:1.0;"/><text fill="#000000" font-family="sans-serif" font-size="13" lengthAdjust="spacing" textLength="20" x="104.2561" y="261.3553">0..*</text><text fill="#000000" font-family="sans-serif" font-size="13" lengthAdjust="spacing" textLength="7" x="104.0446" y="287.2872">1</text></g><!--link ReaderRepository to Reader--><g id="link_ReaderRepository_Reader"><path codeLine="32" d="M109.07,131.68 C115.9,152.64 121.282,169.1149 126.522,185.2049 " fill="none" id="ReaderRepository-to-Reader" style="stroke:#181818;stroke-width:1.0;"/><polygon fill="#181818" points="128.38,190.91,129.3964,181.1137,126.8317,186.1558,121.7897,183.591,128.38,190.91" style="stroke:#181818;stroke-width:1.0;"/><text fill="#000000" font-family="sans-serif" font-size="13" lengthAdjust="spacing" textLength="7" x="103.8823" y="153.3861">1</text><text fill="#000000" font-family="sans-serif" font-size="13" lengthAdjust="spacing" textLength="20" x="103.8649" y="179.4771">0..*</text></g><!--reverse link ReaderService to ReaderController--><g id="link_ReaderService_ReaderController"><path codeLine="33" d="M160.25,361.4 C171.86,361.4 177.47,361.4 189.08,361.4 " fill="none" id="ReaderService-backto-ReaderController" style="stroke:#181818;stroke-width:1.0;"/><polygon fill="#181818" points="154.25,361.4,163.25,365.4,159.25,361.4,163.25,357.4,154.25,361.4" style="stroke:#181818;stroke-width:1.0;"/><text fill="#000000" font-family="sans-serif" font-size="13" lengthAdjust="spacing" textLength="7" x="162.1992" y="357.3543">1</text><text fill="#000000" font-family="sans-serif" font-size="13" lengthAdjust="spacing" textLength="7" x="174.459" y="357.495">1</text></g><!--SRC=[XP71QWCX48RlynIIYv2IjRbkIo04UkefVGBHIIgugz7PBQNikpUu6v99ME9573_c-qVbDr7CjLBHwvQwnbScD2hZgSFMuCewVKow0J1Uvopsg2scFSQG7ONqA_v0dDUBqDRMeW_EJkU4JUYHbRfeDV7I4MdhVIq-NQRtiVVc3GO09Mzz7zemcKbOEestC4Z5ytrXwft1EVvfGiPT9nkuPHTQIi5xJ6VHtTrO0SdpBzOBiTgKxVuXWISlP1VdOFcSdfppVL-hQdc1uU5V2sZ3Jpk3tWnVK8y7Olx92F0F]--></g></svg>
