<?xml version="1.0" encoding="us-ascii" standalone="no"?><svg xmlns="http://www.w3.org/2000/svg" xmlns:xlink="http://www.w3.org/1999/xlink" contentStyleType="text/css" height="621px" preserveAspectRatio="none" style="width:1359px;height:621px;background:#FFFFFF;" version="1.1" viewBox="0 0 1359 621" width="1359px" zoomAndPan="magnify"><defs/><g><rect fill="none" height="75.3984" style="stroke:#000000;stroke-width:1.5;" width="614.5" x="569.5" y="331.3594"/><line style="stroke:#181818;stroke-width:0.5;stroke-dasharray:5.0,5.0;" x1="34" x2="34" y1="81.2969" y2="540.2891"/><line style="stroke:#181818;stroke-width:0.5;stroke-dasharray:5.0,5.0;" x1="351.5" x2="351.5" y1="81.2969" y2="540.2891"/><line style="stroke:#181818;stroke-width:0.5;stroke-dasharray:5.0,5.0;" x1="636.5" x2="636.5" y1="81.2969" y2="540.2891"/><line style="stroke:#181818;stroke-width:0.5;stroke-dasharray:5.0,5.0;" x1="969" x2="969" y1="81.2969" y2="540.2891"/><line style="stroke:#181818;stroke-width:0.5;stroke-dasharray:5.0,5.0;" x1="1111" x2="1111" y1="81.2969" y2="540.2891"/><line style="stroke:#181818;stroke-width:0.5;stroke-dasharray:5.0,5.0;" x1="1268" x2="1268" y1="81.2969" y2="540.2891"/><text fill="#000000" font-family="sans-serif" font-size="14" lengthAdjust="spacing" textLength="52" x="5" y="77.9951">Reader</text><ellipse cx="34" cy="13.5" fill="#E2E2F0" rx="8" ry="8" style="stroke:#181818;stroke-width:0.5;"/><path d="M34,21.5 L34,48.5 M21,29.5 L47,29.5 M34,48.5 L21,63.5 M34,48.5 L47,63.5 " fill="none" style="stroke:#181818;stroke-width:0.5;"/><text fill="#000000" font-family="sans-serif" font-size="14" lengthAdjust="spacing" textLength="52" x="5" y="552.2842">Reader</text><ellipse cx="34" cy="564.0859" fill="#E2E2F0" rx="8" ry="8" style="stroke:#181818;stroke-width:0.5;"/><path d="M34,572.0859 L34,599.0859 M21,580.0859 L47,580.0859 M34,599.0859 L21,614.0859 M34,599.0859 L47,614.0859 " fill="none" style="stroke:#181818;stroke-width:0.5;"/><rect fill="#E2E2F0" height="30.2969" rx="2.5" ry="2.5" style="stroke:#181818;stroke-width:0.5;" width="133" x="285.5" y="50"/><text fill="#000000" font-family="sans-serif" font-size="14" lengthAdjust="spacing" textLength="119" x="292.5" y="69.9951">AuthorController</text><rect fill="#E2E2F0" height="30.2969" rx="2.5" ry="2.5" style="stroke:#181818;stroke-width:0.5;" width="133" x="285.5" y="539.2891"/><text fill="#000000" font-family="sans-serif" font-size="14" lengthAdjust="spacing" textLength="119" x="292.5" y="559.2842">AuthorController</text><rect fill="#E2E2F0" height="30.2969" rx="2.5" ry="2.5" style="stroke:#181818;stroke-width:0.5;" width="115" x="579.5" y="50"/><text fill="#000000" font-family="sans-serif" font-size="14" lengthAdjust="spacing" textLength="101" x="586.5" y="69.9951">AuthorService</text><rect fill="#E2E2F0" height="30.2969" rx="2.5" ry="2.5" style="stroke:#181818;stroke-width:0.5;" width="115" x="579.5" y="539.2891"/><text fill="#000000" font-family="sans-serif" font-size="14" lengthAdjust="spacing" textLength="101" x="586.5" y="559.2842">AuthorService</text><rect fill="#E2E2F0" height="30.2969" rx="2.5" ry="2.5" style="stroke:#181818;stroke-width:0.5;" width="138" x="900" y="50"/><text fill="#000000" font-family="sans-serif" font-size="14" lengthAdjust="spacing" textLength="124" x="907" y="69.9951">AuthorRepository</text><rect fill="#E2E2F0" height="30.2969" rx="2.5" ry="2.5" style="stroke:#181818;stroke-width:0.5;" width="138" x="900" y="539.2891"/><text fill="#000000" font-family="sans-serif" font-size="14" lengthAdjust="spacing" textLength="124" x="907" y="559.2842">AuthorRepository</text><rect fill="#E2E2F0" height="30.2969" rx="2.5" ry="2.5" style="stroke:#181818;stroke-width:0.5;" width="126" x="1048" y="50"/><text fill="#000000" font-family="sans-serif" font-size="14" lengthAdjust="spacing" textLength="112" x="1055" y="69.9951">BookRepository</text><rect fill="#E2E2F0" height="30.2969" rx="2.5" ry="2.5" style="stroke:#181818;stroke-width:0.5;" width="126" x="1048" y="539.2891"/><text fill="#000000" font-family="sans-serif" font-size="14" lengthAdjust="spacing" textLength="112" x="1055" y="559.2842">BookRepository</text><rect fill="#E2E2F0" height="30.2969" rx="2.5" ry="2.5" style="stroke:#181818;stroke-width:0.5;" width="169" x="1184" y="50"/><text fill="#000000" font-family="sans-serif" font-size="14" lengthAdjust="spacing" textLength="155" x="1191" y="69.9951">CoAuthorViewMapper</text><rect fill="#E2E2F0" height="30.2969" rx="2.5" ry="2.5" style="stroke:#181818;stroke-width:0.5;" width="169" x="1184" y="539.2891"/><text fill="#000000" font-family="sans-serif" font-size="14" lengthAdjust="spacing" textLength="155" x="1191" y="559.2842">CoAuthorViewMapper</text><polygon fill="#181818" points="340,108.4297,350,112.4297,340,116.4297,344,112.4297" style="stroke:#181818;stroke-width:1.0;"/><line style="stroke:#181818;stroke-width:1.0;" x1="34" x2="346" y1="112.4297" y2="112.4297"/><text fill="#000000" font-family="sans-serif" font-size="13" lengthAdjust="spacing" textLength="294" x="41" y="107.3638">GET /api/authors/{authorNumber}/co-authors</text><polygon fill="#181818" points="625,137.5625,635,141.5625,625,145.5625,629,141.5625" style="stroke:#181818;stroke-width:1.0;"/><line style="stroke:#181818;stroke-width:1.0;" x1="352" x2="631" y1="141.5625" y2="141.5625"/><text fill="#000000" font-family="sans-serif" font-size="13" lengthAdjust="spacing" textLength="241" x="359" y="136.4966">findByAuthorNumber(authorNumber)</text><polygon fill="#181818" points="957,166.6953,967,170.6953,957,174.6953,961,170.6953" style="stroke:#181818;stroke-width:1.0;"/><line style="stroke:#181818;stroke-width:1.0;" x1="637" x2="963" y1="170.6953" y2="170.6953"/><text fill="#000000" font-family="sans-serif" font-size="13" lengthAdjust="spacing" textLength="241" x="644" y="165.6294">findByAuthorNumber(authorNumber)</text><polygon fill="#181818" points="648,195.8281,638,199.8281,648,203.8281,644,199.8281" style="stroke:#181818;stroke-width:1.0;"/><line style="stroke:#181818;stroke-width:1.0;stroke-dasharray:2.0,2.0;" x1="642" x2="968" y1="199.8281" y2="199.8281"/><text fill="#000000" font-family="sans-serif" font-size="13" lengthAdjust="spacing" textLength="42" x="654" y="194.7622">author</text><polygon fill="#181818" points="363,224.9609,353,228.9609,363,232.9609,359,228.9609" style="stroke:#181818;stroke-width:1.0;"/><line style="stroke:#181818;stroke-width:1.0;stroke-dasharray:2.0,2.0;" x1="357" x2="636" y1="228.9609" y2="228.9609"/><text fill="#000000" font-family="sans-serif" font-size="13" lengthAdjust="spacing" textLength="85" x="369" y="223.895">author exists</text><polygon fill="#181818" points="625,254.0938,635,258.0938,625,262.0938,629,258.0938" style="stroke:#181818;stroke-width:1.0;"/><line style="stroke:#181818;stroke-width:1.0;" x1="352" x2="631" y1="258.0938" y2="258.0938"/><text fill="#000000" font-family="sans-serif" font-size="13" lengthAdjust="spacing" textLength="261" x="359" y="253.0278">findCoAuthorsAndBooks(authorNumber)</text><polygon fill="#181818" points="957,283.2266,967,287.2266,957,291.2266,961,287.2266" style="stroke:#181818;stroke-width:1.0;"/><line style="stroke:#181818;stroke-width:1.0;" x1="637" x2="963" y1="287.2266" y2="287.2266"/><text fill="#000000" font-family="sans-serif" font-size="13" lengthAdjust="spacing" textLength="308" x="644" y="282.1606">findCoAuthorsByAuthorNumber(authorNumber)</text><polygon fill="#181818" points="648,312.3594,638,316.3594,648,320.3594,644,316.3594" style="stroke:#181818;stroke-width:1.0;"/><line style="stroke:#181818;stroke-width:1.0;stroke-dasharray:2.0,2.0;" x1="642" x2="968" y1="316.3594" y2="316.3594"/><text fill="#000000" font-family="sans-serif" font-size="13" lengthAdjust="spacing" textLength="65" x="654" y="311.2935">coAuthors</text><path d="M569.5,331.3594 L645.5,331.3594 L645.5,338.4922 L635.5,348.4922 L569.5,348.4922 L569.5,331.3594 " fill="#EEEEEE" style="stroke:#000000;stroke-width:1.5;"/><rect fill="none" height="75.3984" style="stroke:#000000;stroke-width:1.5;" width="614.5" x="569.5" y="331.3594"/><text fill="#000000" font-family="sans-serif" font-size="13" font-weight="bold" lengthAdjust="spacing" textLength="31" x="584.5" y="344.4263">loop</text><text fill="#000000" font-family="sans-serif" font-size="11" font-weight="bold" lengthAdjust="spacing" textLength="126" x="660.5" y="343.5698">[for each co-author]</text><polygon fill="#181818" points="1099,365.625,1109,369.625,1099,373.625,1103,369.625" style="stroke:#181818;stroke-width:1.0;"/><line style="stroke:#181818;stroke-width:1.0;" x1="637" x2="1105" y1="369.625" y2="369.625"/><text fill="#000000" font-family="sans-serif" font-size="13" lengthAdjust="spacing" textLength="261" x="644" y="364.5591">findBooksByAuthorNumber(coAuthor.id)</text><polygon fill="#181818" points="648,394.7578,638,398.7578,648,402.7578,644,398.7578" style="stroke:#181818;stroke-width:1.0;"/><line style="stroke:#181818;stroke-width:1.0;stroke-dasharray:2.0,2.0;" x1="642" x2="1110" y1="398.7578" y2="398.7578"/><text fill="#000000" font-family="sans-serif" font-size="13" lengthAdjust="spacing" textLength="39" x="654" y="393.6919">books</text><polygon fill="#181818" points="1256.5,430.8906,1266.5,434.8906,1256.5,438.8906,1260.5,434.8906" style="stroke:#181818;stroke-width:1.0;"/><line style="stroke:#181818;stroke-width:1.0;" x1="637" x2="1262.5" y1="434.8906" y2="434.8906"/><text fill="#000000" font-family="sans-serif" font-size="13" lengthAdjust="spacing" textLength="220" x="644" y="429.8247">toCoAuthorView(coAuthor, books)</text><polygon fill="#181818" points="648,460.0234,638,464.0234,648,468.0234,644,464.0234" style="stroke:#181818;stroke-width:1.0;"/><line style="stroke:#181818;stroke-width:1.0;stroke-dasharray:2.0,2.0;" x1="642" x2="1267.5" y1="464.0234" y2="464.0234"/><text fill="#000000" font-family="sans-serif" font-size="13" lengthAdjust="spacing" textLength="90" x="654" y="458.9575">coAuthorView</text><polygon fill="#181818" points="363,489.1563,353,493.1563,363,497.1563,359,493.1563" style="stroke:#181818;stroke-width:1.0;"/><line style="stroke:#181818;stroke-width:1.0;stroke-dasharray:2.0,2.0;" x1="357" x2="636" y1="493.1563" y2="493.1563"/><text fill="#000000" font-family="sans-serif" font-size="13" lengthAdjust="spacing" textLength="130" x="369" y="488.0903">coAuthorsAndBooks</text><polygon fill="#181818" points="45,518.2891,35,522.2891,45,526.2891,41,522.2891" style="stroke:#181818;stroke-width:1.0;"/><line style="stroke:#181818;stroke-width:1.0;stroke-dasharray:2.0,2.0;" x1="39" x2="351" y1="522.2891" y2="522.2891"/><text fill="#000000" font-family="sans-serif" font-size="13" lengthAdjust="spacing" textLength="200" x="51" y="517.2231">ListResponse&lt;CoAuthorView&gt;</text><!--SRC=[fLDDIyGm5BpdLppsPC7QUv65xY9Ur4CLxzaqomPhNqYowYB-TzDDFzAaI5bxAgypavd9AsK65PISLbmHIPKHJ4ZQ65WLHtD0jSN6AAnhhbP0DOJ3ESepLn-2SG_VJUR09PUeXVLmyl3ZS4hP8Bu5XEbe2j-YatiL_FEHIjbbYCU4k08WNKS9SxY_Uu6CIf7HyoUTVRkNf-FxZgkVZ67QVI4XUHJiAiXXBvfgSoeyXIjVBY4J_2WmXboiCL8WZOquHdZSR0CE2lnBQBCuP5-pBgnPUqlwifo3pBy3irw9r8WIzcqYoWumt1y1-qIsfXlMbT_c2GpryZUYIivAK-ASerqhGtXJGUieRYJUr1mC-jFXr6idbf2OyrSNBMhH2h3mDcVMm1BTVvJ3WzsKack9ZUQtlgNrBm00]--></g></svg>