<?xml version="1.0" encoding="us-ascii" standalone="no"?><svg xmlns="http://www.w3.org/2000/svg" xmlns:xlink="http://www.w3.org/1999/xlink" contentStyleType="text/css" height="782.1px" preserveAspectRatio="none" style="width:909px;height:782px;background:#FFFFFF;" version="1.1" viewBox="0 0 909 782" width="909px" zoomAndPan="magnify"><defs/><g><!--class Authors--><g id="elem_Authors"><rect codeLine="4" fill="#F1F1F1" height="65.3063" id="Authors" rx="2.25" ry="2.25" style="stroke:#181818;stroke-width:0.45;" width="143.1" x="432.9" y="576.9"/><ellipse cx="475.875" cy="595.0195" fill="#ADD1B2" rx="9.9" ry="9.9" style="stroke:#181818;stroke-width:0.9;"/><path d="M475.3969,601.2492 Q473.8219,601.2492 472.7953,600.5883 Q471.7828,599.9133 471.2766,598.7039 Q470.7844,597.4805 470.7844,595.8633 Q470.7844,594.0352 471.375,592.7273 Q471.9656,591.4195 473.1188,590.7164 Q474.2719,590.0133 475.9594,590.0133 Q476.7609,590.0133 477.3656,590.182 Q477.9703,590.3367 478.5891,590.6461 L477.8578,592.4602 Q477.2953,592.1789 476.8031,592.0664 Q476.325,591.9539 475.8891,591.9539 Q474.8344,591.9539 474.2016,592.432 Q473.5688,592.9102 473.3016,593.768 Q473.0344,594.6258 473.0344,595.7648 Q473.0344,597.5789 473.6813,598.4508 Q474.3281,599.3086 475.7625,599.3086 Q476.2969,599.3086 476.8594,599.168 Q477.4219,599.0273 478.1672,598.6898 L478.1672,600.6867 Q477.5063,600.968 476.7891,601.1086 Q476.0859,601.2492 475.3969,601.2492 Z " fill="#000000"/><text fill="#000000" font-family="sans-serif" font-size="10.8" font-style="italic" lengthAdjust="spacing" textLength="44.1" x="497.025" y="591.4248">&#171;entity&#187;</text><text fill="#000000" font-family="sans-serif" font-size="12.6" lengthAdjust="spacing" textLength="49.5" x="494.325" y="605.6675">Authors</text><line style="stroke:#181818;stroke-width:0.45;" x1="433.8" x2="575.1" y1="613.1391" y2="613.1391"/><text fill="#000000" font-family="sans-serif" font-size="12.6" lengthAdjust="spacing" textLength="132.3" x="438.3" y="628.4347">-authorsNumber : int</text><line style="stroke:#181818;stroke-width:0.45;" x1="433.8" x2="575.1" y1="635.0063" y2="635.0063"/></g><!--class Name--><g id="elem_Name"><rect codeLine="7" fill="#F1F1F1" height="79.9734" id="Name" rx="2.25" ry="2.25" style="stroke:#181818;stroke-width:0.45;" width="130.5" x="277.2" y="696.6"/><ellipse cx="318.375" cy="714.7195" fill="#ADD1B2" rx="9.9" ry="9.9" style="stroke:#181818;stroke-width:0.9;"/><path d="M317.8969,720.9492 Q316.3219,720.9492 315.2953,720.2883 Q314.2828,719.6133 313.7766,718.4039 Q313.2844,717.1805 313.2844,715.5633 Q313.2844,713.7352 313.875,712.4273 Q314.4656,711.1195 315.6188,710.4164 Q316.7719,709.7133 318.4594,709.7133 Q319.2609,709.7133 319.8656,709.882 Q320.4703,710.0367 321.0891,710.3461 L320.3578,712.1602 Q319.7953,711.8789 319.3031,711.7664 Q318.825,711.6539 318.3891,711.6539 Q317.3344,711.6539 316.7016,712.132 Q316.0688,712.6102 315.8016,713.468 Q315.5344,714.3258 315.5344,715.4648 Q315.5344,717.2789 316.1813,718.1508 Q316.8281,719.0086 318.2625,719.0086 Q318.7969,719.0086 319.3594,718.868 Q319.9219,718.7273 320.6672,718.3898 L320.6672,720.3867 Q320.0063,720.668 319.2891,720.8086 Q318.5859,720.9492 317.8969,720.9492 Z " fill="#000000"/><text fill="#000000" font-family="sans-serif" font-size="10.8" font-style="italic" lengthAdjust="spacing" textLength="44.1" x="335.025" y="711.1248">&#171;entity&#187;</text><text fill="#000000" font-family="sans-serif" font-size="12.6" lengthAdjust="spacing" textLength="37.8" x="338.175" y="725.3675">Name</text><line style="stroke:#181818;stroke-width:0.45;" x1="278.1" x2="406.8" y1="732.8391" y2="732.8391"/><text fill="#000000" font-family="sans-serif" font-size="12.6" lengthAdjust="spacing" textLength="85.5" x="282.6" y="748.1347">-name: string</text><line style="stroke:#181818;stroke-width:0.45;" x1="278.1" x2="406.8" y1="754.7063" y2="754.7063"/><text fill="#000000" font-family="sans-serif" font-size="12.6" lengthAdjust="spacing" textLength="119.7" x="282.6" y="770.0019">+toString() : String</text></g><!--class AuthorBio--><g id="elem_AuthorBio"><rect codeLine="12" fill="#F1F1F1" height="79.9734" id="AuthorBio" rx="2.25" ry="2.25" style="stroke:#181818;stroke-width:0.45;" width="130.5" x="439.2" y="696.6"/><ellipse cx="469.71" cy="714.7195" fill="#ADD1B2" rx="9.9" ry="9.9" style="stroke:#181818;stroke-width:0.9;"/><path d="M469.2319,720.9492 Q467.6569,720.9492 466.6303,720.2883 Q465.6178,719.6133 465.1116,718.4039 Q464.6194,717.1805 464.6194,715.5633 Q464.6194,713.7352 465.21,712.4273 Q465.8006,711.1195 466.9538,710.4164 Q468.1069,709.7133 469.7944,709.7133 Q470.5959,709.7133 471.2006,709.882 Q471.8053,710.0367 472.4241,710.3461 L471.6928,712.1602 Q471.1303,711.8789 470.6381,711.7664 Q470.16,711.6539 469.7241,711.6539 Q468.6694,711.6539 468.0366,712.132 Q467.4038,712.6102 467.1366,713.468 Q466.8694,714.3258 466.8694,715.4648 Q466.8694,717.2789 467.5163,718.1508 Q468.1631,719.0086 469.5975,719.0086 Q470.1319,719.0086 470.6944,718.868 Q471.2569,718.7273 472.0022,718.3898 L472.0022,720.3867 Q471.3413,720.668 470.6241,720.8086 Q469.9209,720.9492 469.2319,720.9492 Z " fill="#000000"/><text fill="#000000" font-family="sans-serif" font-size="10.8" font-style="italic" lengthAdjust="spacing" textLength="41.4" x="497.34" y="711.1248">&#171;value&#187;</text><text fill="#000000" font-family="sans-serif" font-size="12.6" lengthAdjust="spacing" textLength="63.9" x="486.09" y="725.3675">AuthorBio</text><line style="stroke:#181818;stroke-width:0.45;" x1="440.1" x2="568.8" y1="732.8391" y2="732.8391"/><text fill="#000000" font-family="sans-serif" font-size="12.6" lengthAdjust="spacing" textLength="107.1" x="444.6" y="748.1347">-Short Bio: string</text><line style="stroke:#181818;stroke-width:0.45;" x1="440.1" x2="568.8" y1="754.7063" y2="754.7063"/><text fill="#000000" font-family="sans-serif" font-size="12.6" lengthAdjust="spacing" textLength="119.7" x="444.6" y="770.0019">+toString() : String</text></g><!--class Photo--><g id="elem_Photo"><rect codeLine="17" fill="#F1F1F1" height="65.3063" id="Photo" rx="2.25" ry="2.25" style="stroke:#181818;stroke-width:0.45;" width="98.1" x="601.2" y="703.8"/><ellipse cx="627.255" cy="721.9195" fill="#ADD1B2" rx="9.9" ry="9.9" style="stroke:#181818;stroke-width:0.9;"/><path d="M626.7769,728.1492 Q625.2019,728.1492 624.1753,727.4883 Q623.1628,726.8133 622.6566,725.6039 Q622.1644,724.3805 622.1644,722.7633 Q622.1644,720.9352 622.755,719.6273 Q623.3456,718.3195 624.4988,717.6164 Q625.6519,716.9133 627.3394,716.9133 Q628.1409,716.9133 628.7456,717.082 Q629.3503,717.2367 629.9691,717.5461 L629.2378,719.3602 Q628.6753,719.0789 628.1831,718.9664 Q627.705,718.8539 627.2691,718.8539 Q626.2144,718.8539 625.5816,719.332 Q624.9488,719.8102 624.6816,720.668 Q624.4144,721.5258 624.4144,722.6648 Q624.4144,724.4789 625.0613,725.3508 Q625.7081,726.2086 627.1425,726.2086 Q627.6769,726.2086 628.2394,726.068 Q628.8019,725.9273 629.5472,725.5898 L629.5472,727.5867 Q628.8863,727.868 628.1691,728.0086 Q627.4659,728.1492 626.7769,728.1492 Z " fill="#000000"/><text fill="#000000" font-family="sans-serif" font-size="10.8" font-style="italic" lengthAdjust="spacing" textLength="45" x="640.845" y="718.3248">&#171;Entity&#187;</text><text fill="#000000" font-family="sans-serif" font-size="12.6" lengthAdjust="spacing" textLength="36" x="645.345" y="732.5675">Photo</text><line style="stroke:#181818;stroke-width:0.45;" x1="602.1" x2="698.4" y1="740.0391" y2="740.0391"/><text fill="#000000" font-family="sans-serif" font-size="12.6" lengthAdjust="spacing" textLength="87.3" x="606.6" y="755.3347">-photo: Byte[]</text><line style="stroke:#181818;stroke-width:0.45;" x1="602.1" x2="698.4" y1="761.9063" y2="761.9063"/></g><!--class AuthorsController--><g id="elem_AuthorsController"><rect codeLine="21" fill="#F1F1F1" height="131.2031" id="AuthorsController" rx="2.25" ry="2.25" style="stroke:#181818;stroke-width:0.45;" width="797.4" x="105.75" y="6.3"/><ellipse cx="443.925" cy="20.7" fill="#ADD1B2" rx="9.9" ry="9.9" style="stroke:#181818;stroke-width:0.9;"/><path d="M443.4469,26.9297 Q441.8719,26.9297 440.8453,26.2688 Q439.8328,25.5938 439.3266,24.3844 Q438.8344,23.1609 438.8344,21.5438 Q438.8344,19.7156 439.425,18.4078 Q440.0156,17.1 441.1688,16.3969 Q442.3219,15.6938 444.0094,15.6938 Q444.8109,15.6938 445.4156,15.8625 Q446.0203,16.0172 446.6391,16.3266 L445.9078,18.1406 Q445.3453,17.8594 444.8531,17.7469 Q444.375,17.6344 443.9391,17.6344 Q442.8844,17.6344 442.2516,18.1125 Q441.6188,18.5906 441.3516,19.4484 Q441.0844,20.3063 441.0844,21.4453 Q441.0844,23.2594 441.7313,24.1313 Q442.3781,24.9891 443.8125,24.9891 Q444.3469,24.9891 444.9094,24.8484 Q445.4719,24.7078 446.2172,24.3703 L446.2172,26.3672 Q445.5563,26.6484 444.8391,26.7891 Q444.1359,26.9297 443.4469,26.9297 Z " fill="#000000"/><text fill="#000000" font-family="sans-serif" font-size="12.6" lengthAdjust="spacing" textLength="113.4" x="462.375" y="25.062">AuthorsController</text><line style="stroke:#181818;stroke-width:0.45;" x1="106.65" x2="902.25" y1="35.1" y2="35.1"/><line style="stroke:#181818;stroke-width:0.45;" x1="106.65" x2="902.25" y1="42.3" y2="42.3"/><text fill="#000000" font-family="sans-serif" font-size="12.6" lengthAdjust="spacing" textLength="461.7" x="111.15" y="57.5956">+create(CreateAuthorRequest resource): ResponseEntity&lt;AuthorView&gt;</text><text fill="#000000" font-family="sans-serif" font-size="12.6" lengthAdjust="spacing" textLength="786.6" x="111.15" y="72.2628">+partialUpdate(Long authorNumber, WebRequest request, UpdateAuthorRequest resource): ResponseEntity&lt;AuthorView&gt;</text><text fill="#000000" font-family="sans-serif" font-size="12.6" lengthAdjust="spacing" textLength="485.1" x="111.15" y="86.93">+findByAuthorNumber(Long authorNumber): ResponseEntity&lt;AuthorView&gt;</text><text fill="#000000" font-family="sans-serif" font-size="12.6" lengthAdjust="spacing" textLength="363.6" x="111.15" y="101.5972">+findByName(String name): ListResponse&lt;AuthorView&gt;</text><text fill="#000000" font-family="sans-serif" font-size="12.6" lengthAdjust="spacing" textLength="495" x="111.15" y="116.2644">+getBooksByAuthorNumber(Long authorNumber): ListResponse&lt;BookView&gt;</text><text fill="#000000" font-family="sans-serif" font-size="12.6" lengthAdjust="spacing" textLength="260.1" x="111.15" y="130.9315">+getTop5(): ListResponse&lt;AuthorView&gt;</text></g><!--class AuthorsServiceImpl--><g id="elem_AuthorsServiceImpl"><rect codeLine="30" fill="#F1F1F1" height="43.2" id="AuthorsServiceImpl" rx="2.25" ry="2.25" style="stroke:#181818;stroke-width:0.45;" width="153.9" x="427.5" y="435.6"/><ellipse cx="441" cy="450" fill="#ADD1B2" rx="9.9" ry="9.9" style="stroke:#181818;stroke-width:0.9;"/><path d="M440.5219,456.2297 Q438.9469,456.2297 437.9203,455.5688 Q436.9078,454.8938 436.4016,453.6844 Q435.9094,452.4609 435.9094,450.8438 Q435.9094,449.0156 436.5,447.7078 Q437.0906,446.4 438.2438,445.6969 Q439.3969,444.9938 441.0844,444.9938 Q441.8859,444.9938 442.4906,445.1625 Q443.0953,445.3172 443.7141,445.6266 L442.9828,447.4406 Q442.4203,447.1594 441.9281,447.0469 Q441.45,446.9344 441.0141,446.9344 Q439.9594,446.9344 439.3266,447.4125 Q438.6938,447.8906 438.4266,448.7484 Q438.1594,449.6063 438.1594,450.7453 Q438.1594,452.5594 438.8063,453.4313 Q439.4531,454.2891 440.8875,454.2891 Q441.4219,454.2891 441.9844,454.1484 Q442.5469,454.0078 443.2922,453.6703 L443.2922,455.6672 Q442.6313,455.9484 441.9141,456.0891 Q441.2109,456.2297 440.5219,456.2297 Z " fill="#000000"/><text fill="#000000" font-family="sans-serif" font-size="12.6" lengthAdjust="spacing" textLength="125.1" x="453.6" y="454.362">AuthorsServiceImpl</text><line style="stroke:#181818;stroke-width:0.45;" x1="428.4" x2="580.5" y1="464.4" y2="464.4"/><line style="stroke:#181818;stroke-width:0.45;" x1="428.4" x2="580.5" y1="471.6" y2="471.6"/></g><!--class AuthorsService--><g id="elem_AuthorsService"><rect codeLine="33" fill="#F1F1F1" height="145.8703" id="AuthorsService" rx="2.25" ry="2.25" style="stroke:#181818;stroke-width:0.45;" width="641.7" x="183.6" y="191.7"/><ellipse cx="452.025" cy="206.1" fill="#B4A7E5" rx="9.9" ry="9.9" style="stroke:#181818;stroke-width:0.9;"/><path d="M448.4531,211.95 L448.4531,210.4172 L450.5766,210.1781 L450.5766,202.7953 L448.4531,202.5563 L448.4531,201.0234 L454.8797,201.0234 L454.8797,202.5563 L452.7,202.7953 L452.7,210.1781 L454.8797,210.4172 L454.8797,211.95 L448.4531,211.95 Z " fill="#000000"/><text fill="#000000" font-family="sans-serif" font-size="12.6" font-style="italic" lengthAdjust="spacing" textLength="97.2" x="470.475" y="210.462">AuthorsService</text><line style="stroke:#181818;stroke-width:0.45;" x1="184.5" x2="824.4" y1="220.5" y2="220.5"/><line style="stroke:#181818;stroke-width:0.45;" x1="184.5" x2="824.4" y1="227.7" y2="227.7"/><text fill="#000000" font-family="sans-serif" font-size="12.6" lengthAdjust="spacing" textLength="182.7" x="189" y="242.9956">+Iterable&lt;Author&gt; findAll();</text><text fill="#000000" font-family="sans-serif" font-size="12.6" lengthAdjust="spacing" textLength="410.4" x="189" y="257.6628">+Optional&lt;Author&gt; findByAuthorNumber(Long authorNumber);</text><text fill="#000000" font-family="sans-serif" font-size="12.6" lengthAdjust="spacing" textLength="270.9" x="189" y="272.33">+List&lt;Author&gt; findByName(String name);</text><text fill="#000000" font-family="sans-serif" font-size="12.6" lengthAdjust="spacing" textLength="311.4" x="189" y="286.9972">+Author create(CreateAuthorRequest resource);</text><text fill="#000000" font-family="sans-serif" font-size="12.6" lengthAdjust="spacing" textLength="630.9" x="189" y="301.6644">+Author partialUpdate(Long authorNumber, UpdateAuthorRequest resource, long desiredVersion);</text><text fill="#000000" font-family="sans-serif" font-size="12.6" lengthAdjust="spacing" textLength="279.9" x="189" y="316.3315">+List&lt;Author&gt; findTopAuthorByLendings();</text><text fill="#000000" font-family="sans-serif" font-size="12.6" lengthAdjust="spacing" textLength="405.9" x="189" y="330.9987">+List&lt;Book&gt; findBooksByAuthorNumber(Long authorNumber);</text></g><!--class AuthorsRepository--><g id="elem_AuthorsRepository"><rect codeLine="44" fill="#F1F1F1" height="131.2031" id="AuthorsRepository" rx="2.25" ry="2.25" style="stroke:#181818;stroke-width:0.45;" width="389.7" x="6.3" y="391.5"/><ellipse cx="138.375" cy="405.9" fill="#B4A7E5" rx="9.9" ry="9.9" style="stroke:#181818;stroke-width:0.9;"/><path d="M134.8031,411.75 L134.8031,410.2172 L136.9266,409.9781 L136.9266,402.5953 L134.8031,402.3563 L134.8031,400.8234 L141.2297,400.8234 L141.2297,402.3563 L139.05,402.5953 L139.05,409.9781 L141.2297,410.2172 L141.2297,411.75 L134.8031,411.75 Z " fill="#000000"/><text fill="#000000" font-family="sans-serif" font-size="12.6" font-style="italic" lengthAdjust="spacing" textLength="117.9" x="156.825" y="410.262">AuthorsRepository</text><line style="stroke:#181818;stroke-width:0.45;" x1="7.2" x2="395.1" y1="420.3" y2="420.3"/><line style="stroke:#181818;stroke-width:0.45;" x1="7.2" x2="395.1" y1="427.5" y2="427.5"/><text fill="#000000" font-family="sans-serif" font-size="12.6" lengthAdjust="spacing" textLength="283.5" x="11.7" y="442.7956">+findByAuthorNumber(Long authorNumber)</text><text fill="#000000" font-family="sans-serif" font-size="12.6" lengthAdjust="spacing" textLength="378.9" x="11.7" y="457.4628">+searchByAuthorNameLike(@Param("name") String name)</text><text fill="#000000" font-family="sans-serif" font-size="12.6" lengthAdjust="spacing" textLength="176.4" x="11.7" y="472.13">+findByName(String name)</text><text fill="#000000" font-family="sans-serif" font-size="12.6" lengthAdjust="spacing" textLength="138.6" x="11.7" y="486.7972">+save(Author author)</text><text fill="#000000" font-family="sans-serif" font-size="12.6" lengthAdjust="spacing" textLength="60.3" x="11.7" y="501.4644">+findAll()</text><text fill="#000000" font-family="sans-serif" font-size="12.6" lengthAdjust="spacing" textLength="347.4" x="11.7" y="516.1315">+findTopAuthorByLendings (Pageable pageableRules)</text></g><!--reverse link AuthorsService to AuthorsServiceImpl--><g id="link_AuthorsService_AuthorsServiceImpl"><path d="M504.45,353.835 C504.45,388.656 504.45,411.687 504.45,435.177 " fill="none" id="AuthorsService-backto-AuthorsServiceImpl" style="stroke:#181818;stroke-width:0.9;stroke-dasharray:7.0,7.0;"/><polygon fill="none" points="504.45,337.635,499.05,353.835,509.85,353.835,504.45,337.635" style="stroke:#181818;stroke-width:0.9;"/></g><!--link AuthorsServiceImpl to Authors--><g id="link_AuthorsServiceImpl_Authors"><path codeLine="53" d="M504.45,479.061 C504.45,504.387 504.45,541.854 504.45,571.347 " fill="none" id="AuthorsServiceImpl-to-Authors" style="stroke:#181818;stroke-width:0.9;stroke-dasharray:7.0,7.0;"/><polygon fill="#181818" points="504.45,576.747,508.05,568.647,504.45,572.247,500.85,568.647,504.45,576.747" style="stroke:#181818;stroke-width:0.9;"/></g><!--link AuthorsController to AuthorsService--><g id="link_AuthorsController_AuthorsService"><path codeLine="54" d="M504.45,137.763 C504.45,155.052 504.45,168.426 504.45,186.084 " fill="none" id="AuthorsController-to-AuthorsService" style="stroke:#181818;stroke-width:0.9;stroke-dasharray:7.0,7.0;"/><polygon fill="#181818" points="504.45,191.484,508.05,183.384,504.45,186.984,500.85,183.384,504.45,191.484" style="stroke:#181818;stroke-width:0.9;"/></g><!--reverse link AuthorsRepository to AuthorsServiceImpl--><g id="link_AuthorsRepository_AuthorsServiceImpl"><path codeLine="55" d="M401.445,457.2 C411.885,457.2 416.934,457.2 427.383,457.2 " fill="none" id="AuthorsRepository-backto-AuthorsServiceImpl" style="stroke:#181818;stroke-width:0.9;stroke-dasharray:7.0,7.0;"/><polygon fill="#181818" points="396.045,457.2,404.145,460.8,400.545,457.2,404.145,453.6,396.045,457.2" style="stroke:#181818;stroke-width:0.9;"/></g><!--link Authors to Name--><g id="link_Authors_Name"><path codeLine="57" d="M462.735,642.87 C441.54,659.232 424.176,672.6368 401.829,689.8988 " fill="none" id="Authors-to-Name" style="stroke:#181818;stroke-width:0.9;"/><polygon fill="none" points="393.282,696.501,399.7562,696.0489,401.829,689.8988,395.3548,690.3509,393.282,696.501" style="stroke:#181818;stroke-width:0.9;"/></g><!--link Authors to Photo--><g id="link_Authors_Photo"><path codeLine="58" d="M541.998,642.87 C563.769,661.545 582.8893,677.9463 604.6333,696.6123 " fill="none" id="Authors-to-Photo" style="stroke:#181818;stroke-width:0.9;"/><polygon fill="none" points="612.828,703.647,611.0755,697.3981,604.6333,696.6123,606.3858,702.8612,612.828,703.647" style="stroke:#181818;stroke-width:0.9;"/></g><!--link Authors to AuthorBio--><g id="link_Authors_AuthorBio"><path codeLine="59" d="M504.45,642.87 C504.45,659.232 504.45,668.439 504.45,685.701 " fill="none" id="Authors-to-AuthorBio" style="stroke:#181818;stroke-width:0.9;"/><polygon fill="none" points="504.45,696.501,508.05,691.101,504.45,685.701,500.85,691.101,504.45,696.501" style="stroke:#181818;stroke-width:0.9;"/></g><!--SRC=[fLHDZzem4BtdLupsqg3bevTUM8GAgnwGq1P1ktkeUZ3901QEdTeJAhhgVwyTcu-4x2whSY2EPzvxdZSJVzWGvQRVw-M2IIeoqKrKrai4CwQJShRMB8iYi-KoPtO9PM14fFco89maIYxu7uIFKHc0KK4RfGqC1YY9qtuuV8x0_Zh0VEIXo9QeeGzSKlGte1vOXWqGQRVxOAoMN9TRjq1gKRx6BKlXbvQb8ZxcodBjc2ZmHBMm0G8RUW_VRAF8SNsfdIjt-tqOxmb__ApBctibIIiXR9KUu9KIZOmmlYyVFdMElmeq11gDAdI2hJxCqUHA6lII0v_toF7ty8pATe8u4z_pr35EbLm7TxsvRNZ2vOcxVBR1P_-Vy8hBTBmVdMbTgh-FotK-zhwNxRReAJTqO7W1kqOQAxKrLvobmkP03LpVLFufVasvtk85wXrFS9Bb0hZzmyoERZtwx61sob6lM8ArO1YDsuaDiwKuo0rBMqP2nAqxd_0r9wua4vM4D-iEO5TG3NXXU4ZrMLTDQHNnvZ2-DdXj40wGek4QqqVKnXRxukbjdy8dlf-YJ6q99guak_w6GgyQZxkeiKTpp9NXfFJ-qARhN0-v1fbEDiTiQ_AKRp7-F7CNQ7pZNBzfmNaFebS_2HyrR8TnyDohXi1nOawl3KP1F6DhTADcE-ONyqAWQJa76iQwsnqUx8WkBxQpQ00rSWXSqIdpPEjH4JeTLTx-bOtotgti76_sVm00]--></g></svg>