<?xml version="1.0" encoding="us-ascii" standalone="no"?><svg xmlns="http://www.w3.org/2000/svg" xmlns:xlink="http://www.w3.org/1999/xlink" contentStyleType="text/css" height="424.8px" preserveAspectRatio="none" style="width:626px;height:424px;background:#FFFFFF;" version="1.1" viewBox="0 0 626 424" width="626.4px" zoomAndPan="magnify"><defs/><g><text fill="#000000" font-family="sans-serif" font-size="11.2" font-weight="bold" lengthAdjust="spacing" textLength="228" x="198.6" y="24.0859">WP#4B.15 Get Average Lending Duration</text><rect fill="#FFFFFF" height="175.2297" style="stroke:#181818;stroke-width:0.8000000000000002;" width="8" x="196" y="168.8922"/><rect fill="#FFFFFF" height="125.1641" style="stroke:#181818;stroke-width:0.8000000000000002;" width="8" x="307.2" y="193.925"/><rect fill="#FFFFFF" height="75.0984" style="stroke:#181818;stroke-width:0.8000000000000002;" width="8" x="435.2" y="218.9578"/><rect fill="#FFFFFF" height="25.0328" style="stroke:#181818;stroke-width:0.8000000000000002;" width="8" x="563.2" y="243.9906"/><line style="stroke:#181818;stroke-width:0.4000000000000001;stroke-dasharray:5.0,5.0;" x1="43.2" x2="43.2" y1="98.5938" y2="358.5219"/><line style="stroke:#181818;stroke-width:0.4000000000000001;stroke-dasharray:5.0,5.0;" x1="200" x2="200" y1="98.5938" y2="358.5219"/><line style="stroke:#181818;stroke-width:0.4000000000000001;stroke-dasharray:5.0,5.0;" x1="310.8" x2="310.8" y1="98.5938" y2="358.5219"/><line style="stroke:#181818;stroke-width:0.4000000000000001;stroke-dasharray:5.0,5.0;" x1="439.2" x2="439.2" y1="98.5938" y2="358.5219"/><line style="stroke:#181818;stroke-width:0.4000000000000001;stroke-dasharray:5.0,5.0;" x1="566.8" x2="566.8" y1="98.5938" y2="358.5219"/><text fill="#000000" font-family="sans-serif" font-size="11.2" lengthAdjust="spacing" textLength="44.8" x="18.4" y="95.7828">Librarian</text><ellipse cx="43.2" cy="42.4969" fill="#E2E2F0" rx="6.4" ry="6.4" style="stroke:#181818;stroke-width:0.4000000000000001;"/><path d="M43.2,48.8969 L43.2,70.4969 M32.8,55.2969 L53.6,55.2969 M43.2,70.4969 L32.8,82.4969 M43.2,70.4969 L53.6,82.4969 " fill="none" style="stroke:#181818;stroke-width:0.4000000000000001;"/><text fill="#000000" font-family="sans-serif" font-size="11.2" lengthAdjust="spacing" textLength="44.8" x="18.4" y="369.8078">Librarian</text><ellipse cx="43.2" cy="379.4188" fill="#E2E2F0" rx="6.4" ry="6.4" style="stroke:#181818;stroke-width:0.4000000000000001;"/><path d="M43.2,385.8188 L43.2,407.4188 M32.8,392.2188 L53.6,392.2188 M43.2,407.4188 L32.8,419.4188 M43.2,407.4188 L53.6,419.4188 " fill="none" style="stroke:#181818;stroke-width:0.4000000000000001;"/><rect fill="#E2E2F0" height="26.0969" rx="2" ry="2" style="stroke:#181818;stroke-width:0.4000000000000001;" width="48" x="176" y="71.6969"/><text fill="#000000" font-family="sans-serif" font-size="11.2" lengthAdjust="spacing" textLength="36.8" x="181.6" y="89.3828">System</text><rect fill="#E2E2F0" height="26.0969" rx="2" ry="2" style="stroke:#181818;stroke-width:0.4000000000000001;" width="48" x="176" y="357.7219"/><text fill="#000000" font-family="sans-serif" font-size="11.2" lengthAdjust="spacing" textLength="36.8" x="181.6" y="375.4078">System</text><rect fill="#E2E2F0" height="26.0969" rx="2" ry="2" style="stroke:#181818;stroke-width:0.4000000000000001;" width="104.8" x="258.8" y="71.6969"/><text fill="#000000" font-family="sans-serif" font-size="11.2" lengthAdjust="spacing" textLength="93.6" x="264.4" y="89.3828">:LendingController</text><rect fill="#E2E2F0" height="26.0969" rx="2" ry="2" style="stroke:#181818;stroke-width:0.4000000000000001;" width="104.8" x="258.8" y="357.7219"/><text fill="#000000" font-family="sans-serif" font-size="11.2" lengthAdjust="spacing" textLength="93.6" x="264.4" y="375.4078">:LendingController</text><rect fill="#E2E2F0" height="26.0969" rx="2" ry="2" style="stroke:#181818;stroke-width:0.4000000000000001;" width="92.8" x="392.8" y="71.6969"/><text fill="#000000" font-family="sans-serif" font-size="11.2" lengthAdjust="spacing" textLength="81.6" x="398.4" y="89.3828">:LendingService</text><rect fill="#E2E2F0" height="26.0969" rx="2" ry="2" style="stroke:#181818;stroke-width:0.4000000000000001;" width="92.8" x="392.8" y="357.7219"/><text fill="#000000" font-family="sans-serif" font-size="11.2" lengthAdjust="spacing" textLength="81.6" x="398.4" y="375.4078">:LendingService</text><rect fill="#E2E2F0" height="26.0969" rx="2" ry="2" style="stroke:#181818;stroke-width:0.4000000000000001;" width="109.6" x="512.4" y="71.6969"/><text fill="#000000" font-family="sans-serif" font-size="11.2" lengthAdjust="spacing" textLength="98.4" x="518" y="89.3828">:LendingRepository</text><rect fill="#E2E2F0" height="26.0969" rx="2" ry="2" style="stroke:#181818;stroke-width:0.4000000000000001;" width="109.6" x="512.4" y="357.7219"/><text fill="#000000" font-family="sans-serif" font-size="11.2" lengthAdjust="spacing" textLength="98.4" x="518" y="375.4078">:LendingRepository</text><rect fill="#FFFFFF" height="175.2297" style="stroke:#181818;stroke-width:0.8000000000000002;" width="8" x="196" y="168.8922"/><rect fill="#FFFFFF" height="125.1641" style="stroke:#181818;stroke-width:0.8000000000000002;" width="8" x="307.2" y="193.925"/><rect fill="#FFFFFF" height="75.0984" style="stroke:#181818;stroke-width:0.8000000000000002;" width="8" x="435.2" y="218.9578"/><rect fill="#FFFFFF" height="25.0328" style="stroke:#181818;stroke-width:0.8000000000000002;" width="8" x="563.2" y="243.9906"/><path d="M4,110.5938 L4,145.7938 L83.2,145.7938 L83.2,118.5938 L75.2,110.5938 L4,110.5938 " fill="#FEFFDD" style="stroke:#181818;stroke-width:0.4000000000000001;"/><path d="M75.2,110.5938 L75.2,118.5938 L83.2,118.5938 L75.2,110.5938 " fill="#FEFFDD" style="stroke:#181818;stroke-width:0.4000000000000001;"/><text fill="#000000" font-family="sans-serif" font-size="10.4" lengthAdjust="spacing" textLength="50.4" x="8.8" y="125.8164">Librarian is</text><text fill="#000000" font-family="sans-serif" font-size="10.4" lengthAdjust="spacing" textLength="62.4" x="8.8" y="139.6492">authenticated</text><polygon fill="#181818" points="186.4,165.6922,194.4,168.8922,186.4,172.0922,189.6,168.8922" style="stroke:#181818;stroke-width:0.8000000000000002;"/><line style="stroke:#181818;stroke-width:0.8000000000000002;" x1="43.2" x2="191.2" y1="168.8922" y2="168.8922"/><text fill="#000000" font-family="sans-serif" font-size="10.4" font-weight="bold" lengthAdjust="spacing" textLength="5.6" x="48.8" y="164.682">1</text><text fill="#000000" font-family="sans-serif" font-size="10.4" lengthAdjust="spacing" textLength="128.8" x="57.6" y="164.682">get average lending duration</text><polygon fill="#181818" points="297.6,190.725,305.6,193.925,297.6,197.125,300.8,193.925" style="stroke:#181818;stroke-width:0.8000000000000002;"/><line style="stroke:#181818;stroke-width:0.8000000000000002;" x1="204" x2="302.4" y1="193.925" y2="193.925"/><text fill="#000000" font-family="sans-serif" font-size="10.4" font-weight="bold" lengthAdjust="spacing" textLength="5.6" x="209.6" y="189.7148">2</text><text fill="#000000" font-family="sans-serif" font-size="10.4" lengthAdjust="spacing" textLength="79.2" x="218.4" y="189.7148">getAvgDuration();</text><polygon fill="#181818" points="425.6,215.7578,433.6,218.9578,425.6,222.1578,428.8,218.9578" style="stroke:#181818;stroke-width:0.8000000000000002;"/><line style="stroke:#181818;stroke-width:0.8000000000000002;" x1="315.2" x2="430.4" y1="218.9578" y2="218.9578"/><text fill="#000000" font-family="sans-serif" font-size="10.4" font-weight="bold" lengthAdjust="spacing" textLength="5.6" x="320.8" y="214.7477">3</text><text fill="#000000" font-family="sans-serif" font-size="10.4" lengthAdjust="spacing" textLength="96" x="329.6" y="214.7477">getAverageDuration()</text><polygon fill="#181818" points="553.6,240.7906,561.6,243.9906,553.6,247.1906,556.8,243.9906" style="stroke:#181818;stroke-width:0.8000000000000002;"/><line style="stroke:#181818;stroke-width:0.8000000000000002;" x1="443.2" x2="558.4" y1="243.9906" y2="243.9906"/><text fill="#000000" font-family="sans-serif" font-size="10.4" font-weight="bold" lengthAdjust="spacing" textLength="5.6" x="448.8" y="239.7805">4</text><text fill="#000000" font-family="sans-serif" font-size="10.4" lengthAdjust="spacing" textLength="96" x="457.6" y="239.7805">getAverageDuration()</text><polygon fill="#181818" points="452,265.8234,444,269.0234,452,272.2234,448.8,269.0234" style="stroke:#181818;stroke-width:0.8000000000000002;"/><line style="stroke:#181818;stroke-width:0.8000000000000002;stroke-dasharray:2.0,2.0;" x1="447.2" x2="566.4" y1="269.0234" y2="269.0234"/><text fill="#000000" font-family="sans-serif" font-size="10.4" font-weight="bold" lengthAdjust="spacing" textLength="5.6" x="456.8" y="264.8133">5</text><text fill="#000000" font-family="sans-serif" font-size="10.4" lengthAdjust="spacing" textLength="41.6" x="465.6" y="264.8133">(average)</text><polygon fill="#181818" points="324,290.8563,316,294.0563,324,297.2563,320.8,294.0563" style="stroke:#181818;stroke-width:0.8000000000000002;"/><line style="stroke:#181818;stroke-width:0.8000000000000002;stroke-dasharray:2.0,2.0;" x1="319.2" x2="438.4" y1="294.0563" y2="294.0563"/><text fill="#000000" font-family="sans-serif" font-size="10.4" font-weight="bold" lengthAdjust="spacing" textLength="5.6" x="328.8" y="289.8461">6</text><text fill="#000000" font-family="sans-serif" font-size="10.4" lengthAdjust="spacing" textLength="68.8" x="337.6" y="289.8461">(averageString)</text><polygon fill="#181818" points="212.8,315.8891,204.8,319.0891,212.8,322.2891,209.6,319.0891" style="stroke:#181818;stroke-width:0.8000000000000002;"/><line style="stroke:#181818;stroke-width:0.8000000000000002;stroke-dasharray:2.0,2.0;" x1="208" x2="310.4" y1="319.0891" y2="319.0891"/><text fill="#000000" font-family="sans-serif" font-size="10.4" font-weight="bold" lengthAdjust="spacing" textLength="5.6" x="217.6" y="314.8789">7</text><text fill="#000000" font-family="sans-serif" font-size="10.4" lengthAdjust="spacing" textLength="68.8" x="226.4" y="314.8789">(averageString)</text><polygon fill="#181818" points="52,340.9219,44,344.1219,52,347.3219,48.8,344.1219" style="stroke:#181818;stroke-width:0.8000000000000002;"/><line style="stroke:#181818;stroke-width:0.8000000000000002;stroke-dasharray:2.0,2.0;" x1="47.2" x2="199.2" y1="344.1219" y2="344.1219"/><text fill="#000000" font-family="sans-serif" font-size="10.4" font-weight="bold" lengthAdjust="spacing" textLength="5.6" x="56.8" y="339.9117">8</text><text fill="#000000" font-family="sans-serif" font-size="10.4" lengthAdjust="spacing" textLength="68.8" x="65.6" y="339.9117">(averageString)</text><!--SRC=[TP0_JyCm4CLtVufJ66Y7D4A29KX8fKWi7H0PM5YkoIcrvDZXSedKRu-JE7-0ijtvVdvwxzsUHUecJPBQe9MsChlSLKb3NotPdE92OybOAMp5OIwwGo5mTjXjMvs8bH8jXk3ZxUR-UNVt0AyaiE-8iIGuaYsqBU6bPHJj_oaluXYYepuniaOR0JOmRwf65fthsdk1ABiqGjL0ZEFFSnhK3yuAEsE81_GWRAw36N6dSne5n_aw-4wrQxGtUXdjBQzAMTStuFCjhY5TpRhvjBwTCrclwzigb5gEyLD8aaBfQy9Gamar5NDD8zNpVPo1tdVbLEDc-wXKVnW4noI16GGNJeLh3wvY_0El28ZNqflWTAKtMvjkcR3_kms-Lab_0rEstjBKp5_g6m00]--></g></svg>