<?xml version="1.0" encoding="us-ascii" standalone="no"?><svg xmlns="http://www.w3.org/2000/svg" xmlns:xlink="http://www.w3.org/1999/xlink" contentStyleType="text/css" height="443.8px" preserveAspectRatio="none" style="width:847px;height:443px;background:#FFFFFF;" version="1.1" viewBox="0 0 847 443" width="847.7px" zoomAndPan="magnify"><defs/><g><text fill="#000000" font-family="sans-serif" font-size="9.8" font-weight="bold" lengthAdjust="spacing" textLength="213.5" x="316.4" y="21.0752">WP#4B.14 Get Average Lendings Per Genre</text><rect fill="#FFFFFF" height="225.5408" style="stroke:#181818;stroke-width:0.6999999999999998;" width="7" x="141.4" y="147.7807"/><rect fill="#FFFFFF" height="157.526" style="stroke:#181818;stroke-width:0.6999999999999998;" width="7" x="327.6" y="169.6844"/><rect fill="#FFFFFF" height="69.9111" style="stroke:#181818;stroke-width:0.6999999999999998;" width="7" x="511" y="191.5881"/><rect fill="#FFFFFF" height="24.0037" style="stroke:#181818;stroke-width:0.6999999999999998;" width="7" x="694.4" y="215.5918"/><rect fill="#FFFFFF" height="21.9037" style="stroke:#181818;stroke-width:0.6999999999999998;" width="7" x="792.75" y="283.4029"/><line style="stroke:#181818;stroke-width:0.3499999999999999;stroke-dasharray:5.0,5.0;" x1="37.8" x2="37.8" y1="86.2695" y2="385.9215"/><line style="stroke:#181818;stroke-width:0.3499999999999999;stroke-dasharray:5.0,5.0;" x1="144.9" x2="144.9" y1="86.2695" y2="385.9215"/><line style="stroke:#181818;stroke-width:0.3499999999999999;stroke-dasharray:5.0,5.0;" x1="331.1" x2="331.1" y1="86.2695" y2="385.9215"/><line style="stroke:#181818;stroke-width:0.3499999999999999;stroke-dasharray:5.0,5.0;" x1="514.15" x2="514.15" y1="86.2695" y2="385.9215"/><line style="stroke:#181818;stroke-width:0.3499999999999999;stroke-dasharray:5.0,5.0;" x1="697.9" x2="697.9" y1="86.2695" y2="385.9215"/><line style="stroke:#181818;stroke-width:0.3499999999999999;stroke-dasharray:5.0,5.0;" x1="795.9" x2="795.9" y1="86.2695" y2="385.9215"/><text fill="#000000" font-family="sans-serif" font-size="9.8" lengthAdjust="spacing" textLength="39.2" x="16.1" y="83.81">Librarian</text><ellipse cx="37.8" cy="37.1848" fill="#E2E2F0" rx="5.6" ry="5.6" style="stroke:#181818;stroke-width:0.3499999999999999;"/><path d="M37.8,42.7848 L37.8,61.6848 M28.7,48.3848 L46.9,48.3848 M37.8,61.6848 L28.7,72.1848 M37.8,61.6848 L46.9,72.1848 " fill="none" style="stroke:#181818;stroke-width:0.3499999999999999;"/><text fill="#000000" font-family="sans-serif" font-size="9.8" lengthAdjust="spacing" textLength="39.2" x="16.1" y="395.7967">Librarian</text><ellipse cx="37.8" cy="404.2062" fill="#E2E2F0" rx="5.6" ry="5.6" style="stroke:#181818;stroke-width:0.3499999999999999;"/><path d="M37.8,409.8062 L37.8,428.7062 M28.7,415.4062 L46.9,415.4062 M37.8,428.7062 L28.7,439.2062 M37.8,428.7062 L46.9,439.2062 " fill="none" style="stroke:#181818;stroke-width:0.3499999999999999;"/><rect fill="#E2E2F0" height="22.8348" rx="1.75" ry="1.75" style="stroke:#181818;stroke-width:0.3499999999999999;" width="42" x="123.9" y="62.7348"/><text fill="#000000" font-family="sans-serif" font-size="9.8" lengthAdjust="spacing" textLength="32.2" x="128.8" y="78.21">System</text><rect fill="#E2E2F0" height="22.8348" rx="1.75" ry="1.75" style="stroke:#181818;stroke-width:0.3499999999999999;" width="42" x="123.9" y="385.2215"/><text fill="#000000" font-family="sans-serif" font-size="9.8" lengthAdjust="spacing" textLength="32.2" x="128.8" y="400.6967">System</text><rect fill="#E2E2F0" height="22.8348" rx="1.75" ry="1.75" style="stroke:#181818;stroke-width:0.3499999999999999;" width="84" x="289.1" y="62.7348"/><text fill="#000000" font-family="sans-serif" font-size="9.8" lengthAdjust="spacing" textLength="74.2" x="294" y="78.21">:GenreController</text><rect fill="#E2E2F0" height="22.8348" rx="1.75" ry="1.75" style="stroke:#181818;stroke-width:0.3499999999999999;" width="84" x="289.1" y="385.2215"/><text fill="#000000" font-family="sans-serif" font-size="9.8" lengthAdjust="spacing" textLength="74.2" x="294" y="400.6967">:GenreController</text><rect fill="#E2E2F0" height="22.8348" rx="1.75" ry="1.75" style="stroke:#181818;stroke-width:0.3499999999999999;" width="73.5" x="477.75" y="62.7348"/><text fill="#000000" font-family="sans-serif" font-size="9.8" lengthAdjust="spacing" textLength="63.7" x="482.65" y="78.21">:GenreService</text><rect fill="#E2E2F0" height="22.8348" rx="1.75" ry="1.75" style="stroke:#181818;stroke-width:0.3499999999999999;" width="73.5" x="477.75" y="385.2215"/><text fill="#000000" font-family="sans-serif" font-size="9.8" lengthAdjust="spacing" textLength="63.7" x="482.65" y="400.6967">:GenreService</text><rect fill="#E2E2F0" height="22.8348" rx="1.75" ry="1.75" style="stroke:#181818;stroke-width:0.3499999999999999;" width="88.2" x="653.8" y="62.7348"/><text fill="#000000" font-family="sans-serif" font-size="9.8" lengthAdjust="spacing" textLength="78.4" x="658.7" y="78.21">:GenreRepository</text><rect fill="#E2E2F0" height="22.8348" rx="1.75" ry="1.75" style="stroke:#181818;stroke-width:0.3499999999999999;" width="88.2" x="653.8" y="385.2215"/><text fill="#000000" font-family="sans-serif" font-size="9.8" lengthAdjust="spacing" textLength="78.4" x="658.7" y="400.6967">:GenreRepository</text><rect fill="#E2E2F0" height="22.8348" rx="1.75" ry="1.75" style="stroke:#181818;stroke-width:0.3499999999999999;" width="94.5" x="749" y="62.7348"/><text fill="#000000" font-family="sans-serif" font-size="9.8" lengthAdjust="spacing" textLength="84.7" x="753.9" y="78.21">:GenreViewMapper</text><rect fill="#E2E2F0" height="22.8348" rx="1.75" ry="1.75" style="stroke:#181818;stroke-width:0.3499999999999999;" width="94.5" x="749" y="385.2215"/><text fill="#000000" font-family="sans-serif" font-size="9.8" lengthAdjust="spacing" textLength="84.7" x="753.9" y="400.6967">:GenreViewMapper</text><rect fill="#FFFFFF" height="225.5408" style="stroke:#181818;stroke-width:0.6999999999999998;" width="7" x="141.4" y="147.7807"/><rect fill="#FFFFFF" height="157.526" style="stroke:#181818;stroke-width:0.6999999999999998;" width="7" x="327.6" y="169.6844"/><rect fill="#FFFFFF" height="69.9111" style="stroke:#181818;stroke-width:0.6999999999999998;" width="7" x="511" y="191.5881"/><rect fill="#FFFFFF" height="24.0037" style="stroke:#181818;stroke-width:0.6999999999999998;" width="7" x="694.4" y="215.5918"/><rect fill="#FFFFFF" height="21.9037" style="stroke:#181818;stroke-width:0.6999999999999998;" width="7" x="792.75" y="283.4029"/><path d="M3.5,96.7695 L3.5,127.5695 L72.8,127.5695 L72.8,103.7695 L65.8,96.7695 L3.5,96.7695 " fill="#FEFFDD" style="stroke:#181818;stroke-width:0.3499999999999999;"/><path d="M65.8,96.7695 L65.8,103.7695 L72.8,103.7695 L65.8,96.7695 " fill="#FEFFDD" style="stroke:#181818;stroke-width:0.3499999999999999;"/><text fill="#000000" font-family="sans-serif" font-size="9.1" lengthAdjust="spacing" textLength="44.1" x="7.7" y="110.0894">Librarian is</text><text fill="#000000" font-family="sans-serif" font-size="9.1" lengthAdjust="spacing" textLength="54.6" x="7.7" y="122.1931">authenticated</text><polygon fill="#181818" points="133,144.9807,140,147.7807,133,150.5807,135.8,147.7807" style="stroke:#181818;stroke-width:0.6999999999999998;"/><line style="stroke:#181818;stroke-width:0.6999999999999998;" x1="37.8" x2="137.2" y1="147.7807" y2="147.7807"/><text fill="#000000" font-family="sans-serif" font-size="9.1" font-weight="bold" lengthAdjust="spacing" textLength="4.9" x="42.7" y="144.0968">1</text><text fill="#000000" font-family="sans-serif" font-size="9.1" lengthAdjust="spacing" textLength="82.6" x="50.4" y="144.0968">get average lendings</text><polygon fill="#181818" points="319.2,166.8844,326.2,169.6844,319.2,172.4844,322,169.6844" style="stroke:#181818;stroke-width:0.6999999999999998;"/><line style="stroke:#181818;stroke-width:0.6999999999999998;" x1="148.4" x2="323.4" y1="169.6844" y2="169.6844"/><text fill="#000000" font-family="sans-serif" font-size="9.1" font-weight="bold" lengthAdjust="spacing" textLength="4.9" x="153.3" y="166.0005">2</text><text fill="#000000" font-family="sans-serif" font-size="9.1" lengthAdjust="spacing" textLength="158.2" x="161" y="166.0005">getAverageLendings(period, start, end);</text><polygon fill="#181818" points="502.6,188.7881,509.6,191.5881,502.6,194.3881,505.4,191.5881" style="stroke:#181818;stroke-width:0.6999999999999998;"/><line style="stroke:#181818;stroke-width:0.6999999999999998;" x1="334.6" x2="506.8" y1="191.5881" y2="191.5881"/><text fill="#000000" font-family="sans-serif" font-size="9.1" font-weight="bold" lengthAdjust="spacing" textLength="4.9" x="339.5" y="187.9042">3</text><text fill="#000000" font-family="sans-serif" font-size="9.1" lengthAdjust="spacing" textLength="155.4" x="347.2" y="187.9042">getAverageLendings(period, start, end)</text><polygon fill="#181818" points="686,212.7918,693,215.5918,686,218.3918,688.8,215.5918" style="stroke:#181818;stroke-width:0.6999999999999998;"/><line style="stroke:#181818;stroke-width:0.6999999999999998;" x1="518" x2="690.2" y1="215.5918" y2="215.5918"/><text fill="#000000" font-family="sans-serif" font-size="9.1" font-weight="bold" lengthAdjust="spacing" textLength="4.9" x="522.9" y="211.9079">4</text><text fill="#000000" font-family="sans-serif" font-size="9.1" lengthAdjust="spacing" textLength="155.4" x="530.6" y="211.9079">getAverageLendings(period, start, end)</text><path d="M704.9,200.6881 L704.9,219.5881 L791,219.5881 L791,207.6881 L784,200.6881 L704.9,200.6881 " fill="#FEFFDD" style="stroke:#181818;stroke-width:0.3499999999999999;"/><path d="M784,200.6881 L784,207.6881 L791,207.6881 L784,200.6881 " fill="#FEFFDD" style="stroke:#181818;stroke-width:0.3499999999999999;"/><text fill="#000000" font-family="sans-serif" font-size="9.1" lengthAdjust="spacing" textLength="71.4" x="709.1" y="214.0079">(Details ommited)</text><polygon fill="#181818" points="525.7,236.7955,518.7,239.5955,525.7,242.3955,522.9,239.5955" style="stroke:#181818;stroke-width:0.6999999999999998;"/><line style="stroke:#181818;stroke-width:0.6999999999999998;stroke-dasharray:2.0,2.0;" x1="521.5" x2="697.2" y1="239.5955" y2="239.5955"/><text fill="#000000" font-family="sans-serif" font-size="9.1" font-weight="bold" lengthAdjust="spacing" textLength="4.9" x="529.9" y="235.9116">5</text><text fill="#000000" font-family="sans-serif" font-size="9.1" lengthAdjust="spacing" textLength="35" x="537.6" y="235.9116">(pairList)</text><polygon fill="#181818" points="342.3,258.6992,335.3,261.4992,342.3,264.2992,339.5,261.4992" style="stroke:#181818;stroke-width:0.6999999999999998;"/><line style="stroke:#181818;stroke-width:0.6999999999999998;stroke-dasharray:2.0,2.0;" x1="338.1" x2="513.8" y1="261.4992" y2="261.4992"/><text fill="#000000" font-family="sans-serif" font-size="9.1" font-weight="bold" lengthAdjust="spacing" textLength="4.9" x="346.5" y="257.8153">6</text><text fill="#000000" font-family="sans-serif" font-size="9.1" lengthAdjust="spacing" textLength="35" x="354.2" y="257.8153">(pairList)</text><polygon fill="#181818" points="784.35,280.6029,791.35,283.4029,784.35,286.2029,787.15,283.4029" style="stroke:#181818;stroke-width:0.6999999999999998;"/><line style="stroke:#181818;stroke-width:0.6999999999999998;" x1="334.6" x2="788.55" y1="283.4029" y2="283.4029"/><text fill="#000000" font-family="sans-serif" font-size="9.1" font-weight="bold" lengthAdjust="spacing" textLength="4.9" x="339.5" y="279.719">7</text><text fill="#000000" font-family="sans-serif" font-size="9.1" lengthAdjust="spacing" textLength="137.9" x="347.2" y="279.719">toGenreAvgLendingsView(pairList)</text><polygon fill="#181818" points="342.3,302.5066,335.3,305.3066,342.3,308.1066,339.5,305.3066" style="stroke:#181818;stroke-width:0.6999999999999998;"/><line style="stroke:#181818;stroke-width:0.6999999999999998;stroke-dasharray:2.0,2.0;" x1="338.1" x2="795.55" y1="305.3066" y2="305.3066"/><text fill="#000000" font-family="sans-serif" font-size="9.1" font-weight="bold" lengthAdjust="spacing" textLength="4.9" x="346.5" y="301.6228">8</text><text fill="#000000" font-family="sans-serif" font-size="9.1" lengthAdjust="spacing" textLength="37.1" x="354.2" y="301.6228">(listView)</text><polygon fill="#181818" points="156.1,324.4104,149.1,327.2104,156.1,330.0104,153.3,327.2104" style="stroke:#181818;stroke-width:0.6999999999999998;"/><line style="stroke:#181818;stroke-width:0.6999999999999998;stroke-dasharray:2.0,2.0;" x1="151.9" x2="330.4" y1="327.2104" y2="327.2104"/><text fill="#000000" font-family="sans-serif" font-size="9.1" font-weight="bold" lengthAdjust="spacing" textLength="4.9" x="160.3" y="323.5265">9</text><text fill="#000000" font-family="sans-serif" font-size="9.1" lengthAdjust="spacing" textLength="37.1" x="168" y="323.5265">(listView)</text><polygon fill="#181818" points="45.5,370.5215,38.5,373.3215,45.5,376.1215,42.7,373.3215" style="stroke:#181818;stroke-width:0.6999999999999998;"/><line style="stroke:#181818;stroke-width:0.6999999999999998;stroke-dasharray:2.0,2.0;" x1="41.3" x2="144.2" y1="373.3215" y2="373.3215"/><text fill="#000000" font-family="sans-serif" font-size="9.1" font-weight="bold" lengthAdjust="spacing" textLength="9.8" x="49.7" y="357.5339">10</text><text fill="#000000" font-family="sans-serif" font-size="9.1" lengthAdjust="spacing" textLength="63" x="62.3" y="345.4302">(array of genres</text><text fill="#000000" font-family="sans-serif" font-size="9.1" lengthAdjust="spacing" textLength="66.5" x="62.3" y="357.5339">and their lending</text><text fill="#000000" font-family="sans-serif" font-size="9.1" lengthAdjust="spacing" textLength="38.5" x="62.3" y="369.6376">averages)</text><!--SRC=[ZL71QXj13BthAuHxg0rnJ26dBHJI179n8JJGNdgPhDMrO7Pcgv5T_FVLpEnkjk13zgILdjwyz_Jng3gaPhSRl0jwwlrj6_jTeZyd2Yrj3-mwSJsuaqRNAf-T4iPG_iEfVoK1K5PF-FFvmztNsqzt-4IAzsSIrn7kAHmuT0cVIMmGX02C9WgkzlmgJjY55Rg4ynyCJfHR7amDhbukIQalY5h-FsuAvKCCAj5xaW9yKF7NO2yaPswfajNw6kmx3J6nIRmKvDoxXlt1zFUR6uRnvLe2X9X3iWZUR66pg3dz2XRWaO8HMg07WBVXzijejS7EadHZadvC4g1ECouxBQWnxYdjjQdWUBZ1fARv1gsz-GoGuOM-cd_l9epul3gdyUxbaeLmTrH0-zQFf8vzmjZtRCutO2ZC89YvSRiKkHuSovwJBeJCtXV3oLqzGeCQ2-7zkPlqvMij5YfmIUQjdq4JsU8KYzcKlqtdgnd0YRWBnjyMZ3sRBsp6xCOiq-siLGDB6_W7]--></g></svg>