<?xml version="1.0" encoding="us-ascii" standalone="no"?><svg xmlns="http://www.w3.org/2000/svg" xmlns:xlink="http://www.w3.org/1999/xlink" contentStyleType="text/css" height="636.3px" preserveAspectRatio="none" style="width:655px;height:636px;background:#FFFFFF;" version="1.1" viewBox="0 0 655 636" width="655.2px" zoomAndPan="magnify"><defs/><g><!--class GenreController--><g id="elem_GenreController"><rect codeLine="5" fill="#F1F1F1" height="46.6348" id="GenreController" rx="1.75" ry="1.75" style="stroke:#181818;stroke-width:0.3499999999999999;" width="459.9" x="15.05" y="106.4"/><ellipse cx="206.325" cy="117.6" fill="#ADD1B2" rx="7.7" ry="7.7" style="stroke:#181818;stroke-width:0.6999999999999998;"/><path d="M208.2609,114.7125 Q208.3703,114.5594 208.5016,114.4828 Q208.6328,114.4062 208.7859,114.4062 Q209.0484,114.4062 209.2125,114.5922 Q209.3766,114.7672 209.3766,115.1937 L209.3766,116.2109 Q209.3766,116.6375 209.2125,116.8234 Q209.0484,117.0094 208.7859,117.0094 Q208.5453,117.0094 208.4031,116.8672 Q208.2609,116.7359 208.1844,116.375 Q208.1516,116.1234 208.0203,115.9922 Q207.7906,115.7297 207.3641,115.5766 Q206.9375,115.4234 206.5,115.4234 Q205.9641,115.4234 205.5156,115.6531 Q205.0781,115.8828 204.7281,116.4078 Q204.3891,116.9328 204.3891,117.6547 L204.3891,118.4203 Q204.3891,119.2844 205.0125,119.8641 Q205.6359,120.4328 206.7516,120.4328 Q207.4078,120.4328 207.8672,120.2578 Q208.1406,120.1484 208.4359,119.8422 Q208.6219,119.6562 208.7203,119.6016 Q208.8297,119.5469 208.9719,119.5469 Q209.2016,119.5469 209.3766,119.7328 Q209.5625,119.9078 209.5625,120.1484 Q209.5625,120.3891 209.3219,120.6734 Q208.9719,121.0781 208.4141,121.3078 Q207.6594,121.625 206.7516,121.625 Q205.6906,121.625 204.8484,121.1875 Q204.1594,120.8375 203.6781,120.0937 Q203.1969,119.3391 203.1969,118.4422 L203.1969,117.6328 Q203.1969,116.7031 203.6234,115.9047 Q204.0609,115.0953 204.8266,114.6687 Q205.5922,114.2312 206.4562,114.2312 Q206.9703,114.2312 207.4187,114.3516 Q207.8781,114.4609 208.2609,114.7125 Z " fill="#000000"/><text fill="#000000" font-family="sans-serif" font-size="9.8" lengthAdjust="spacing" textLength="71.4" x="220.675" y="121.6578">GenreController</text><line style="stroke:#181818;stroke-width:0.3499999999999999;" x1="15.75" x2="474.25" y1="128.8" y2="128.8"/><line style="stroke:#181818;stroke-width:0.3499999999999999;" x1="15.75" x2="474.25" y1="134.4" y2="134.4"/><text fill="#000000" font-family="sans-serif" font-size="9.8" lengthAdjust="spacing" textLength="451.5" x="19.25" y="147.7752">+getAverageLendings(String period, String start, String end) : ListResponse&lt;GenreAvgLendingsView&gt;</text></g><!--class GenreRepoCustom--><g id="elem_GenreRepoCustom"><rect codeLine="9" fill="#F1F1F1" height="46.6348" id="GenreRepoCustom" rx="1.75" ry="1.75" style="stroke:#181818;stroke-width:0.3499999999999999;" width="357" x="66.5" y="496.3"/><ellipse cx="199.325" cy="507.5" fill="#B4A7E5" rx="7.7" ry="7.7" style="stroke:#181818;stroke-width:0.6999999999999998;"/><path d="M199.9922,505.1484 L199.9922,509.8078 L201.1953,509.8078 Q201.6219,509.8078 201.8078,509.9719 Q201.9937,510.1359 201.9937,510.4094 Q201.9937,510.6719 201.8078,510.8359 Q201.6219,511 201.1953,511 L197.5969,511 Q197.1703,511 196.9844,510.8359 Q196.7984,510.6719 196.7984,510.3984 Q196.7984,510.1359 196.9844,509.9719 Q197.1703,509.8078 197.5969,509.8078 L198.8,509.8078 L198.8,505.1484 L197.5969,505.1484 Q197.1703,505.1484 196.9844,504.9844 Q196.7984,504.8203 196.7984,504.5469 Q196.7984,504.2844 196.9844,504.1203 Q197.1703,503.9562 197.5969,503.9562 L201.1953,503.9562 Q201.6219,503.9562 201.8078,504.1203 Q201.9937,504.2844 201.9937,504.5469 Q201.9937,504.8203 201.8078,504.9844 Q201.6219,505.1484 201.1953,505.1484 L199.9922,505.1484 Z " fill="#000000"/><text fill="#000000" font-family="sans-serif" font-size="9.8" font-style="italic" lengthAdjust="spacing" textLength="85.4" x="213.675" y="511.5578">GenreRepoCustom</text><line style="stroke:#181818;stroke-width:0.3499999999999999;" x1="67.2" x2="422.8" y1="518.7" y2="518.7"/><line style="stroke:#181818;stroke-width:0.3499999999999999;" x1="67.2" x2="422.8" y1="524.3" y2="524.3"/><text fill="#000000" font-family="sans-serif" font-size="9.8" lengthAdjust="spacing" textLength="348.6" x="70.7" y="537.6752">+getAverageLendings(String period, LocalDate startDate, LocalDate endDate);</text></g><!--class GenreRepoCustomImpl--><g id="elem_GenreRepoCustomImpl"><rect codeLine="13" fill="#F1F1F1" height="46.6348" id="GenreRepoCustomImpl" rx="1.75" ry="1.75" style="stroke:#181818;stroke-width:0.3499999999999999;" width="357" x="66.5" y="585.2"/><ellipse cx="190.575" cy="596.4" fill="#ADD1B2" rx="7.7" ry="7.7" style="stroke:#181818;stroke-width:0.6999999999999998;"/><path d="M192.5109,593.5125 Q192.6203,593.3594 192.7516,593.2828 Q192.8828,593.2062 193.0359,593.2062 Q193.2984,593.2062 193.4625,593.3922 Q193.6266,593.5672 193.6266,593.9937 L193.6266,595.0109 Q193.6266,595.4375 193.4625,595.6234 Q193.2984,595.8094 193.0359,595.8094 Q192.7953,595.8094 192.6531,595.6672 Q192.5109,595.5359 192.4344,595.175 Q192.4016,594.9234 192.2703,594.7922 Q192.0406,594.5297 191.6141,594.3766 Q191.1875,594.2234 190.75,594.2234 Q190.2141,594.2234 189.7656,594.4531 Q189.3281,594.6828 188.9781,595.2078 Q188.6391,595.7328 188.6391,596.4547 L188.6391,597.2203 Q188.6391,598.0844 189.2625,598.6641 Q189.8859,599.2328 191.0016,599.2328 Q191.6578,599.2328 192.1172,599.0578 Q192.3906,598.9484 192.6859,598.6422 Q192.8719,598.4562 192.9703,598.4016 Q193.0797,598.3469 193.2219,598.3469 Q193.4516,598.3469 193.6266,598.5328 Q193.8125,598.7078 193.8125,598.9484 Q193.8125,599.1891 193.5719,599.4734 Q193.2219,599.8781 192.6641,600.1078 Q191.9094,600.425 191.0016,600.425 Q189.9406,600.425 189.0984,599.9875 Q188.4094,599.6375 187.9281,598.8937 Q187.4469,598.1391 187.4469,597.2422 L187.4469,596.4328 Q187.4469,595.5031 187.8734,594.7047 Q188.3109,593.8953 189.0766,593.4687 Q189.8422,593.0312 190.7062,593.0312 Q191.2203,593.0312 191.6687,593.1516 Q192.1281,593.2609 192.5109,593.5125 Z " fill="#000000"/><text fill="#000000" font-family="sans-serif" font-size="9.8" lengthAdjust="spacing" textLength="102.9" x="204.925" y="600.4578">GenreRepoCustomImpl</text><line style="stroke:#181818;stroke-width:0.3499999999999999;" x1="67.2" x2="422.8" y1="607.6" y2="607.6"/><line style="stroke:#181818;stroke-width:0.3499999999999999;" x1="67.2" x2="422.8" y1="613.2" y2="613.2"/><text fill="#000000" font-family="sans-serif" font-size="9.8" lengthAdjust="spacing" textLength="348.6" x="70.7" y="626.5752">+getAverageLendings(String period, LocalDate startDate, LocalDate endDate);</text></g><!--class GenreRepository--><g id="elem_GenreRepository"><rect codeLine="17" fill="#F1F1F1" height="46.6348" id="GenreRepository" rx="1.75" ry="1.75" style="stroke:#181818;stroke-width:0.3499999999999999;" width="480.2" x="4.9" y="407.4"/><ellipse cx="204.225" cy="418.6" fill="#B4A7E5" rx="7.7" ry="7.7" style="stroke:#181818;stroke-width:0.6999999999999998;"/><path d="M204.8922,416.2484 L204.8922,420.9078 L206.0953,420.9078 Q206.5219,420.9078 206.7078,421.0719 Q206.8937,421.2359 206.8937,421.5094 Q206.8937,421.7719 206.7078,421.9359 Q206.5219,422.1 206.0953,422.1 L202.4969,422.1 Q202.0703,422.1 201.8844,421.9359 Q201.6984,421.7719 201.6984,421.4984 Q201.6984,421.2359 201.8844,421.0719 Q202.0703,420.9078 202.4969,420.9078 L203.7,420.9078 L203.7,416.2484 L202.4969,416.2484 Q202.0703,416.2484 201.8844,416.0844 Q201.6984,415.9203 201.6984,415.6469 Q201.6984,415.3844 201.8844,415.2203 Q202.0703,415.0562 202.4969,415.0562 L206.0953,415.0562 Q206.5219,415.0562 206.7078,415.2203 Q206.8937,415.3844 206.8937,415.6469 Q206.8937,415.9203 206.7078,416.0844 Q206.5219,416.2484 206.0953,416.2484 L204.8922,416.2484 Z " fill="#000000"/><text fill="#000000" font-family="sans-serif" font-size="9.8" font-style="italic" lengthAdjust="spacing" textLength="75.6" x="218.575" y="422.6578">GenreRepository</text><line style="stroke:#181818;stroke-width:0.3499999999999999;" x1="5.6" x2="484.4" y1="429.8" y2="429.8"/><line style="stroke:#181818;stroke-width:0.3499999999999999;" x1="5.6" x2="484.4" y1="435.4" y2="435.4"/><text fill="#000000" font-family="sans-serif" font-size="9.8" lengthAdjust="spacing" textLength="471.8" x="9.1" y="448.7752">+getAverageLendings(String period, LocalDate startDate, LocalDate endDate): List&lt;Pair&lt;Genre, Double&gt;&gt;</text></g><!--class GenreService--><g id="elem_GenreService"><rect codeLine="23" fill="#F1F1F1" height="46.6348" id="GenreService" rx="1.75" ry="1.75" style="stroke:#181818;stroke-width:0.3499999999999999;" width="477.4" x="6.3" y="195.3"/><ellipse cx="211.925" cy="206.5" fill="#B4A7E5" rx="7.7" ry="7.7" style="stroke:#181818;stroke-width:0.6999999999999998;"/><path d="M212.5922,204.1484 L212.5922,208.8078 L213.7953,208.8078 Q214.2219,208.8078 214.4078,208.9719 Q214.5937,209.1359 214.5937,209.4094 Q214.5937,209.6719 214.4078,209.8359 Q214.2219,210 213.7953,210 L210.1969,210 Q209.7703,210 209.5844,209.8359 Q209.3984,209.6719 209.3984,209.3984 Q209.3984,209.1359 209.5844,208.9719 Q209.7703,208.8078 210.1969,208.8078 L211.4,208.8078 L211.4,204.1484 L210.1969,204.1484 Q209.7703,204.1484 209.5844,203.9844 Q209.3984,203.8203 209.3984,203.5469 Q209.3984,203.2844 209.5844,203.1203 Q209.7703,202.9562 210.1969,202.9562 L213.7953,202.9562 Q214.2219,202.9562 214.4078,203.1203 Q214.5937,203.2844 214.5937,203.5469 Q214.5937,203.8203 214.4078,203.9844 Q214.2219,204.1484 213.7953,204.1484 L212.5922,204.1484 Z " fill="#000000"/><text fill="#000000" font-family="sans-serif" font-size="9.8" font-style="italic" lengthAdjust="spacing" textLength="60.2" x="226.275" y="210.5578">GenreService</text><line style="stroke:#181818;stroke-width:0.3499999999999999;" x1="7" x2="483" y1="217.7" y2="217.7"/><line style="stroke:#181818;stroke-width:0.3499999999999999;" x1="7" x2="483" y1="223.3" y2="223.3"/><text fill="#000000" font-family="sans-serif" font-size="9.8" lengthAdjust="spacing" textLength="469" x="10.5" y="236.6752">+getAverageLendings(String period, LocalDate startDate, LocalDate endDate) : List&lt;Pair&lt;Genre, String&gt;&gt;</text></g><!--class GenreServiceImpl--><g id="elem_GenreServiceImpl"><rect codeLine="27" fill="#F1F1F1" height="46.6348" id="GenreServiceImpl" rx="1.75" ry="1.75" style="stroke:#181818;stroke-width:0.3499999999999999;" width="474.6" x="7.7" y="301.35"/><ellipse cx="202.825" cy="312.55" fill="#ADD1B2" rx="7.7" ry="7.7" style="stroke:#181818;stroke-width:0.6999999999999998;"/><path d="M204.7609,309.6625 Q204.8703,309.5094 205.0016,309.4328 Q205.1328,309.3562 205.2859,309.3562 Q205.5484,309.3562 205.7125,309.5422 Q205.8766,309.7172 205.8766,310.1437 L205.8766,311.1609 Q205.8766,311.5875 205.7125,311.7734 Q205.5484,311.9594 205.2859,311.9594 Q205.0453,311.9594 204.9031,311.8172 Q204.7609,311.6859 204.6844,311.325 Q204.6516,311.0734 204.5203,310.9422 Q204.2906,310.6797 203.8641,310.5266 Q203.4375,310.3734 203,310.3734 Q202.4641,310.3734 202.0156,310.6031 Q201.5781,310.8328 201.2281,311.3578 Q200.8891,311.8828 200.8891,312.6047 L200.8891,313.3703 Q200.8891,314.2344 201.5125,314.8141 Q202.1359,315.3828 203.2516,315.3828 Q203.9078,315.3828 204.3672,315.2078 Q204.6406,315.0984 204.9359,314.7922 Q205.1219,314.6062 205.2203,314.5516 Q205.3297,314.4969 205.4719,314.4969 Q205.7016,314.4969 205.8766,314.6828 Q206.0625,314.8578 206.0625,315.0984 Q206.0625,315.3391 205.8219,315.6234 Q205.4719,316.0281 204.9141,316.2578 Q204.1594,316.575 203.2516,316.575 Q202.1906,316.575 201.3484,316.1375 Q200.6594,315.7875 200.1781,315.0437 Q199.6969,314.2891 199.6969,313.3922 L199.6969,312.5828 Q199.6969,311.6531 200.1234,310.8547 Q200.5609,310.0453 201.3266,309.6187 Q202.0922,309.1812 202.9562,309.1812 Q203.4703,309.1812 203.9187,309.3016 Q204.3781,309.4109 204.7609,309.6625 Z " fill="#000000"/><text fill="#000000" font-family="sans-serif" font-size="9.8" lengthAdjust="spacing" textLength="78.4" x="217.175" y="316.6078">GenreServiceImpl</text><line style="stroke:#181818;stroke-width:0.3499999999999999;" x1="8.4" x2="481.6" y1="323.75" y2="323.75"/><line style="stroke:#181818;stroke-width:0.3499999999999999;" x1="8.4" x2="481.6" y1="329.35" y2="329.35"/><text fill="#000000" font-family="sans-serif" font-size="9.8" lengthAdjust="spacing" textLength="466.2" x="11.9" y="342.7252">+getAverageLendings(String period, LocalDate startDate, LocalDate endDate) :List&lt;Pair&lt;Genre, String&gt;&gt;</text></g><!--class Genre--><g id="elem_Genre"><rect codeLine="32" fill="#F1F1F1" height="81.5117" id="Genre" rx="1.75" ry="1.75" style="stroke:#181818;stroke-width:0.3499999999999999;" width="143.5" x="507.15" y="284.2"/><ellipse cx="561.925" cy="299.8037" fill="#ADD1B2" rx="7.7" ry="7.7" style="stroke:#181818;stroke-width:0.6999999999999998;"/><path d="M563.8609,296.9162 Q563.9703,296.7631 564.1016,296.6865 Q564.2328,296.61 564.3859,296.61 Q564.6484,296.61 564.8125,296.7959 Q564.9766,296.9709 564.9766,297.3975 L564.9766,298.4146 Q564.9766,298.8412 564.8125,299.0271 Q564.6484,299.2131 564.3859,299.2131 Q564.1453,299.2131 564.0031,299.0709 Q563.8609,298.9396 563.7844,298.5787 Q563.7516,298.3271 563.6203,298.1959 Q563.3906,297.9334 562.9641,297.7803 Q562.5375,297.6271 562.1,297.6271 Q561.5641,297.6271 561.1156,297.8568 Q560.6781,298.0865 560.3281,298.6115 Q559.9891,299.1365 559.9891,299.8584 L559.9891,300.624 Q559.9891,301.4881 560.6125,302.0678 Q561.2359,302.6365 562.3516,302.6365 Q563.0078,302.6365 563.4672,302.4615 Q563.7406,302.3521 564.0359,302.0459 Q564.2219,301.86 564.3203,301.8053 Q564.4297,301.7506 564.5719,301.7506 Q564.8016,301.7506 564.9766,301.9365 Q565.1625,302.1115 565.1625,302.3521 Q565.1625,302.5928 564.9219,302.8771 Q564.5719,303.2818 564.0141,303.5115 Q563.2594,303.8287 562.3516,303.8287 Q561.2906,303.8287 560.4484,303.3912 Q559.7594,303.0412 559.2781,302.2975 Q558.7969,301.5428 558.7969,300.6459 L558.7969,299.8365 Q558.7969,298.9068 559.2234,298.1084 Q559.6609,297.299 560.4266,296.8725 Q561.1922,296.435 562.0562,296.435 Q562.5703,296.435 563.0187,296.5553 Q563.4781,296.6646 563.8609,296.9162 Z " fill="#000000"/><text fill="#000000" font-family="sans-serif" font-size="8.4" font-style="italic" lengthAdjust="spacing" textLength="30.1" x="575.225" y="296.7645">&#171;entity&#187;</text><text fill="#000000" font-family="sans-serif" font-size="9.8" lengthAdjust="spacing" textLength="28" x="576.275" y="309.4479">Genre</text><line style="stroke:#181818;stroke-width:0.3499999999999999;" x1="507.85" x2="649.95" y1="315.4074" y2="315.4074"/><text fill="#000000" font-family="sans-serif" font-size="9.8" lengthAdjust="spacing" textLength="41.3" x="511.35" y="328.7826">-pk : long</text><text fill="#000000" font-family="sans-serif" font-size="9.8" lengthAdjust="spacing" textLength="63.7" x="511.35" y="341.8174">-genre : String</text><line style="stroke:#181818;stroke-width:0.3499999999999999;" x1="507.85" x2="649.95" y1="347.077" y2="347.077"/><text fill="#000000" font-family="sans-serif" font-size="9.8" lengthAdjust="spacing" textLength="135.1" x="511.35" y="360.4521">+setGenre(String genre) : void</text></g><!--class GenreViewMapper--><g id="elem_GenreViewMapper"><rect codeLine="38" fill="#F1F1F1" height="59.6695" id="GenreViewMapper" rx="1.75" ry="1.75" style="stroke:#181818;stroke-width:0.3499999999999999;" width="425.6" x="32.2" y="4.9"/><ellipse cx="201.075" cy="16.1" fill="#ADD1B2" rx="7.7" ry="7.7" style="stroke:#181818;stroke-width:0.6999999999999998;"/><path d="M203.0109,13.2125 Q203.1203,13.0594 203.2516,12.9828 Q203.3828,12.9062 203.5359,12.9062 Q203.7984,12.9062 203.9625,13.0922 Q204.1266,13.2672 204.1266,13.6937 L204.1266,14.7109 Q204.1266,15.1375 203.9625,15.3234 Q203.7984,15.5094 203.5359,15.5094 Q203.2953,15.5094 203.1531,15.3672 Q203.0109,15.2359 202.9344,14.875 Q202.9016,14.6234 202.7703,14.4922 Q202.5406,14.2297 202.1141,14.0766 Q201.6875,13.9234 201.25,13.9234 Q200.7141,13.9234 200.2656,14.1531 Q199.8281,14.3828 199.4781,14.9078 Q199.1391,15.4328 199.1391,16.1547 L199.1391,16.9203 Q199.1391,17.7844 199.7625,18.3641 Q200.3859,18.9328 201.5016,18.9328 Q202.1578,18.9328 202.6172,18.7578 Q202.8906,18.6484 203.1859,18.3422 Q203.3719,18.1562 203.4703,18.1016 Q203.5797,18.0469 203.7219,18.0469 Q203.9516,18.0469 204.1266,18.2328 Q204.3125,18.4078 204.3125,18.6484 Q204.3125,18.8891 204.0719,19.1734 Q203.7219,19.5781 203.1641,19.8078 Q202.4094,20.125 201.5016,20.125 Q200.4406,20.125 199.5984,19.6875 Q198.9094,19.3375 198.4281,18.5937 Q197.9469,17.8391 197.9469,16.9422 L197.9469,16.1328 Q197.9469,15.2031 198.3734,14.4047 Q198.8109,13.5953 199.5766,13.1687 Q200.3422,12.7312 201.2062,12.7312 Q201.7203,12.7312 202.1687,12.8516 Q202.6281,12.9609 203.0109,13.2125 Z " fill="#000000"/><text fill="#000000" font-family="sans-serif" font-size="9.8" lengthAdjust="spacing" textLength="81.9" x="215.425" y="20.1578">GenreViewMapper</text><line style="stroke:#181818;stroke-width:0.3499999999999999;" x1="32.9" x2="457.1" y1="27.3" y2="27.3"/><line style="stroke:#181818;stroke-width:0.3499999999999999;" x1="32.9" x2="457.1" y1="32.9" y2="32.9"/><text fill="#000000" font-family="sans-serif" font-size="9.8" lengthAdjust="spacing" textLength="417.2" x="36.4" y="46.2752">+toGenreAvgLendingsView(List&lt;Pair&lt;Genre, String&gt;&gt; pairList) : List&lt;GenreAvgLendingsView&gt;</text><text fill="#000000" font-family="sans-serif" font-size="9.8" lengthAdjust="spacing" textLength="348.6" x="36.4" y="59.31">+toGenreAvgLendingsView(Pair&lt;Genre, String&gt; pair) : GenreAvgLendingsView</text></g><!--class GenreAvgLendingsView--><g id="elem_GenreAvgLendingsView"><rect codeLine="43" fill="#F1F1F1" height="59.6695" id="GenreAvgLendingsView" rx="1.75" ry="1.75" style="stroke:#181818;stroke-width:0.3499999999999999;" width="128.1" x="482.65" y="4.9"/><ellipse cx="493.15" cy="16.1" fill="#ADD1B2" rx="7.7" ry="7.7" style="stroke:#181818;stroke-width:0.6999999999999998;"/><path d="M495.0859,13.2125 Q495.1953,13.0594 495.3266,12.9828 Q495.4578,12.9062 495.6109,12.9062 Q495.8734,12.9062 496.0375,13.0922 Q496.2016,13.2672 496.2016,13.6937 L496.2016,14.7109 Q496.2016,15.1375 496.0375,15.3234 Q495.8734,15.5094 495.6109,15.5094 Q495.3703,15.5094 495.2281,15.3672 Q495.0859,15.2359 495.0094,14.875 Q494.9766,14.6234 494.8453,14.4922 Q494.6156,14.2297 494.1891,14.0766 Q493.7625,13.9234 493.325,13.9234 Q492.7891,13.9234 492.3406,14.1531 Q491.9031,14.3828 491.5531,14.9078 Q491.2141,15.4328 491.2141,16.1547 L491.2141,16.9203 Q491.2141,17.7844 491.8375,18.3641 Q492.4609,18.9328 493.5766,18.9328 Q494.2328,18.9328 494.6922,18.7578 Q494.9656,18.6484 495.2609,18.3422 Q495.4469,18.1562 495.5453,18.1016 Q495.6547,18.0469 495.7969,18.0469 Q496.0266,18.0469 496.2016,18.2328 Q496.3875,18.4078 496.3875,18.6484 Q496.3875,18.8891 496.1469,19.1734 Q495.7969,19.5781 495.2391,19.8078 Q494.4844,20.125 493.5766,20.125 Q492.5156,20.125 491.6734,19.6875 Q490.9844,19.3375 490.5031,18.5937 Q490.0219,17.8391 490.0219,16.9422 L490.0219,16.1328 Q490.0219,15.2031 490.4484,14.4047 Q490.8859,13.5953 491.6516,13.1687 Q492.4172,12.7312 493.2812,12.7312 Q493.7953,12.7312 494.2437,12.8516 Q494.7031,12.9609 495.0859,13.2125 Z " fill="#000000"/><text fill="#000000" font-family="sans-serif" font-size="9.8" lengthAdjust="spacing" textLength="105.7" x="502.95" y="20.1578">GenreAvgLendingsView</text><line style="stroke:#181818;stroke-width:0.3499999999999999;" x1="483.35" x2="610.05" y1="27.3" y2="27.3"/><text fill="#000000" font-family="sans-serif" font-size="9.8" lengthAdjust="spacing" textLength="60.9" x="486.85" y="40.6752">-genre: String</text><text fill="#000000" font-family="sans-serif" font-size="9.8" lengthAdjust="spacing" textLength="94.5" x="486.85" y="53.71">-avgLendings : String</text><line style="stroke:#181818;stroke-width:0.3499999999999999;" x1="483.35" x2="610.05" y1="58.9695" y2="58.9695"/></g><!--reverse link GenreRepoCustom to GenreRepoCustomImpl--><g id="link_GenreRepoCustom_GenreRepoCustomImpl"><path d="M245,555.814 C245,568.673 245,572.103 245,584.997 " fill="none" id="GenreRepoCustom-backto-GenreRepoCustomImpl" style="stroke:#181818;stroke-width:0.6999999999999998;stroke-dasharray:7.0,7.0;"/><polygon fill="none" points="245,543.214,240.8,555.814,249.2,555.814,245,543.214" style="stroke:#181818;stroke-width:0.6999999999999998;"/></g><!--reverse link GenreService to GenreServiceImpl--><g id="link_GenreService_GenreServiceImpl"><path d="M245,255.017 C245,272.461 245,283.752 245,301.189 " fill="none" id="GenreService-backto-GenreServiceImpl" style="stroke:#181818;stroke-width:0.6999999999999998;stroke-dasharray:7.0,7.0;"/><polygon fill="none" points="245,242.417,240.8,255.017,249.2,255.017,245,242.417" style="stroke:#181818;stroke-width:0.6999999999999998;"/></g><!--link GenreServiceImpl to Genre--><g id="link_GenreServiceImpl_Genre"><path codeLine="48" d="M482.384,324.8 C490.616,324.8 494.648,324.8 502.88,324.8 " fill="none" id="GenreServiceImpl-to-Genre" style="stroke:#181818;stroke-width:0.6999999999999998;stroke-dasharray:7.0,7.0;"/><polygon fill="#181818" points="507.08,324.8,500.78,322,503.58,324.8,500.78,327.6,507.08,324.8" style="stroke:#181818;stroke-width:0.6999999999999998;"/></g><!--link GenreController to GenreService--><g id="link_GenreController_GenreService"><path codeLine="50" d="M245,153.314 C245,166.173 245,178.003 245,190.897 " fill="none" id="GenreController-to-GenreService" style="stroke:#181818;stroke-width:0.6999999999999998;stroke-dasharray:7.0,7.0;"/><polygon fill="#181818" points="245,195.097,247.8,188.797,245,191.597,242.2,188.797,245,195.097" style="stroke:#181818;stroke-width:0.6999999999999998;"/></g><!--link GenreServiceImpl to GenreRepository--><g id="link_GenreServiceImpl_GenreRepository"><path codeLine="51" d="M245,348.467 C245,365.911 245,385.602 245,403.039 " fill="none" id="GenreServiceImpl-to-GenreRepository" style="stroke:#181818;stroke-width:0.6999999999999998;stroke-dasharray:7.0,7.0;"/><polygon fill="#181818" points="245,407.239,247.8,400.939,245,403.739,242.2,400.939,245,407.239" style="stroke:#181818;stroke-width:0.6999999999999998;"/></g><!--reverse link GenreViewMapper to GenreController--><g id="link_GenreViewMapper_GenreController"><path codeLine="53" d="M245,68.712 C245,82.159 245,93.688 245,106.26 " fill="none" id="GenreViewMapper-backto-GenreController" style="stroke:#181818;stroke-width:0.6999999999999998;stroke-dasharray:7.0,7.0;"/><polygon fill="#181818" points="245,64.512,242.2,70.812,245,68.012,247.8,70.812,245,64.512" style="stroke:#181818;stroke-width:0.6999999999999998;"/></g><!--link GenreViewMapper to GenreAvgLendingsView--><g id="link_GenreViewMapper_GenreAvgLendingsView"><path codeLine="54" d="M458.017,34.65 C466.214,34.65 470.211,34.65 478.415,34.65 " fill="none" id="GenreViewMapper-to-GenreAvgLendingsView" style="stroke:#181818;stroke-width:0.6999999999999998;stroke-dasharray:7.0,7.0;"/><polygon fill="#181818" points="482.615,34.65,476.315,31.85,479.115,34.65,476.315,37.45,482.615,34.65" style="stroke:#181818;stroke-width:0.6999999999999998;"/></g><!--reverse link GenreRepository to GenreRepoCustom--><g id="link_GenreRepository_GenreRepoCustom"><path codeLine="56" d="M245,458.514 C245,471.373 245,483.203 245,496.097 " fill="none" id="GenreRepository-backto-GenreRepoCustom" style="stroke:#181818;stroke-width:0.6999999999999998;stroke-dasharray:7.0,7.0;"/><polygon fill="#181818" points="245,454.314,242.2,460.614,245,457.814,247.8,460.614,245,454.314" style="stroke:#181818;stroke-width:0.6999999999999998;"/></g><!--SRC=[lPJVIyGm3CVV-rVaJKKzV3wFmQ4WmWbo1xxNBSvWhorjjkCK_tUxNsxMAWZg7hPbIR_v95bxy4W5GaukLoZy4sahdTn2hgJtIsP7znNZTMxqXfuHpeHeFN25sk65qUoCKkZWHK2uZg54NjReP8ahr0NfqXzkWeWkmQ8ZKvn0RtgMZj-j47i4SrYHvpLwQxJ7HPjYMPU3q1tXBXElGf1cT0yonuvYZTPSL9xDzWSKAvDBTIaPEv3cRVenh6gUH-TDlad5OwxhhLL0uOPRrEp_2ILHkYSsRl_x-RffB6ubkMuK9t1fgdk5MJk4JomRT3K5uzT1847IANKaa_7q3CdPzBu_mFkQBiA3nIBm4E-phCCu1ViKobD6bxrTjd7pNg9dzSZj-e6m3MhwKXigeXpDBhcHDXGnLCecjPCElwG66pustlVEftVYj-e9uLQtqKmjYAg8l2_JxdnepYd8CNJiMr3xz4FC79MFFCkw37t0v0YR3Qv-KKAXC3izH8rxBo5LsI5id8U8x0WeReY8JvI9w2Jt6m00]--></g></svg>