<?xml version="1.0" encoding="us-ascii" standalone="no"?><svg xmlns="http://www.w3.org/2000/svg" xmlns:xlink="http://www.w3.org/1999/xlink" contentStyleType="text/css" height="756px" preserveAspectRatio="none" style="width:1415px;height:756px;background:#FFFFFF;" version="1.1" viewBox="0 0 1415 756" width="1415px" zoomAndPan="magnify"><defs/><g><text fill="#000000" font-family="sans-serif" font-size="14" font-weight="bold" lengthAdjust="spacing" textLength="171" x="615.25" y="25.1074">PSOFT-G1 Rest Mapping</text><!--class Resource--><g id="elem_Resource"><rect codeLine="7" fill="#F1F1F1" height="153.6875" id="Resource" rx="2.5" ry="2.5" style="stroke:#181818;stroke-width:0.5;" width="67" x="767.5" y="46.6211"/><text fill="#000000" font-family="sans-serif" font-size="12" font-style="italic" lengthAdjust="spacing" textLength="61" x="770.5" y="64.5703">&#171;interface&#187;</text><text fill="#000000" font-family="sans-serif" font-size="14" lengthAdjust="spacing" textLength="61" x="770.5" y="82.6895">Resource</text><line style="stroke:#181818;stroke-width:0.5;" x1="768.5" x2="833.5" y1="91.2031" y2="91.2031"/><text fill="#000000" font-family="sans-serif" font-size="14" lengthAdjust="spacing" textLength="29" x="773.5" y="110.3105">GET</text><text fill="#000000" font-family="sans-serif" font-size="14" lengthAdjust="spacing" textLength="27" x="773.5" y="128.9316">PUT</text><text fill="#000000" font-family="sans-serif" font-size="14" lengthAdjust="spacing" textLength="46" x="773.5" y="147.5527">PATCH</text><text fill="#000000" font-family="sans-serif" font-size="14" lengthAdjust="spacing" textLength="38" x="773.5" y="166.1738">POST</text><text fill="#000000" font-family="sans-serif" font-size="14" lengthAdjust="spacing" textLength="54" x="773.5" y="184.7949">DELETE</text><line style="stroke:#181818;stroke-width:0.5;" x1="768.5" x2="833.5" y1="192.3086" y2="192.3086"/></g><!--class /readers--><g id="elem_/readers"><rect codeLine="15" fill="#F1F1F1" height="63.2422" id="/readers" rx="2.5" ry="2.5" style="stroke:#181818;stroke-width:0.5;" width="301" x="116.5" y="260.6211"/><text fill="#000000" font-family="sans-serif" font-size="14" lengthAdjust="spacing" textLength="53" x="240.5" y="280.7285">/readers</text><line style="stroke:#181818;stroke-width:0.5;" x1="117.5" x2="416.5" y1="289.2422" y2="289.2422"/><line style="stroke:#181818;stroke-width:0.5;" x1="117.5" x2="416.5" y1="297.2422" y2="297.2422"/><text fill="#000000" font-family="sans-serif" font-size="14" lengthAdjust="spacing" textLength="289" x="122.5" y="316.3496">POST : create an entity in the collection (A11)</text></g><!--class SearchReader--><g id="elem_SearchReader"><rect codeLine="20" fill="#F1F1F1" height="81.8633" id="SearchReader" rx="2.5" ry="2.5" style="stroke:#181818;stroke-width:0.5;" width="120" x="7" y="402.1211"/><text fill="#000000" font-family="sans-serif" font-size="14" lengthAdjust="spacing" textLength="96" x="19" y="422.2285">?name={name}</text><line style="stroke:#181818;stroke-width:0.5;" x1="8" x2="126" y1="430.7422" y2="430.7422"/><line style="stroke:#181818;stroke-width:0.5;" x1="8" x2="126" y1="438.7422" y2="438.7422"/><text fill="#000000" font-family="sans-serif" font-size="14" lengthAdjust="spacing" textLength="108" x="13" y="457.8496">GET : get filtered</text><text fill="#000000" font-family="sans-serif" font-size="14" lengthAdjust="spacing" textLength="84" x="17" y="476.4707">entities (A14)</text></g><!--class ReaderID--><g id="elem_ReaderID"><rect codeLine="24" fill="#F1F1F1" height="100.4844" id="ReaderID" rx="2.5" ry="2.5" style="stroke:#181818;stroke-width:0.5;" width="209" x="162.5" y="393.1211"/><text fill="#000000" font-family="sans-serif" font-size="14" lengthAdjust="spacing" textLength="79" x="227.5" y="413.2285">/{year}/{seq}</text><line style="stroke:#181818;stroke-width:0.5;" x1="163.5" x2="370.5" y1="421.7422" y2="421.7422"/><line style="stroke:#181818;stroke-width:0.5;" x1="163.5" x2="370.5" y1="429.7422" y2="429.7422"/><text fill="#000000" font-family="sans-serif" font-size="14" lengthAdjust="spacing" textLength="197" x="168.5" y="448.8496">GET : get specific reader (A13)</text><text fill="#000000" font-family="sans-serif" font-size="14" lengthAdjust="spacing" textLength="153" x="168.5" y="467.4707">PATCH : update specific</text><text fill="#000000" font-family="sans-serif" font-size="14" lengthAdjust="spacing" textLength="126" x="204.5" y="486.0918">reader details (A12)</text></g><!--class ReaderLendings--><g id="elem_ReaderLendings"><rect codeLine="29" fill="#F1F1F1" height="44.6211" id="ReaderLendings" rx="2.5" ry="2.5" style="stroke:#181818;stroke-width:0.5;" width="63" x="235.5" y="562.6211"/><text fill="#000000" font-family="sans-serif" font-size="14" lengthAdjust="spacing" textLength="57" x="238.5" y="582.7285">/lendings</text><line style="stroke:#181818;stroke-width:0.5;" x1="236.5" x2="297.5" y1="591.2422" y2="591.2422"/><line style="stroke:#181818;stroke-width:0.5;" x1="236.5" x2="297.5" y1="599.2422" y2="599.2422"/></g><!--class ?isbn={isbn}&returned=false--><g id="elem_?isbn={isbn}&amp;returned=false"><rect codeLine="32" fill="#F1F1F1" height="81.8633" id="?isbn={isbn}&amp;returned=false" rx="2.5" ry="2.5" style="stroke:#181818;stroke-width:0.5;" width="213" x="160.5" y="667.6211"/><text fill="#000000" font-family="sans-serif" font-size="14" lengthAdjust="spacing" textLength="179" x="177.5" y="687.7285">?isbn={isbn}&amp;returned=false</text><line style="stroke:#181818;stroke-width:0.5;" x1="161.5" x2="372.5" y1="696.2422" y2="696.2422"/><line style="stroke:#181818;stroke-width:0.5;" x1="161.5" x2="372.5" y1="704.2422" y2="704.2422"/><text fill="#000000" font-family="sans-serif" font-size="14" lengthAdjust="spacing" textLength="151" x="166.5" y="723.3496">GET : open lending of a</text><text fill="#000000" font-family="sans-serif" font-size="14" lengthAdjust="spacing" textLength="201" x="166.5" y="741.9707">reader, searched by ISBN (A16)</text></g><!--class /authors--><g id="elem_/authors"><rect codeLine="36" fill="#F1F1F1" height="63.2422" id="/authors" rx="2.5" ry="2.5" style="stroke:#181818;stroke-width:0.5;" width="293" x="551.5" y="260.6211"/><text fill="#000000" font-family="sans-serif" font-size="14" lengthAdjust="spacing" textLength="52" x="672" y="280.7285">/authors</text><line style="stroke:#181818;stroke-width:0.5;" x1="552.5" x2="843.5" y1="289.2422" y2="289.2422"/><line style="stroke:#181818;stroke-width:0.5;" x1="552.5" x2="843.5" y1="297.2422" y2="297.2422"/><text fill="#000000" font-family="sans-serif" font-size="14" lengthAdjust="spacing" textLength="281" x="557.5" y="316.3496">POST : create an entity in the collection (A3)</text></g><!--class AuthorID--><g id="elem_AuthorID"><rect codeLine="41" fill="#F1F1F1" height="100.4844" id="AuthorID" rx="2.5" ry="2.5" style="stroke:#181818;stroke-width:0.5;" width="200" x="407" y="393.1211"/><text fill="#000000" font-family="sans-serif" font-size="14" lengthAdjust="spacing" textLength="25" x="494.5" y="413.2285">/{id}</text><line style="stroke:#181818;stroke-width:0.5;" x1="408" x2="606" y1="421.7422" y2="421.7422"/><line style="stroke:#181818;stroke-width:0.5;" x1="408" x2="606" y1="429.7422" y2="429.7422"/><text fill="#000000" font-family="sans-serif" font-size="14" lengthAdjust="spacing" textLength="188" x="413" y="448.8496">GET : get specific author (A5)</text><text fill="#000000" font-family="sans-serif" font-size="14" lengthAdjust="spacing" textLength="153" x="413" y="467.4707">PATCH : update specific</text><text fill="#000000" font-family="sans-serif" font-size="14" lengthAdjust="spacing" textLength="117" x="417" y="486.0918">author details (A4)</text></g><!--class SearchAuthor--><g id="elem_SearchAuthor"><rect codeLine="52" fill="#F1F1F1" height="81.8633" id="SearchAuthor" rx="2.5" ry="2.5" style="stroke:#181818;stroke-width:0.5;" width="120" x="642" y="402.1211"/><text fill="#000000" font-family="sans-serif" font-size="14" lengthAdjust="spacing" textLength="96" x="654" y="422.2285">?name={name}</text><line style="stroke:#181818;stroke-width:0.5;" x1="643" x2="761" y1="430.7422" y2="430.7422"/><line style="stroke:#181818;stroke-width:0.5;" x1="643" x2="761" y1="438.7422" y2="438.7422"/><text fill="#000000" font-family="sans-serif" font-size="14" lengthAdjust="spacing" textLength="108" x="648" y="457.8496">GET : get filtered</text><text fill="#000000" font-family="sans-serif" font-size="14" lengthAdjust="spacing" textLength="76" x="652" y="476.4707">entities (A6)</text></g><!--class /books--><g id="elem_/books"><rect codeLine="56" fill="#F1F1F1" height="44.6211" id="/books" rx="2.5" ry="2.5" style="stroke:#181818;stroke-width:0.5;" width="48" x="880" y="269.6211"/><text fill="#000000" font-family="sans-serif" font-size="14" lengthAdjust="spacing" textLength="42" x="883" y="289.7285">/books</text><line style="stroke:#181818;stroke-width:0.5;" x1="881" x2="927" y1="298.2422" y2="298.2422"/><line style="stroke:#181818;stroke-width:0.5;" x1="881" x2="927" y1="306.2422" y2="306.2422"/></g><!--class /{isbn}--><g id="elem_/{isbn}"><rect codeLine="59" fill="#F1F1F1" height="119.1055" id="/{isbn}" rx="2.5" ry="2.5" style="stroke:#181818;stroke-width:0.5;" width="208" x="797" y="383.6211"/><text fill="#000000" font-family="sans-serif" font-size="14" lengthAdjust="spacing" textLength="40" x="881" y="403.7285">/{isbn}</text><line style="stroke:#181818;stroke-width:0.5;" x1="798" x2="1004" y1="412.2422" y2="412.2422"/><line style="stroke:#181818;stroke-width:0.5;" x1="798" x2="1004" y1="420.2422" y2="420.2422"/><text fill="#000000" font-family="sans-serif" font-size="14" lengthAdjust="spacing" textLength="178" x="803" y="439.3496">GET : get specific book (A9)</text><text fill="#000000" font-family="sans-serif" font-size="14" lengthAdjust="spacing" textLength="196" x="803" y="457.9707">PUT : create specific book (A7)</text><text fill="#000000" font-family="sans-serif" font-size="14" lengthAdjust="spacing" textLength="153" x="803" y="476.5918">PATCH : update specific</text><text fill="#000000" font-family="sans-serif" font-size="14" lengthAdjust="spacing" textLength="107" x="807" y="495.2129">book details (A8)</text></g><!--class ?genre={genre}--><g id="elem_?genre={genre}"><rect codeLine="65" fill="#F1F1F1" height="81.8633" id="?genre={genre}" rx="2.5" ry="2.5" style="stroke:#181818;stroke-width:0.5;" width="120" x="1040" y="402.1211"/><text fill="#000000" font-family="sans-serif" font-size="14" lengthAdjust="spacing" textLength="100" x="1050" y="422.2285">?genre={genre}</text><line style="stroke:#181818;stroke-width:0.5;" x1="1041" x2="1159" y1="430.7422" y2="430.7422"/><line style="stroke:#181818;stroke-width:0.5;" x1="1041" x2="1159" y1="438.7422" y2="438.7422"/><text fill="#000000" font-family="sans-serif" font-size="14" lengthAdjust="spacing" textLength="108" x="1046" y="457.8496">GET : get filtered</text><text fill="#000000" font-family="sans-serif" font-size="14" lengthAdjust="spacing" textLength="76" x="1050" y="476.4707">entities (A6)</text></g><!--class /lendings--><g id="elem_/lendings"><rect codeLine="69" fill="#F1F1F1" height="63.2422" id="/lendings" rx="2.5" ry="2.5" style="stroke:#181818;stroke-width:0.5;" width="301" x="1058.5" y="260.6211"/><text fill="#000000" font-family="sans-serif" font-size="14" lengthAdjust="spacing" textLength="57" x="1180.5" y="280.7285">/lendings</text><line style="stroke:#181818;stroke-width:0.5;" x1="1059.5" x2="1358.5" y1="289.2422" y2="289.2422"/><line style="stroke:#181818;stroke-width:0.5;" x1="1059.5" x2="1358.5" y1="297.2422" y2="297.2422"/><text fill="#000000" font-family="sans-serif" font-size="14" lengthAdjust="spacing" textLength="289" x="1064.5" y="316.3496">POST : create an entity in the collection (A15)</text></g><!--class LendingID--><g id="elem_LendingID"><rect codeLine="73" fill="#F1F1F1" height="100.4844" id="LendingID" rx="2.5" ry="2.5" style="stroke:#181818;stroke-width:0.5;" width="213" x="1195.5" y="393.1211"/><text fill="#000000" font-family="sans-serif" font-size="14" lengthAdjust="spacing" textLength="79" x="1262.5" y="413.2285">/{year}/{seq}</text><line style="stroke:#181818;stroke-width:0.5;" x1="1196.5" x2="1407.5" y1="421.7422" y2="421.7422"/><line style="stroke:#181818;stroke-width:0.5;" x1="1196.5" x2="1407.5" y1="429.7422" y2="429.7422"/><text fill="#000000" font-family="sans-serif" font-size="14" lengthAdjust="spacing" textLength="201" x="1201.5" y="448.8496">GET : get specific lending (A17)</text><text fill="#000000" font-family="sans-serif" font-size="14" lengthAdjust="spacing" textLength="152" x="1201.5" y="467.4707">PATCH : update lending</text><text fill="#000000" font-family="sans-serif" font-size="14" lengthAdjust="spacing" textLength="122" x="1205.5" y="486.0918">(return book) (A16)</text></g><!--reverse link Resource to /readers--><g id="link_Resource_/readers"><path d="M750.0061,140.5195 C670.5061,165.3095 486.46,222.6911 364.84,260.6111 " fill="none" id="Resource-backto-/readers" style="stroke:#181818;stroke-width:1.0;"/><polygon fill="none" points="767.19,135.1611,748.2199,134.7915,751.7922,146.2474,767.19,135.1611" style="stroke:#181818;stroke-width:1.0;"/></g><!--reverse link /readers to SearchReader--><g id="link_/readers_SearchReader"><path d="M211.2742,334.3629 C187.6142,351.8829 171.85,363.6011 145,383.6211 C136.99,389.5911 128.54,395.9211 120.26,402.1211 " fill="none" id="/readers-backto-SearchReader" style="stroke:#181818;stroke-width:1.0;"/><polygon fill="none" points="225.74,323.6511,207.7037,329.5409,214.8448,339.1848,225.74,323.6511" style="stroke:#181818;stroke-width:1.0;"/></g><!--reverse link /readers to ReaderID--><g id="link_/readers_ReaderID"><path d="M267,341.6311 C267,361.5511 267,370.0211 267,392.8811 " fill="none" id="/readers-backto-ReaderID" style="stroke:#181818;stroke-width:1.0;"/><polygon fill="none" points="267,323.6311,261,341.6311,273,341.6311,267,323.6311" style="stroke:#181818;stroke-width:1.0;"/></g><!--reverse link ReaderID to ReaderLendings--><g id="link_ReaderID_ReaderLendings"><path d="M267,511.4811 C267,535.1011 267,544.1611 267,562.5211 " fill="none" id="ReaderID-backto-ReaderLendings" style="stroke:#181818;stroke-width:1.0;"/><polygon fill="none" points="267,493.4811,261,511.4811,273,511.4811,267,493.4811" style="stroke:#181818;stroke-width:1.0;"/></g><!--reverse link ReaderLendings to ?isbn={isbn}&returned=false--><g id="link_ReaderLendings_?isbn={isbn}&amp;returned=false"><path d="M267,625.8411 C267,642.3611 267,647.5511 267,667.4211 " fill="none" id="ReaderLendings-backto-?isbn={isbn}&amp;returned=false" style="stroke:#181818;stroke-width:1.0;"/><polygon fill="none" points="267,607.8411,261,625.8411,273,625.8411,267,607.8411" style="stroke:#181818;stroke-width:1.0;"/></g><!--reverse link Resource to /authors--><g id="link_Resource_/authors"><path d="M757.8001,194.4487 C741.1401,221.3787 731.12,237.5811 717.06,260.3011 " fill="none" id="Resource-backto-/authors" style="stroke:#181818;stroke-width:1.0;"/><polygon fill="none" points="767.27,179.1411,752.6976,191.292,762.9026,197.6053,767.27,179.1411" style="stroke:#181818;stroke-width:1.0;"/></g><!--reverse link /authors to AuthorID--><g id="link_/authors_AuthorID"><path d="M644.6966,334.7013 C619.1566,354.6213 599.43,370.0211 570.12,392.8811 " fill="none" id="/authors-backto-AuthorID" style="stroke:#181818;stroke-width:1.0;"/><polygon fill="none" points="658.89,323.6311,641.0066,329.9701,648.3867,339.4324,658.89,323.6311" style="stroke:#181818;stroke-width:1.0;"/></g><!--reverse link /authors to SearchAuthor--><g id="link_/authors_SearchAuthor"><path d="M699.3046,341.6246 C699.9146,364.2746 700.26,377.3811 700.92,402.0311 " fill="none" id="/authors-backto-SearchAuthor" style="stroke:#181818;stroke-width:1.0;"/><polygon fill="none" points="698.82,323.6311,693.3068,341.7861,705.3024,341.463,698.82,323.6311" style="stroke:#181818;stroke-width:1.0;"/></g><!--reverse link Resource to /books--><g id="link_Resource_/books"><path d="M844.1996,194.4488 C863.2096,225.1788 876.43,246.5511 890.53,269.3411 " fill="none" id="Resource-backto-/books" style="stroke:#181818;stroke-width:1.0;"/><polygon fill="none" points="834.73,179.1411,839.097,197.6054,849.3022,191.2923,834.73,179.1411" style="stroke:#181818;stroke-width:1.0;"/></g><!--reverse link /books to /{isbn}--><g id="link_/books_/{isbn}"><path d="M903.1999,332.7875 C902.8399,350.7775 902.67,359.2611 902.18,383.4111 " fill="none" id="/books-backto-/{isbn}" style="stroke:#181818;stroke-width:1.0;"/><polygon fill="none" points="903.56,314.7911,897.2011,332.6674,909.1987,332.9075,903.56,314.7911" style="stroke:#181818;stroke-width:1.0;"/></g><!--reverse link /books to ?genre={genre}--><g id="link_/books_?genre={genre}"><path d="M942.3605,322.2832 C971.9105,344.7432 1008.56,372.6011 1047.36,402.1111 " fill="none" id="/books-backto-?genre={genre}" style="stroke:#181818;stroke-width:1.0;"/><polygon fill="none" points="928.03,311.3911,938.7297,327.06,945.9912,317.5064,928.03,311.3911" style="stroke:#181818;stroke-width:1.0;"/></g><!--reverse link Resource to /lendings--><g id="link_Resource_/lendings"><path d="M851.4061,145.1913 C916.6961,171.8313 1045.09,224.2311 1134.21,260.6011 " fill="none" id="Resource-backto-/lendings" style="stroke:#181818;stroke-width:1.0;"/><polygon fill="none" points="834.74,138.3911,849.1393,150.7466,853.6728,139.6359,834.74,138.3911" style="stroke:#181818;stroke-width:1.0;"/></g><!--reverse link /lendings to LendingID--><g id="link_/lendings_LendingID"><path d="M1237.5745,338.8985 C1250.0145,358.8185 1257,370.0211 1271.27,392.8811 " fill="none" id="/lendings-backto-LendingID" style="stroke:#181818;stroke-width:1.0;"/><polygon fill="none" points="1228.04,323.6311,1232.4853,342.0767,1242.6636,335.7204,1228.04,323.6311" style="stroke:#181818;stroke-width:1.0;"/></g><!--SRC=[jLJBRjim4BphAnO-r37GGdNJz8KuXTsugO6q2IBtvWjDhMmY3AMI511NyB-N3psTk7OFrK6KoENCx2oNQnOZK2Ofnq3TCv4HIHw0SgBKM6l9bhd66Kr5n7uZl0u2pJH7k8rklivVNGtX3fM6xoJBc5W5WTjcvz9SKeJpSoOqoeHGlBWe0Z3FrNJknjkVvJYUV_dclsuYFtKvlPxEfy6sWkk54acCKlK07pMAk64eWdu92fzWXHe8vu32Q6IeQbIpHWs4HY32hsw02T1hatZAELBDKW4du-5mq6BzBCW3ZWhxtlQ0A8YGIBg-Srfg9OsuEhzIIiAuoHtZXQWLMOwtROwms1ZGRLWe_EL9FFpiyWW2bI5b2QFW0opuwQ0nrKJbMMophW8NOg6hu1WrOTmfUjDHn0shgQLggRakfrhsUv55sowcbc9KsFVsXKITIu7nA25SOMzdOuNNJYZDK4393Ma211R2Itq9oXcFCImtC8icFwpeTntH9DVhzFyVaDDkxLZiQpPsx9sQLOBsrim76Cop0oMh8fk2-HCKzciXopIzLoqb4_jVYwdKxKfnkwobbPI90-w7Xph00nwHxFCTqArSgVrftJf6sqFLQp7wNNlDjSk6wUEWkcgQ0k_6l3zalujhpF_GkI9MQ0xfg7334GAFCQJflwUU_FE5TlRtowPinCx9hVdtkbjrgS5_thqom6HvuYy2P-AWRji_]--></g></svg>