<?xml version="1.0" encoding="us-ascii" standalone="no"?><svg xmlns="http://www.w3.org/2000/svg" xmlns:xlink="http://www.w3.org/1999/xlink" contentStyleType="text/css" height="972.6px" preserveAspectRatio="none" style="width:1095px;height:972px;background:#FFFFFF;" version="1.1" viewBox="0 0 1095 972" width="1095px" zoomAndPan="magnify"><defs/><g><!--class LendingController--><g id="elem_LendingController"><rect codeLine="5" fill="#F1F1F1" height="84.6633" id="LendingController" rx="1.5" ry="1.5" style="stroke:#181818;stroke-width:0.3;" width="321.6" x="476.4" y="80.4"/><ellipse cx="600.75" cy="90" fill="#ADD1B2" rx="6.6" ry="6.6" style="stroke:#181818;stroke-width:0.6;"/><path d="M602.4094,87.525 Q602.5031,87.3938 602.6156,87.3281 Q602.7281,87.2625 602.8594,87.2625 Q603.0844,87.2625 603.225,87.4219 Q603.3656,87.5719 603.3656,87.9375 L603.3656,88.8094 Q603.3656,89.175 603.225,89.3344 Q603.0844,89.4937 602.8594,89.4937 Q602.6531,89.4937 602.5313,89.3719 Q602.4094,89.2594 602.3438,88.95 Q602.3156,88.7344 602.2031,88.6219 Q602.0063,88.3969 601.6406,88.2656 Q601.275,88.1344 600.9,88.1344 Q600.4406,88.1344 600.0563,88.3313 Q599.6813,88.5281 599.3813,88.9781 Q599.0906,89.4281 599.0906,90.0469 L599.0906,90.7031 Q599.0906,91.4438 599.625,91.9406 Q600.1594,92.4281 601.1156,92.4281 Q601.6781,92.4281 602.0719,92.2781 Q602.3063,92.1844 602.5594,91.9219 Q602.7188,91.7625 602.8031,91.7156 Q602.8969,91.6688 603.0188,91.6688 Q603.2156,91.6688 603.3656,91.8281 Q603.525,91.9781 603.525,92.1844 Q603.525,92.3906 603.3188,92.6344 Q603.0188,92.9813 602.5406,93.1781 Q601.8938,93.45 601.1156,93.45 Q600.2063,93.45 599.4844,93.075 Q598.8938,92.775 598.4812,92.1375 Q598.0688,91.4906 598.0688,90.7219 L598.0688,90.0281 Q598.0688,89.2313 598.4344,88.5469 Q598.8094,87.8531 599.4656,87.4875 Q600.1219,87.1125 600.8625,87.1125 Q601.3031,87.1125 601.6875,87.2156 Q602.0813,87.3094 602.4094,87.525 Z " fill="#000000"/><text fill="#000000" font-family="sans-serif" font-size="8.4" lengthAdjust="spacing" textLength="67.8" x="613.05" y="93.4781">LendingController</text><line style="stroke:#181818;stroke-width:0.3;" x1="477" x2="797.4" y1="99.6" y2="99.6"/><line style="stroke:#181818;stroke-width:0.3;" x1="477" x2="797.4" y1="104.4" y2="104.4"/><text fill="#000000" font-family="sans-serif" font-size="8.4" lengthAdjust="spacing" textLength="176.4" x="480" y="115.8645">+create(createLendingRequest) : LendingView</text><text fill="#000000" font-family="sans-serif" font-size="8.4" lengthAdjust="spacing" textLength="204" x="480" y="127.0371">+findByLendingNumber(readerNumber) : LendingView</text><text fill="#000000" font-family="sans-serif" font-size="8.4" lengthAdjust="spacing" textLength="314.4" x="480" y="138.2098">+setLendingReturned(lendingNumber, setLendingReturnedRequest) : LendingView</text><text fill="#000000" font-family="sans-serif" font-size="8.4" lengthAdjust="spacing" textLength="193.2" x="480" y="149.3824">+getAvgDuration() : LendingsAverageDurationView</text><text fill="#000000" font-family="sans-serif" font-size="8.4" lengthAdjust="spacing" textLength="187.8" x="480" y="160.5551">+getOverdueLendings(page) : List&lt;LendingView&gt;</text></g><!--class LendingViewMapper--><g id="elem_LendingViewMapper"><rect codeLine="13" fill="#F1F1F1" height="51.1453" id="LendingViewMapper" rx="1.5" ry="1.5" style="stroke:#181818;stroke-width:0.3;" width="192" x="784.2" y="210.3"/><ellipse cx="838.95" cy="219.9" fill="#A9DCDF" rx="6.6" ry="6.6" style="stroke:#181818;stroke-width:0.6;"/><path d="M840.2625,220.9594 L837.7781,220.9594 L837.525,221.5781 L837.7781,221.5781 Q838.1438,221.5781 838.3031,221.7188 Q838.4625,221.8594 838.4625,222.0938 Q838.4625,222.3188 838.3031,222.4594 Q838.1438,222.6 837.7781,222.6 L836.4,222.6 Q836.0344,222.6 835.8844,222.4594 Q835.725,222.3188 835.725,222.0844 Q835.725,221.8594 835.8938,221.7188 Q836.0531,221.5688 836.4281,221.5781 L838.0313,217.5844 L837.3656,217.5844 Q837,217.5844 836.8406,217.4438 Q836.6813,217.3031 836.6813,217.0688 Q836.6813,216.8438 836.8406,216.7031 Q837,216.5625 837.3656,216.5625 L839.5688,216.5625 L841.6031,221.5781 Q841.9594,221.5781 842.0719,221.6625 Q842.3063,221.8219 842.3063,222.0938 Q842.3063,222.3188 842.1469,222.4594 Q841.9969,222.6 841.6313,222.6 L840.2531,222.6 Q839.8875,222.6 839.7281,222.4594 Q839.5688,222.3188 839.5688,222.0844 Q839.5688,221.8594 839.7281,221.7188 Q839.8875,221.5781 840.2531,221.5781 L840.5063,221.5781 L840.2625,220.9594 Z M839.8313,219.9375 L839.0156,217.9125 L838.1906,219.9375 L839.8313,219.9375 Z " fill="#000000"/><text fill="#000000" font-family="sans-serif" font-size="8.4" font-style="italic" lengthAdjust="spacing" textLength="77.4" x="851.25" y="223.3781">LendingViewMapper</text><line style="stroke:#181818;stroke-width:0.3;" x1="784.8" x2="975.6" y1="229.5" y2="229.5"/><line style="stroke:#181818;stroke-width:0.3;" x1="784.8" x2="975.6" y1="234.3" y2="234.3"/><text fill="#000000" font-family="sans-serif" font-size="8.4" lengthAdjust="spacing" textLength="148.8" x="787.8" y="245.7645">+toLendingView(lending) : LendingView</text><text fill="#000000" font-family="sans-serif" font-size="8.4" lengthAdjust="spacing" textLength="184.8" x="787.8" y="256.9371">+toLendingView(lendingList) : List&lt;LendingView&gt;</text></g><!--class LendingView--><g id="elem_LendingView"><rect codeLine="18" fill="#F1F1F1" height="107.0086" id="LendingView" rx="1.5" ry="1.5" style="stroke:#181818;stroke-width:0.3;" width="108" x="826.2" y="306.6"/><ellipse cx="853.65" cy="316.2" fill="#ADD1B2" rx="6.6" ry="6.6" style="stroke:#181818;stroke-width:0.6;"/><path d="M855.3094,313.725 Q855.4031,313.5938 855.5156,313.5281 Q855.6281,313.4625 855.7594,313.4625 Q855.9844,313.4625 856.125,313.6219 Q856.2656,313.7719 856.2656,314.1375 L856.2656,315.0094 Q856.2656,315.375 856.125,315.5344 Q855.9844,315.6937 855.7594,315.6937 Q855.5531,315.6937 855.4313,315.5719 Q855.3094,315.4594 855.2438,315.15 Q855.2156,314.9344 855.1031,314.8219 Q854.9063,314.5969 854.5406,314.4656 Q854.175,314.3344 853.8,314.3344 Q853.3406,314.3344 852.9563,314.5313 Q852.5813,314.7281 852.2813,315.1781 Q851.9906,315.6281 851.9906,316.2469 L851.9906,316.9031 Q851.9906,317.6438 852.525,318.1406 Q853.0594,318.6281 854.0156,318.6281 Q854.5781,318.6281 854.9719,318.4781 Q855.2063,318.3844 855.4594,318.1219 Q855.6188,317.9625 855.7031,317.9156 Q855.7969,317.8688 855.9187,317.8688 Q856.1156,317.8688 856.2656,318.0281 Q856.425,318.1781 856.425,318.3844 Q856.425,318.5906 856.2188,318.8344 Q855.9187,319.1813 855.4406,319.3781 Q854.7937,319.65 854.0156,319.65 Q853.1062,319.65 852.3844,319.275 Q851.7937,318.975 851.3813,318.3375 Q850.9688,317.6906 850.9688,316.9219 L850.9688,316.2281 Q850.9688,315.4313 851.3344,314.7469 Q851.7094,314.0531 852.3656,313.6875 Q853.0219,313.3125 853.7625,313.3125 Q854.2031,313.3125 854.5875,313.4156 Q854.9812,313.5094 855.3094,313.725 Z " fill="#000000"/><text fill="#000000" font-family="sans-serif" font-size="8.4" lengthAdjust="spacing" textLength="48" x="865.95" y="319.6781">LendingView</text><line style="stroke:#181818;stroke-width:0.3;" x1="826.8" x2="933.6" y1="325.8" y2="325.8"/><text fill="#000000" font-family="sans-serif" font-size="8.4" lengthAdjust="spacing" textLength="89.4" x="829.8" y="337.2645">-lendingNumber : String</text><text fill="#000000" font-family="sans-serif" font-size="8.4" lengthAdjust="spacing" textLength="67.2" x="829.8" y="348.4371">-bookTitle : String</text><text fill="#000000" font-family="sans-serif" font-size="8.4" lengthAdjust="spacing" textLength="83.4" x="829.8" y="359.6098">-startDate : LocalDate</text><text fill="#000000" font-family="sans-serif" font-size="8.4" lengthAdjust="spacing" textLength="81" x="829.8" y="370.7824">-limitDate : LocalDate</text><text fill="#000000" font-family="sans-serif" font-size="8.4" lengthAdjust="spacing" textLength="96.6" x="829.8" y="381.9551">-daysUntilReturn : Integer</text><text fill="#000000" font-family="sans-serif" font-size="8.4" lengthAdjust="spacing" textLength="87.6" x="829.8" y="393.1277">-daysOverdue : Integer</text><text fill="#000000" font-family="sans-serif" font-size="8.4" lengthAdjust="spacing" textLength="100.8" x="829.8" y="404.3004">-fineValueInCents : Integer</text><line style="stroke:#181818;stroke-width:0.3;" x1="826.8" x2="933.6" y1="408.8086" y2="408.8086"/></g><!--class LendingsAverageDurationView--><g id="elem_LendingsAverageDurationView"><rect codeLine="28" fill="#F1F1F1" height="39.9727" id="LendingsAverageDurationView" rx="1.5" ry="1.5" style="stroke:#181818;stroke-width:0.3;" width="135.6" x="955.2" y="339.9"/><ellipse cx="964.2" cy="349.5" fill="#ADD1B2" rx="6.6" ry="6.6" style="stroke:#181818;stroke-width:0.6;"/><path d="M965.8594,347.025 Q965.9531,346.8938 966.0656,346.8281 Q966.1781,346.7625 966.3094,346.7625 Q966.5344,346.7625 966.675,346.9219 Q966.8156,347.0719 966.8156,347.4375 L966.8156,348.3094 Q966.8156,348.675 966.675,348.8344 Q966.5344,348.9938 966.3094,348.9938 Q966.1031,348.9938 965.9812,348.8719 Q965.8594,348.7594 965.7937,348.45 Q965.7656,348.2344 965.6531,348.1219 Q965.4563,347.8969 965.0906,347.7656 Q964.725,347.6344 964.35,347.6344 Q963.8906,347.6344 963.5062,347.8313 Q963.1312,348.0281 962.8313,348.4781 Q962.5406,348.9281 962.5406,349.5469 L962.5406,350.2031 Q962.5406,350.9437 963.075,351.4406 Q963.6094,351.9281 964.5656,351.9281 Q965.1281,351.9281 965.5219,351.7781 Q965.7562,351.6844 966.0094,351.4219 Q966.1687,351.2625 966.2531,351.2156 Q966.3469,351.1688 966.4688,351.1688 Q966.6656,351.1688 966.8156,351.3281 Q966.975,351.4781 966.975,351.6844 Q966.975,351.8906 966.7688,352.1344 Q966.4688,352.4813 965.9906,352.6781 Q965.3438,352.95 964.5656,352.95 Q963.6563,352.95 962.9344,352.575 Q962.3438,352.275 961.9313,351.6375 Q961.5188,350.9906 961.5188,350.2219 L961.5188,349.5281 Q961.5188,348.7313 961.8844,348.0469 Q962.2594,347.3531 962.9156,346.9875 Q963.5719,346.6125 964.3125,346.6125 Q964.7531,346.6125 965.1375,346.7156 Q965.5313,346.8094 965.8594,347.025 Z " fill="#000000"/><text fill="#000000" font-family="sans-serif" font-size="8.4" lengthAdjust="spacing" textLength="116.4" x="972.6" y="352.9781">LendingsAverageDurationView</text><line style="stroke:#181818;stroke-width:0.3;" x1="955.8" x2="1090.2" y1="359.1" y2="359.1"/><text fill="#000000" font-family="sans-serif" font-size="8.4" lengthAdjust="spacing" textLength="128.4" x="958.8" y="370.5645">-lendingsAverageDuration : String</text><line style="stroke:#181818;stroke-width:0.3;" x1="955.8" x2="1090.2" y1="375.0727" y2="375.0727"/></g><!--class LendingService--><g id="elem_LendingService"><rect codeLine="32" fill="#F1F1F1" height="84.6633" id="LendingService" rx="1.5" ry="1.5" style="stroke:#181818;stroke-width:0.3;" width="335.4" x="469.5" y="317.7"/><ellipse cx="605.55" cy="327.3" fill="#B4A7E5" rx="6.6" ry="6.6" style="stroke:#181818;stroke-width:0.6;"/><path d="M606.1219,325.2844 L606.1219,329.2781 L607.1531,329.2781 Q607.5188,329.2781 607.6781,329.4188 Q607.8375,329.5594 607.8375,329.7938 Q607.8375,330.0188 607.6781,330.1594 Q607.5188,330.3 607.1531,330.3 L604.0688,330.3 Q603.7031,330.3 603.5437,330.1594 Q603.3844,330.0188 603.3844,329.7844 Q603.3844,329.5594 603.5437,329.4188 Q603.7031,329.2781 604.0688,329.2781 L605.1,329.2781 L605.1,325.2844 L604.0688,325.2844 Q603.7031,325.2844 603.5437,325.1438 Q603.3844,325.0031 603.3844,324.7688 Q603.3844,324.5438 603.5437,324.4031 Q603.7031,324.2625 604.0688,324.2625 L607.1531,324.2625 Q607.5188,324.2625 607.6781,324.4031 Q607.8375,324.5438 607.8375,324.7688 Q607.8375,325.0031 607.6781,325.1438 Q607.5188,325.2844 607.1531,325.2844 L606.1219,325.2844 Z " fill="#000000"/><text fill="#000000" font-family="sans-serif" font-size="8.4" font-style="italic" lengthAdjust="spacing" textLength="58.2" x="617.85" y="330.7781">LendingService</text><line style="stroke:#181818;stroke-width:0.3;" x1="470.1" x2="804.3" y1="336.9" y2="336.9"/><line style="stroke:#181818;stroke-width:0.3;" x1="470.1" x2="804.3" y1="341.7" y2="341.7"/><text fill="#000000" font-family="sans-serif" font-size="8.4" lengthAdjust="spacing" textLength="196.8" x="473.1" y="353.1645">+create(CreateLendingRequest resource) : Lending</text><text fill="#000000" font-family="sans-serif" font-size="8.4" lengthAdjust="spacing" textLength="255" x="473.1" y="364.3371">+findByLendingNumber(String lendingNumber) : Optional&lt;Lending&gt;</text><text fill="#000000" font-family="sans-serif" font-size="8.4" lengthAdjust="spacing" textLength="328.2" x="473.1" y="375.5098">+setReturned(lendingNumber, setLendingReturnedRequest, desiredVersion) : Lending</text><text fill="#000000" font-family="sans-serif" font-size="8.4" lengthAdjust="spacing" textLength="116.4" x="473.1" y="386.6824">+getAverageDuration() : String</text><text fill="#000000" font-family="sans-serif" font-size="8.4" lengthAdjust="spacing" textLength="135.6" x="473.1" y="397.8551">+getOverdue(page) : List&lt;Lending&gt;</text></g><!--class LendingServiceImpl--><g id="elem_LendingServiceImpl"><rect codeLine="40" fill="#F1F1F1" height="28.8" id="LendingServiceImpl" rx="1.5" ry="1.5" style="stroke:#181818;stroke-width:0.3;" width="93" x="377.1" y="488.4"/><ellipse cx="386.1" cy="498" fill="#ADD1B2" rx="6.6" ry="6.6" style="stroke:#181818;stroke-width:0.6;"/><path d="M387.7594,495.525 Q387.8531,495.3937 387.9656,495.3281 Q388.0781,495.2625 388.2094,495.2625 Q388.4344,495.2625 388.575,495.4219 Q388.7156,495.5719 388.7156,495.9375 L388.7156,496.8094 Q388.7156,497.175 388.575,497.3344 Q388.4344,497.4938 388.2094,497.4938 Q388.0031,497.4938 387.8812,497.3719 Q387.7594,497.2594 387.6937,496.95 Q387.6656,496.7344 387.5531,496.6219 Q387.3563,496.3969 386.9906,496.2656 Q386.625,496.1344 386.25,496.1344 Q385.7906,496.1344 385.4063,496.3312 Q385.0313,496.5281 384.7313,496.9781 Q384.4406,497.4281 384.4406,498.0469 L384.4406,498.7031 Q384.4406,499.4437 384.975,499.9406 Q385.5094,500.4281 386.4656,500.4281 Q387.0281,500.4281 387.4219,500.2781 Q387.6563,500.1844 387.9094,499.9219 Q388.0687,499.7625 388.1531,499.7156 Q388.2469,499.6688 388.3688,499.6688 Q388.5656,499.6688 388.7156,499.8281 Q388.875,499.9781 388.875,500.1844 Q388.875,500.3906 388.6688,500.6344 Q388.3688,500.9813 387.8906,501.1781 Q387.2438,501.45 386.4656,501.45 Q385.5563,501.45 384.8344,501.075 Q384.2438,500.775 383.8313,500.1375 Q383.4188,499.4906 383.4188,498.7219 L383.4188,498.0281 Q383.4188,497.2313 383.7844,496.5469 Q384.1594,495.8531 384.8156,495.4875 Q385.4719,495.1125 386.2125,495.1125 Q386.6531,495.1125 387.0375,495.2156 Q387.4313,495.3094 387.7594,495.525 Z " fill="#000000"/><text fill="#000000" font-family="sans-serif" font-size="8.4" lengthAdjust="spacing" textLength="73.8" x="394.5" y="501.4781">LendingServiceImpl</text><line style="stroke:#181818;stroke-width:0.3;" x1="377.7" x2="469.5" y1="507.6" y2="507.6"/><line style="stroke:#181818;stroke-width:0.3;" x1="377.7" x2="469.5" y1="512.4" y2="512.4"/></g><!--class UserService--><g id="elem_UserService"><rect codeLine="43" fill="#F1F1F1" height="39.9727" id="UserService" rx="1.5" ry="1.5" style="stroke:#181818;stroke-width:0.3;" width="177.6" x="548.4" y="4.2"/><ellipse cx="611.85" cy="13.8" fill="#B4A7E5" rx="6.6" ry="6.6" style="stroke:#181818;stroke-width:0.6;"/><path d="M612.4219,11.7844 L612.4219,15.7781 L613.4531,15.7781 Q613.8188,15.7781 613.9781,15.9188 Q614.1375,16.0594 614.1375,16.2938 Q614.1375,16.5188 613.9781,16.6594 Q613.8188,16.8 613.4531,16.8 L610.3688,16.8 Q610.0031,16.8 609.8438,16.6594 Q609.6844,16.5188 609.6844,16.2844 Q609.6844,16.0594 609.8438,15.9188 Q610.0031,15.7781 610.3688,15.7781 L611.4,15.7781 L611.4,11.7844 L610.3688,11.7844 Q610.0031,11.7844 609.8438,11.6437 Q609.6844,11.5031 609.6844,11.2687 Q609.6844,11.0438 609.8438,10.9031 Q610.0031,10.7625 610.3688,10.7625 L613.4531,10.7625 Q613.8188,10.7625 613.9781,10.9031 Q614.1375,11.0438 614.1375,11.2687 Q614.1375,11.5031 613.9781,11.6437 Q613.8188,11.7844 613.4531,11.7844 L612.4219,11.7844 Z " fill="#000000"/><text fill="#000000" font-family="sans-serif" font-size="8.4" font-style="italic" lengthAdjust="spacing" textLength="45.6" x="624.15" y="17.2781">UserService</text><line style="stroke:#181818;stroke-width:0.3;" x1="549" x2="725.4" y1="23.4" y2="23.4"/><line style="stroke:#181818;stroke-width:0.3;" x1="549" x2="725.4" y1="28.2" y2="28.2"/><text fill="#000000" font-family="sans-serif" font-size="8.4" lengthAdjust="spacing" textLength="170.4" x="552" y="39.6645">+getAuthenticatedUser(authentication) : User</text></g><!--class ReaderService--><g id="elem_ReaderService"><rect codeLine="47" fill="#F1F1F1" height="39.9727" id="ReaderService" rx="1.5" ry="1.5" style="stroke:#181818;stroke-width:0.3;" width="220.2" x="296.7" y="4.2"/><ellipse cx="376.35" cy="13.8" fill="#B4A7E5" rx="6.6" ry="6.6" style="stroke:#181818;stroke-width:0.6;"/><path d="M376.9219,11.7844 L376.9219,15.7781 L377.9531,15.7781 Q378.3187,15.7781 378.4781,15.9188 Q378.6375,16.0594 378.6375,16.2938 Q378.6375,16.5188 378.4781,16.6594 Q378.3187,16.8 377.9531,16.8 L374.8688,16.8 Q374.5031,16.8 374.3438,16.6594 Q374.1844,16.5188 374.1844,16.2844 Q374.1844,16.0594 374.3438,15.9188 Q374.5031,15.7781 374.8688,15.7781 L375.9,15.7781 L375.9,11.7844 L374.8688,11.7844 Q374.5031,11.7844 374.3438,11.6437 Q374.1844,11.5031 374.1844,11.2687 Q374.1844,11.0438 374.3438,10.9031 Q374.5031,10.7625 374.8688,10.7625 L377.9531,10.7625 Q378.3187,10.7625 378.4781,10.9031 Q378.6375,11.0438 378.6375,11.2687 Q378.6375,11.5031 378.4781,11.6437 Q378.3187,11.7844 377.9531,11.7844 L376.9219,11.7844 Z " fill="#000000"/><text fill="#000000" font-family="sans-serif" font-size="8.4" font-style="italic" lengthAdjust="spacing" textLength="55.8" x="388.65" y="17.2781">ReaderService</text><line style="stroke:#181818;stroke-width:0.3;" x1="297.3" x2="516.3" y1="23.4" y2="23.4"/><line style="stroke:#181818;stroke-width:0.3;" x1="297.3" x2="516.3" y1="28.2" y2="28.2"/><text fill="#000000" font-family="sans-serif" font-size="8.4" lengthAdjust="spacing" textLength="213" x="300.3" y="39.6645">+findByUsername(username) : Optional&lt;ReaderDetails&gt;</text></g><!--class ConcurrencyService--><g id="elem_ConcurrencyService"><rect codeLine="51" fill="#F1F1F1" height="39.9727" id="ConcurrencyService" rx="1.5" ry="1.5" style="stroke:#181818;stroke-width:0.3;" width="214.2" x="819.3" y="102.6"/><ellipse cx="885.45" cy="112.2" fill="#ADD1B2" rx="6.6" ry="6.6" style="stroke:#181818;stroke-width:0.6;"/><path d="M887.1094,109.725 Q887.2031,109.5938 887.3156,109.5281 Q887.4281,109.4625 887.5594,109.4625 Q887.7844,109.4625 887.925,109.6219 Q888.0656,109.7719 888.0656,110.1375 L888.0656,111.0094 Q888.0656,111.375 887.925,111.5344 Q887.7844,111.6938 887.5594,111.6938 Q887.3531,111.6938 887.2312,111.5719 Q887.1094,111.4594 887.0437,111.15 Q887.0156,110.9344 886.9031,110.8219 Q886.7063,110.5969 886.3406,110.4656 Q885.975,110.3344 885.6,110.3344 Q885.1406,110.3344 884.7563,110.5313 Q884.3813,110.7281 884.0813,111.1781 Q883.7906,111.6281 883.7906,112.2469 L883.7906,112.9031 Q883.7906,113.6438 884.325,114.1406 Q884.8594,114.6281 885.8156,114.6281 Q886.3781,114.6281 886.7719,114.4781 Q887.0063,114.3844 887.2594,114.1219 Q887.4187,113.9625 887.5031,113.9156 Q887.5969,113.8687 887.7188,113.8687 Q887.9156,113.8687 888.0656,114.0281 Q888.225,114.1781 888.225,114.3844 Q888.225,114.5906 888.0188,114.8344 Q887.7188,115.1812 887.2406,115.3781 Q886.5938,115.65 885.8156,115.65 Q884.9063,115.65 884.1844,115.275 Q883.5938,114.975 883.1813,114.3375 Q882.7688,113.6906 882.7688,112.9219 L882.7688,112.2281 Q882.7688,111.4312 883.1344,110.7469 Q883.5094,110.0531 884.1656,109.6875 Q884.8219,109.3125 885.5625,109.3125 Q886.0031,109.3125 886.3875,109.4156 Q886.7813,109.5094 887.1094,109.725 Z " fill="#000000"/><text fill="#000000" font-family="sans-serif" font-size="8.4" lengthAdjust="spacing" textLength="76.8" x="897.75" y="115.6781">ConcurrencyService</text><line style="stroke:#181818;stroke-width:0.3;" x1="819.9" x2="1032.9" y1="121.8" y2="121.8"/><line style="stroke:#181818;stroke-width:0.3;" x1="819.9" x2="1032.9" y1="126.6" y2="126.6"/><text fill="#000000" font-family="sans-serif" font-size="8.4" lengthAdjust="spacing" textLength="207" x="822.9" y="138.0645">+getVersionFromIfMatchHeader(ifMatchHeader) : Long</text></g><!--class LendingRepository--><g id="elem_LendingRepository"><rect codeLine="56" fill="#F1F1F1" height="107.0086" id="LendingRepository" rx="1.5" ry="1.5" style="stroke:#181818;stroke-width:0.3;" width="256.8" x="4.2" y="449.4"/><ellipse cx="94.35" cy="459" fill="#B4A7E5" rx="6.6" ry="6.6" style="stroke:#181818;stroke-width:0.6;"/><path d="M94.9219,456.9844 L94.9219,460.9781 L95.9531,460.9781 Q96.3188,460.9781 96.4781,461.1188 Q96.6375,461.2594 96.6375,461.4938 Q96.6375,461.7188 96.4781,461.8594 Q96.3188,462 95.9531,462 L92.8687,462 Q92.5031,462 92.3438,461.8594 Q92.1844,461.7188 92.1844,461.4844 Q92.1844,461.2594 92.3438,461.1188 Q92.5031,460.9781 92.8687,460.9781 L93.9,460.9781 L93.9,456.9844 L92.8687,456.9844 Q92.5031,456.9844 92.3438,456.8438 Q92.1844,456.7031 92.1844,456.4688 Q92.1844,456.2438 92.3438,456.1031 Q92.5031,455.9625 92.8687,455.9625 L95.9531,455.9625 Q96.3188,455.9625 96.4781,456.1031 Q96.6375,456.2438 96.6375,456.4688 Q96.6375,456.7031 96.4781,456.8438 Q96.3188,456.9844 95.9531,456.9844 L94.9219,456.9844 Z " fill="#000000"/><text fill="#000000" font-family="sans-serif" font-size="8.4" font-style="italic" lengthAdjust="spacing" textLength="71.4" x="106.65" y="462.4781">LendingRepository</text><line style="stroke:#181818;stroke-width:0.3;" x1="4.8" x2="260.4" y1="468.6" y2="468.6"/><line style="stroke:#181818;stroke-width:0.3;" x1="4.8" x2="260.4" y1="473.4" y2="473.4"/><text fill="#000000" font-family="sans-serif" font-size="8.4" lengthAdjust="spacing" textLength="159" x="7.8" y="484.8645">+create(createLendingRequest) : Lending</text><text fill="#000000" font-family="sans-serif" font-size="8.4" lengthAdjust="spacing" textLength="230.4" x="7.8" y="496.0371">+findByLendingNumber(lendingNumber) : Optional&lt;Lending&gt;</text><text fill="#000000" font-family="sans-serif" font-size="8.4" lengthAdjust="spacing" textLength="249.6" x="7.8" y="507.2098">+listOutstandingByReaderNumber(readerNumber) : List&lt;Lending&gt;</text><text fill="#000000" font-family="sans-serif" font-size="8.4" lengthAdjust="spacing" textLength="94.2" x="7.8" y="518.3824">+save(lending) : Lending</text><text fill="#000000" font-family="sans-serif" font-size="8.4" lengthAdjust="spacing" textLength="128.4" x="7.8" y="529.5551">+getCountFromCurrentYear() : int</text><text fill="#000000" font-family="sans-serif" font-size="8.4" lengthAdjust="spacing" textLength="121.2" x="7.8" y="540.7277">+getAverageDuration() : Double</text><text fill="#000000" font-family="sans-serif" font-size="8.4" lengthAdjust="spacing" textLength="135.6" x="7.8" y="551.9004">+getOverdue(page) : List&lt;Lending&gt;</text></g><!--class ReaderRepository--><g id="elem_ReaderRepository"><rect codeLine="67" fill="#F1F1F1" height="39.9727" id="ReaderRepository" rx="1.5" ry="1.5" style="stroke:#181818;stroke-width:0.3;" width="102.6" x="410.1" y="696.3"/><ellipse cx="425.58" cy="705.9" fill="#B4A7E5" rx="6.6" ry="6.6" style="stroke:#181818;stroke-width:0.6;"/><path d="M426.1519,703.8844 L426.1519,707.8781 L427.1831,707.8781 Q427.5488,707.8781 427.7081,708.0188 Q427.8675,708.1594 427.8675,708.3938 Q427.8675,708.6188 427.7081,708.7594 Q427.5488,708.9 427.1831,708.9 L424.0987,708.9 Q423.7331,708.9 423.5737,708.7594 Q423.4144,708.6188 423.4144,708.3844 Q423.4144,708.1594 423.5737,708.0188 Q423.7331,707.8781 424.0987,707.8781 L425.13,707.8781 L425.13,703.8844 L424.0987,703.8844 Q423.7331,703.8844 423.5737,703.7438 Q423.4144,703.6031 423.4144,703.3688 Q423.4144,703.1438 423.5737,703.0031 Q423.7331,702.8625 424.0987,702.8625 L427.1831,702.8625 Q427.5488,702.8625 427.7081,703.0031 Q427.8675,703.1438 427.8675,703.3688 Q427.8675,703.6031 427.7081,703.7438 Q427.5488,703.8844 427.1831,703.8844 L426.1519,703.8844 Z " fill="#000000"/><text fill="#000000" font-family="sans-serif" font-size="8.4" font-style="italic" lengthAdjust="spacing" textLength="69" x="435.42" y="709.3781">ReaderRepository</text><line style="stroke:#181818;stroke-width:0.3;" x1="410.7" x2="512.1" y1="715.5" y2="715.5"/><line style="stroke:#181818;stroke-width:0.3;" x1="410.7" x2="512.1" y1="720.3" y2="720.3"/><text fill="#000000" font-family="sans-serif" font-size="8.4" lengthAdjust="spacing" textLength="95.4" x="413.7" y="731.7645">+findById(readerNumber)</text></g><!--class BookRepository--><g id="elem_BookRepository"><rect codeLine="71" fill="#F1F1F1" height="39.9727" id="BookRepository" rx="1.5" ry="1.5" style="stroke:#181818;stroke-width:0.3;" width="79.8" x="491.1" y="482.7"/><ellipse cx="500.1" cy="492.3" fill="#B4A7E5" rx="6.6" ry="6.6" style="stroke:#181818;stroke-width:0.6;"/><path d="M500.6719,490.2844 L500.6719,494.2781 L501.7031,494.2781 Q502.0687,494.2781 502.2281,494.4188 Q502.3875,494.5594 502.3875,494.7938 Q502.3875,495.0187 502.2281,495.1594 Q502.0687,495.3 501.7031,495.3 L498.6188,495.3 Q498.2531,495.3 498.0938,495.1594 Q497.9344,495.0187 497.9344,494.7844 Q497.9344,494.5594 498.0938,494.4188 Q498.2531,494.2781 498.6188,494.2781 L499.65,494.2781 L499.65,490.2844 L498.6188,490.2844 Q498.2531,490.2844 498.0938,490.1437 Q497.9344,490.0031 497.9344,489.7687 Q497.9344,489.5438 498.0938,489.4031 Q498.2531,489.2625 498.6188,489.2625 L501.7031,489.2625 Q502.0687,489.2625 502.2281,489.4031 Q502.3875,489.5438 502.3875,489.7687 Q502.3875,490.0031 502.2281,490.1437 Q502.0687,490.2844 501.7031,490.2844 L500.6719,490.2844 Z " fill="#000000"/><text fill="#000000" font-family="sans-serif" font-size="8.4" font-style="italic" lengthAdjust="spacing" textLength="60.6" x="508.5" y="495.7781">BookRepository</text><line style="stroke:#181818;stroke-width:0.3;" x1="491.7" x2="570.3" y1="501.9" y2="501.9"/><line style="stroke:#181818;stroke-width:0.3;" x1="491.7" x2="570.3" y1="506.7" y2="506.7"/><text fill="#000000" font-family="sans-serif" font-size="8.4" lengthAdjust="spacing" textLength="56.4" x="494.7" y="518.1645">+findById(isbn)</text></g><!--class FineRepository--><g id="elem_FineRepository"><rect codeLine="75" fill="#F1F1F1" height="39.9727" id="FineRepository" rx="1.5" ry="1.5" style="stroke:#181818;stroke-width:0.3;" width="76.8" x="534" y="696.3"/><ellipse cx="543" cy="705.9" fill="#B4A7E5" rx="6.6" ry="6.6" style="stroke:#181818;stroke-width:0.6;"/><path d="M543.5719,703.8844 L543.5719,707.8781 L544.6031,707.8781 Q544.9688,707.8781 545.1281,708.0188 Q545.2875,708.1594 545.2875,708.3938 Q545.2875,708.6188 545.1281,708.7594 Q544.9688,708.9 544.6031,708.9 L541.5188,708.9 Q541.1531,708.9 540.9938,708.7594 Q540.8344,708.6188 540.8344,708.3844 Q540.8344,708.1594 540.9938,708.0188 Q541.1531,707.8781 541.5188,707.8781 L542.55,707.8781 L542.55,703.8844 L541.5188,703.8844 Q541.1531,703.8844 540.9938,703.7438 Q540.8344,703.6031 540.8344,703.3688 Q540.8344,703.1438 540.9938,703.0031 Q541.1531,702.8625 541.5188,702.8625 L544.6031,702.8625 Q544.9688,702.8625 545.1281,703.0031 Q545.2875,703.1438 545.2875,703.3688 Q545.2875,703.6031 545.1281,703.7438 Q544.9688,703.8844 544.6031,703.8844 L543.5719,703.8844 Z " fill="#000000"/><text fill="#000000" font-family="sans-serif" font-size="8.4" font-style="italic" lengthAdjust="spacing" textLength="57.6" x="551.4" y="709.3781">FineRepository</text><line style="stroke:#181818;stroke-width:0.3;" x1="534.6" x2="610.2" y1="715.5" y2="715.5"/><line style="stroke:#181818;stroke-width:0.3;" x1="534.6" x2="610.2" y1="720.3" y2="720.3"/><text fill="#000000" font-family="sans-serif" font-size="8.4" lengthAdjust="spacing" textLength="66.6" x="537.6" y="731.7645">+save(fine) : Fine</text></g><!--class Lending--><g id="elem_Lending"><rect codeLine="79" fill="#F1F1F1" height="248.6297" id="Lending" rx="1.5" ry="1.5" style="stroke:#181818;stroke-width:0.3;" width="195.6" x="120.6" y="592.2"/><ellipse cx="200.55" cy="605.5746" fill="#ADD1B2" rx="6.6" ry="6.6" style="stroke:#181818;stroke-width:0.6;"/><path d="M202.2094,603.0996 Q202.3031,602.9684 202.4156,602.9027 Q202.5281,602.8371 202.6594,602.8371 Q202.8844,602.8371 203.025,602.9965 Q203.1656,603.1465 203.1656,603.5121 L203.1656,604.384 Q203.1656,604.7496 203.025,604.909 Q202.8844,605.0684 202.6594,605.0684 Q202.4531,605.0684 202.3312,604.9465 Q202.2094,604.834 202.1437,604.5246 Q202.1156,604.309 202.0031,604.1965 Q201.8063,603.9715 201.4406,603.8402 Q201.075,603.709 200.7,603.709 Q200.2406,603.709 199.8563,603.9059 Q199.4813,604.1027 199.1813,604.5527 Q198.8906,605.0027 198.8906,605.6215 L198.8906,606.2777 Q198.8906,607.0184 199.425,607.5152 Q199.9594,608.0027 200.9156,608.0027 Q201.4781,608.0027 201.8719,607.8527 Q202.1063,607.759 202.3594,607.4965 Q202.5187,607.3371 202.6031,607.2902 Q202.6969,607.2434 202.8188,607.2434 Q203.0156,607.2434 203.1656,607.4027 Q203.325,607.5527 203.325,607.759 Q203.325,607.9652 203.1188,608.209 Q202.8188,608.5559 202.3406,608.7527 Q201.6938,609.0246 200.9156,609.0246 Q200.0063,609.0246 199.2844,608.6496 Q198.6938,608.3496 198.2813,607.7121 Q197.8688,607.0652 197.8688,606.2965 L197.8688,605.6027 Q197.8688,604.8059 198.2344,604.1215 Q198.6094,603.4277 199.2656,603.0621 Q199.9219,602.6871 200.6625,602.6871 Q201.1031,602.6871 201.4875,602.7902 Q201.8813,602.884 202.2094,603.0996 Z " fill="#000000"/><text fill="#000000" font-family="sans-serif" font-size="7.2" font-style="italic" lengthAdjust="spacing" textLength="25.8" x="215.25" y="602.9695">&#171;entity&#187;</text><text fill="#000000" font-family="sans-serif" font-size="8.4" lengthAdjust="spacing" textLength="30.6" x="212.85" y="613.841">Lending</text><line style="stroke:#181818;stroke-width:0.3;" x1="121.2" x2="315.6" y1="618.9492" y2="618.9492"/><text fill="#000000" font-family="sans-serif" font-size="8.4" lengthAdjust="spacing" textLength="38.4" x="124.2" y="630.4137">-pk : Long</text><text fill="#000000" font-family="sans-serif" font-size="8.4" lengthAdjust="spacing" textLength="63" x="124.2" y="641.5863">-startDate : Date</text><text fill="#000000" font-family="sans-serif" font-size="8.4" lengthAdjust="spacing" textLength="60.6" x="124.2" y="652.759">-limitDate : Date</text><text fill="#000000" font-family="sans-serif" font-size="8.4" lengthAdjust="spacing" textLength="69" x="124.2" y="663.9316">-returnDate : Date</text><text fill="#000000" font-family="sans-serif" font-size="8.4" lengthAdjust="spacing" textLength="54" x="124.2" y="675.1043">-version : long</text><text fill="#000000" font-family="sans-serif" font-size="8.4" lengthAdjust="spacing" textLength="78.6" x="124.2" y="686.277">-commentary : String</text><text fill="#000000" font-family="sans-serif" font-size="8.4" lengthAdjust="spacing" textLength="96.6" x="124.2" y="697.4496">-daysUntilReturn : Integer</text><text fill="#000000" font-family="sans-serif" font-size="8.4" lengthAdjust="spacing" textLength="87.6" x="124.2" y="708.6223">-daysOverdue : Integer</text><text fill="#000000" font-family="sans-serif" font-size="8.4" lengthAdjust="spacing" textLength="83.4" x="124.2" y="719.7949">-fineValueInCents : int</text><line style="stroke:#181818;stroke-width:0.3;" x1="121.2" x2="315.6" y1="724.3031" y2="724.3031"/><text fill="#000000" font-family="sans-serif" font-size="8.4" lengthAdjust="spacing" textLength="96.6" x="124.2" y="735.7676">-setReturnedDate() : void</text><text fill="#000000" font-family="sans-serif" font-size="8.4" lengthAdjust="spacing" textLength="104.4" x="124.2" y="746.9402">-setDaysUntilReturn() : void</text><text fill="#000000" font-family="sans-serif" font-size="8.4" lengthAdjust="spacing" textLength="95.4" x="124.2" y="758.1129">-setDaysOverdue() : void</text><text fill="#000000" font-family="sans-serif" font-size="8.4" lengthAdjust="spacing" textLength="89.4" x="124.2" y="769.2855">+getDaysDelayed() : int</text><text fill="#000000" font-family="sans-serif" font-size="8.4" lengthAdjust="spacing" textLength="159" x="124.2" y="780.4582">+getDaysUntilReturn() : Optional&lt;Integer&gt;</text><text fill="#000000" font-family="sans-serif" font-size="8.4" lengthAdjust="spacing" textLength="150" x="124.2" y="791.6309">+getDaysOverdue() : Optional&lt;Integer&gt;</text><text fill="#000000" font-family="sans-serif" font-size="8.4" lengthAdjust="spacing" textLength="165" x="124.2" y="802.8035">+getFineValueInCents() : Optional&lt;Integer&gt;</text><text fill="#000000" font-family="sans-serif" font-size="8.4" lengthAdjust="spacing" textLength="112.2" x="124.2" y="813.9762">+getLendingNumber() : String</text><text fill="#000000" font-family="sans-serif" font-size="8.4" lengthAdjust="spacing" textLength="188.4" x="124.2" y="825.1488">+setReturned(desiredVersion, commentary) : void</text><text fill="#000000" font-family="sans-serif" font-size="8.4" lengthAdjust="spacing" textLength="138" x="124.2" y="836.3215">+getReaderDetails() : ReaderDetails</text></g><!--class LendingNumber--><g id="elem_LendingNumber"><rect codeLine="102" fill="#F1F1F1" height="69.8672" id="LendingNumber" rx="1.5" ry="1.5" style="stroke:#181818;stroke-width:0.3;" width="79.2" x="178.8" y="888"/><ellipse cx="187.8" cy="901.3746" fill="#ADD1B2" rx="6.6" ry="6.6" style="stroke:#181818;stroke-width:0.6;"/><path d="M189.4594,898.8996 Q189.5531,898.7684 189.6656,898.7027 Q189.7781,898.6371 189.9094,898.6371 Q190.1344,898.6371 190.275,898.7965 Q190.4156,898.9465 190.4156,899.3121 L190.4156,900.184 Q190.4156,900.5496 190.275,900.709 Q190.1344,900.8684 189.9094,900.8684 Q189.7031,900.8684 189.5812,900.7465 Q189.4594,900.634 189.3937,900.3246 Q189.3656,900.109 189.2531,899.9965 Q189.0563,899.7715 188.6906,899.6402 Q188.325,899.509 187.95,899.509 Q187.4906,899.509 187.1063,899.7059 Q186.7313,899.9027 186.4313,900.3527 Q186.1406,900.8027 186.1406,901.4215 L186.1406,902.0777 Q186.1406,902.8184 186.675,903.3152 Q187.2094,903.8027 188.1656,903.8027 Q188.7281,903.8027 189.1219,903.6527 Q189.3563,903.559 189.6094,903.2965 Q189.7687,903.1371 189.8531,903.0902 Q189.9469,903.0434 190.0688,903.0434 Q190.2656,903.0434 190.4156,903.2027 Q190.575,903.3527 190.575,903.559 Q190.575,903.7652 190.3688,904.009 Q190.0688,904.3559 189.5906,904.5527 Q188.9438,904.8246 188.1656,904.8246 Q187.2563,904.8246 186.5344,904.4496 Q185.9438,904.1496 185.5313,903.5121 Q185.1188,902.8652 185.1188,902.0965 L185.1188,901.4027 Q185.1188,900.6059 185.4844,899.9215 Q185.8594,899.2277 186.5156,898.8621 Q187.1719,898.4871 187.9125,898.4871 Q188.3531,898.4871 188.7375,898.5902 Q189.1313,898.684 189.4594,898.8996 Z " fill="#000000"/><text fill="#000000" font-family="sans-serif" font-size="7.2" font-style="italic" lengthAdjust="spacing" textLength="26.4" x="213" y="898.7695">&#171;value&#187;</text><text fill="#000000" font-family="sans-serif" font-size="8.4" lengthAdjust="spacing" textLength="60" x="196.2" y="909.641">LendingNumber</text><line style="stroke:#181818;stroke-width:0.3;" x1="179.4" x2="257.4" y1="914.7492" y2="914.7492"/><text fill="#000000" font-family="sans-serif" font-size="8.4" lengthAdjust="spacing" textLength="63" x="182.4" y="926.2137">-registryYear :int</text><text fill="#000000" font-family="sans-serif" font-size="8.4" lengthAdjust="spacing" textLength="45.6" x="182.4" y="937.3863">-number :int</text><line style="stroke:#181818;stroke-width:0.3;" x1="179.4" x2="257.4" y1="941.8945" y2="941.8945"/><text fill="#000000" font-family="sans-serif" font-size="8.4" lengthAdjust="spacing" textLength="69.6" x="182.4" y="953.359">+toString() : String</text></g><!--class Isbn--><g id="elem_Isbn"><rect codeLine="108" fill="#F1F1F1" height="47.5219" id="Isbn" rx="1.5" ry="1.5" style="stroke:#181818;stroke-width:0.3;" width="51.6" x="337.2" y="692.7"/><ellipse cx="349.98" cy="706.0746" fill="#ADD1B2" rx="6.6" ry="6.6" style="stroke:#181818;stroke-width:0.6;"/><path d="M351.6394,703.5996 Q351.7331,703.4684 351.8456,703.4027 Q351.9581,703.3371 352.0894,703.3371 Q352.3144,703.3371 352.455,703.4965 Q352.5956,703.6465 352.5956,704.0121 L352.5956,704.884 Q352.5956,705.2496 352.455,705.409 Q352.3144,705.5684 352.0894,705.5684 Q351.8831,705.5684 351.7612,705.4465 Q351.6394,705.334 351.5737,705.0246 Q351.5456,704.809 351.4331,704.6965 Q351.2363,704.4715 350.8706,704.3402 Q350.505,704.209 350.13,704.209 Q349.6706,704.209 349.2862,704.4059 Q348.9112,704.6027 348.6113,705.0527 Q348.3206,705.5027 348.3206,706.1215 L348.3206,706.7777 Q348.3206,707.5184 348.855,708.0152 Q349.3894,708.5027 350.3456,708.5027 Q350.9081,708.5027 351.3019,708.3527 Q351.5362,708.259 351.7894,707.9965 Q351.9487,707.8371 352.0331,707.7902 Q352.1269,707.7434 352.2488,707.7434 Q352.4456,707.7434 352.5956,707.9027 Q352.755,708.0527 352.755,708.259 Q352.755,708.4652 352.5488,708.709 Q352.2488,709.0559 351.7706,709.2527 Q351.1238,709.5246 350.3456,709.5246 Q349.4363,709.5246 348.7144,709.1496 Q348.1238,708.8496 347.7112,708.2121 Q347.2988,707.5652 347.2988,706.7965 L347.2988,706.1027 Q347.2988,705.3059 347.6644,704.6215 Q348.0394,703.9277 348.6956,703.5621 Q349.3519,703.1871 350.0925,703.1871 Q350.5331,703.1871 350.9175,703.2902 Q351.3113,703.384 351.6394,703.5996 Z " fill="#000000"/><text fill="#000000" font-family="sans-serif" font-size="7.2" font-style="italic" lengthAdjust="spacing" textLength="26.4" x="358.02" y="703.4695">&#171;value&#187;</text><text fill="#000000" font-family="sans-serif" font-size="8.4" lengthAdjust="spacing" textLength="15.6" x="363.42" y="714.341">Isbn</text><line style="stroke:#181818;stroke-width:0.3;" x1="337.8" x2="388.2" y1="719.4492" y2="719.4492"/><text fill="#000000" font-family="sans-serif" font-size="8.4" lengthAdjust="spacing" textLength="44.4" x="340.8" y="730.9137">-isbn: string</text><line style="stroke:#181818;stroke-width:0.3;" x1="337.8" x2="388.2" y1="735.4219" y2="735.4219"/></g><!--class ReaderDetails--><g id="elem_ReaderDetails"><rect codeLine="112" fill="#F1F1F1" height="47.5219" id="ReaderDetails" rx="1.5" ry="1.5" style="stroke:#181818;stroke-width:0.3;" width="117" x="338.1" y="99"/><ellipse cx="367.05" cy="112.3746" fill="#ADD1B2" rx="6.6" ry="6.6" style="stroke:#181818;stroke-width:0.6;"/><path d="M368.7094,109.8996 Q368.8031,109.7684 368.9156,109.7027 Q369.0281,109.6371 369.1594,109.6371 Q369.3844,109.6371 369.525,109.7965 Q369.6656,109.9465 369.6656,110.3121 L369.6656,111.184 Q369.6656,111.5496 369.525,111.709 Q369.3844,111.8684 369.1594,111.8684 Q368.9531,111.8684 368.8313,111.7465 Q368.7094,111.634 368.6438,111.3246 Q368.6156,111.109 368.5031,110.9965 Q368.3063,110.7715 367.9406,110.6402 Q367.575,110.509 367.2,110.509 Q366.7406,110.509 366.3563,110.7059 Q365.9813,110.9027 365.6813,111.3527 Q365.3906,111.8027 365.3906,112.4215 L365.3906,113.0777 Q365.3906,113.8184 365.925,114.3152 Q366.4594,114.8027 367.4156,114.8027 Q367.9781,114.8027 368.3719,114.6527 Q368.6063,114.559 368.8594,114.2965 Q369.0188,114.1371 369.1031,114.0902 Q369.1969,114.0434 369.3187,114.0434 Q369.5156,114.0434 369.6656,114.2027 Q369.825,114.3527 369.825,114.559 Q369.825,114.7652 369.6188,115.009 Q369.3187,115.3559 368.8406,115.5527 Q368.1937,115.8246 367.4156,115.8246 Q366.5062,115.8246 365.7844,115.4496 Q365.1937,115.1496 364.7813,114.5121 Q364.3688,113.8652 364.3688,113.0965 L364.3688,112.4027 Q364.3688,111.6059 364.7344,110.9215 Q365.1094,110.2277 365.7656,109.8621 Q366.4219,109.4871 367.1625,109.4871 Q367.6031,109.4871 367.9875,109.5902 Q368.3812,109.684 368.7094,109.8996 Z " fill="#000000"/><text fill="#000000" font-family="sans-serif" font-size="7.2" font-style="italic" lengthAdjust="spacing" textLength="25.8" x="393.45" y="109.7695">&#171;entity&#187;</text><text fill="#000000" font-family="sans-serif" font-size="8.4" lengthAdjust="spacing" textLength="54" x="379.35" y="120.641">ReaderDetails</text><line style="stroke:#181818;stroke-width:0.3;" x1="338.7" x2="454.5" y1="125.7492" y2="125.7492"/><line style="stroke:#181818;stroke-width:0.3;" x1="338.7" x2="454.5" y1="130.5492" y2="130.5492"/><text fill="#000000" font-family="sans-serif" font-size="8.4" lengthAdjust="spacing" textLength="109.8" x="341.7" y="142.0137">+getReaderNumber() : String</text></g><!--class ReaderNumber--><g id="elem_ReaderNumber"><rect codeLine="116" fill="#F1F1F1" height="69.8672" id="ReaderNumber" rx="1.5" ry="1.5" style="stroke:#181818;stroke-width:0.3;" width="76.8" x="306" y="201"/><ellipse cx="315" cy="214.3746" fill="#ADD1B2" rx="6.6" ry="6.6" style="stroke:#181818;stroke-width:0.6;"/><path d="M316.6594,211.8996 Q316.7531,211.7684 316.8656,211.7027 Q316.9781,211.6371 317.1094,211.6371 Q317.3344,211.6371 317.475,211.7965 Q317.6156,211.9465 317.6156,212.3121 L317.6156,213.184 Q317.6156,213.5496 317.475,213.709 Q317.3344,213.8684 317.1094,213.8684 Q316.9031,213.8684 316.7813,213.7465 Q316.6594,213.634 316.5938,213.3246 Q316.5656,213.109 316.4531,212.9965 Q316.2562,212.7715 315.8906,212.6402 Q315.525,212.509 315.15,212.509 Q314.6906,212.509 314.3063,212.7059 Q313.9313,212.9027 313.6312,213.3527 Q313.3406,213.8027 313.3406,214.4215 L313.3406,215.0777 Q313.3406,215.8184 313.875,216.3152 Q314.4094,216.8027 315.3656,216.8027 Q315.9281,216.8027 316.3219,216.6527 Q316.5563,216.559 316.8094,216.2965 Q316.9688,216.1371 317.0531,216.0902 Q317.1469,216.0434 317.2688,216.0434 Q317.4656,216.0434 317.6156,216.2027 Q317.775,216.3527 317.775,216.559 Q317.775,216.7652 317.5687,217.009 Q317.2688,217.3559 316.7906,217.5527 Q316.1438,217.8246 315.3656,217.8246 Q314.4563,217.8246 313.7344,217.4496 Q313.1438,217.1496 312.7313,216.5121 Q312.3187,215.8652 312.3187,215.0965 L312.3187,214.4027 Q312.3187,213.6059 312.6844,212.9215 Q313.0594,212.2277 313.7156,211.8621 Q314.3719,211.4871 315.1125,211.4871 Q315.5531,211.4871 315.9375,211.5902 Q316.3313,211.684 316.6594,211.8996 Z " fill="#000000"/><text fill="#000000" font-family="sans-serif" font-size="7.2" font-style="italic" lengthAdjust="spacing" textLength="26.4" x="339" y="211.7695">&#171;value&#187;</text><text fill="#000000" font-family="sans-serif" font-size="8.4" lengthAdjust="spacing" textLength="57.6" x="323.4" y="222.641">ReaderNumber</text><line style="stroke:#181818;stroke-width:0.3;" x1="306.6" x2="382.2" y1="227.7492" y2="227.7492"/><text fill="#000000" font-family="sans-serif" font-size="8.4" lengthAdjust="spacing" textLength="63" x="309.6" y="239.2137">-registryYear :int</text><text fill="#000000" font-family="sans-serif" font-size="8.4" lengthAdjust="spacing" textLength="45.6" x="309.6" y="250.3863">-number :int</text><line style="stroke:#181818;stroke-width:0.3;" x1="306.6" x2="382.2" y1="254.8945" y2="254.8945"/><text fill="#000000" font-family="sans-serif" font-size="8.4" lengthAdjust="spacing" textLength="69.6" x="309.6" y="266.359">+toString() : String</text></g><!--class Fine--><g id="elem_Fine"><rect codeLine="122" fill="#F1F1F1" height="92.2125" id="Fine" rx="1.5" ry="1.5" style="stroke:#181818;stroke-width:0.3;" width="151.2" x="279" y="876.6"/><ellipse cx="340.35" cy="889.9746" fill="#ADD1B2" rx="6.6" ry="6.6" style="stroke:#181818;stroke-width:0.6;"/><path d="M342.0094,887.4996 Q342.1031,887.3684 342.2156,887.3027 Q342.3281,887.2371 342.4594,887.2371 Q342.6844,887.2371 342.825,887.3965 Q342.9656,887.5465 342.9656,887.9121 L342.9656,888.784 Q342.9656,889.1496 342.825,889.309 Q342.6844,889.4684 342.4594,889.4684 Q342.2531,889.4684 342.1312,889.3465 Q342.0094,889.234 341.9437,888.9246 Q341.9156,888.709 341.8031,888.5965 Q341.6063,888.3715 341.2406,888.2402 Q340.875,888.109 340.5,888.109 Q340.0406,888.109 339.6563,888.3059 Q339.2813,888.5027 338.9813,888.9527 Q338.6906,889.4027 338.6906,890.0215 L338.6906,890.6777 Q338.6906,891.4184 339.225,891.9152 Q339.7594,892.4027 340.7156,892.4027 Q341.2781,892.4027 341.6719,892.2527 Q341.9063,892.159 342.1594,891.8965 Q342.3187,891.7371 342.4031,891.6902 Q342.4969,891.6434 342.6188,891.6434 Q342.8156,891.6434 342.9656,891.8027 Q343.125,891.9527 343.125,892.159 Q343.125,892.3652 342.9188,892.609 Q342.6188,892.9559 342.1406,893.1527 Q341.4938,893.4246 340.7156,893.4246 Q339.8063,893.4246 339.0844,893.0496 Q338.4938,892.7496 338.0813,892.1121 Q337.6688,891.4652 337.6688,890.6965 L337.6688,890.0027 Q337.6688,889.2059 338.0344,888.5215 Q338.4094,887.8277 339.0656,887.4621 Q339.7219,887.0871 340.4625,887.0871 Q340.9031,887.0871 341.2875,887.1902 Q341.6813,887.284 342.0094,887.4996 Z " fill="#000000"/><text fill="#000000" font-family="sans-serif" font-size="7.2" font-style="italic" lengthAdjust="spacing" textLength="25.8" x="351.45" y="887.3695">&#171;entity&#187;</text><text fill="#000000" font-family="sans-serif" font-size="8.4" lengthAdjust="spacing" textLength="16.8" x="355.95" y="898.241">Fine</text><line style="stroke:#181818;stroke-width:0.3;" x1="279.6" x2="429.6" y1="903.3492" y2="903.3492"/><text fill="#000000" font-family="sans-serif" font-size="8.4" lengthAdjust="spacing" textLength="61.2" x="282.6" y="914.8137">-centsValue : int</text><text fill="#000000" font-family="sans-serif" font-size="8.4" lengthAdjust="spacing" textLength="40.2" x="282.6" y="925.9863">-paid :bool</text><line style="stroke:#181818;stroke-width:0.3;" x1="279.6" x2="429.6" y1="930.4945" y2="930.4945"/><text fill="#000000" font-family="sans-serif" font-size="8.4" lengthAdjust="spacing" textLength="144" x="282.6" y="941.959">+updateValue(int daysOverdue) : void</text><text fill="#000000" font-family="sans-serif" font-size="8.4" lengthAdjust="spacing" textLength="60.6" x="282.6" y="953.1316">+getValue() : int</text><text fill="#000000" font-family="sans-serif" font-size="8.4" lengthAdjust="spacing" textLength="57" x="282.6" y="964.3043">+isPaid() : bool</text></g><!--class SetLendingReturnedRequest--><g id="elem_SetLendingReturnedRequest"><rect codeLine="130" fill="#F1F1F1" height="39.9727" id="SetLendingReturnedRequest" rx="1.5" ry="1.5" style="stroke:#181818;stroke-width:0.3;" width="129.6" x="131.4" y="339.9"/><ellipse cx="140.4" cy="349.5" fill="#ADD1B2" rx="6.6" ry="6.6" style="stroke:#181818;stroke-width:0.6;"/><path d="M142.0594,347.025 Q142.1531,346.8938 142.2656,346.8281 Q142.3781,346.7625 142.5094,346.7625 Q142.7344,346.7625 142.875,346.9219 Q143.0156,347.0719 143.0156,347.4375 L143.0156,348.3094 Q143.0156,348.675 142.875,348.8344 Q142.7344,348.9938 142.5094,348.9938 Q142.3031,348.9938 142.1813,348.8719 Q142.0594,348.7594 141.9938,348.45 Q141.9656,348.2344 141.8531,348.1219 Q141.6563,347.8969 141.2906,347.7656 Q140.925,347.6344 140.55,347.6344 Q140.0906,347.6344 139.7062,347.8313 Q139.3312,348.0281 139.0313,348.4781 Q138.7406,348.9281 138.7406,349.5469 L138.7406,350.2031 Q138.7406,350.9437 139.275,351.4406 Q139.8094,351.9281 140.7656,351.9281 Q141.3281,351.9281 141.7219,351.7781 Q141.9562,351.6844 142.2094,351.4219 Q142.3688,351.2625 142.4531,351.2156 Q142.5469,351.1688 142.6688,351.1688 Q142.8656,351.1688 143.0156,351.3281 Q143.175,351.4781 143.175,351.6844 Q143.175,351.8906 142.9688,352.1344 Q142.6688,352.4813 142.1906,352.6781 Q141.5438,352.95 140.7656,352.95 Q139.8563,352.95 139.1344,352.575 Q138.5438,352.275 138.1313,351.6375 Q137.7188,350.9906 137.7188,350.2219 L137.7188,349.5281 Q137.7188,348.7313 138.0844,348.0469 Q138.4594,347.3531 139.1156,346.9875 Q139.7719,346.6125 140.5125,346.6125 Q140.9531,346.6125 141.3375,346.7156 Q141.7313,346.8094 142.0594,347.025 Z " fill="#000000"/><text fill="#000000" font-family="sans-serif" font-size="8.4" lengthAdjust="spacing" textLength="110.4" x="148.8" y="352.9781">SetLendingReturnedRequest</text><line style="stroke:#181818;stroke-width:0.3;" x1="132" x2="260.4" y1="359.1" y2="359.1"/><text fill="#000000" font-family="sans-serif" font-size="8.4" lengthAdjust="spacing" textLength="78.6" x="135" y="370.5645">-commentary : String</text><line style="stroke:#181818;stroke-width:0.3;" x1="132" x2="260.4" y1="375.0727" y2="375.0727"/></g><!--class LendingMapper--><g id="elem_LendingMapper"><rect codeLine="134" fill="#F1F1F1" height="51.1453" id="LendingMapper" rx="1.5" ry="1.5" style="stroke:#181818;stroke-width:0.3;" width="123.6" x="324.6" y="334.5"/><ellipse cx="354.15" cy="344.1" fill="#ADD1B2" rx="6.6" ry="6.6" style="stroke:#181818;stroke-width:0.6;"/><path d="M355.8094,341.625 Q355.9031,341.4938 356.0156,341.4281 Q356.1281,341.3625 356.2594,341.3625 Q356.4844,341.3625 356.625,341.5219 Q356.7656,341.6719 356.7656,342.0375 L356.7656,342.9094 Q356.7656,343.275 356.625,343.4344 Q356.4844,343.5938 356.2594,343.5938 Q356.0531,343.5938 355.9313,343.4719 Q355.8094,343.3594 355.7438,343.05 Q355.7156,342.8344 355.6031,342.7219 Q355.4063,342.4969 355.0406,342.3656 Q354.675,342.2344 354.3,342.2344 Q353.8406,342.2344 353.4563,342.4313 Q353.0813,342.6281 352.7813,343.0781 Q352.4906,343.5281 352.4906,344.1469 L352.4906,344.8031 Q352.4906,345.5438 353.025,346.0406 Q353.5594,346.5281 354.5156,346.5281 Q355.0781,346.5281 355.4719,346.3781 Q355.7063,346.2844 355.9594,346.0219 Q356.1188,345.8625 356.2031,345.8156 Q356.2969,345.7688 356.4188,345.7688 Q356.6156,345.7688 356.7656,345.9281 Q356.925,346.0781 356.925,346.2844 Q356.925,346.4906 356.7188,346.7344 Q356.4188,347.0813 355.9406,347.2781 Q355.2938,347.55 354.5156,347.55 Q353.6063,347.55 352.8844,347.175 Q352.2938,346.875 351.8812,346.2375 Q351.4688,345.5906 351.4688,344.8219 L351.4688,344.1281 Q351.4688,343.3313 351.8344,342.6469 Q352.2094,341.9531 352.8656,341.5875 Q353.5219,341.2125 354.2625,341.2125 Q354.7031,341.2125 355.0875,341.3156 Q355.4813,341.4094 355.8094,341.625 Z " fill="#000000"/><text fill="#000000" font-family="sans-serif" font-size="8.4" lengthAdjust="spacing" textLength="59.4" x="366.45" y="347.5781">LendingMapper</text><line style="stroke:#181818;stroke-width:0.3;" x1="325.2" x2="447.6" y1="353.7" y2="353.7"/><text fill="#000000" font-family="sans-serif" font-size="8.4" lengthAdjust="spacing" textLength="3" x="328.2" y="365.1645">-</text><line style="stroke:#181818;stroke-width:0.3;" x1="325.2" x2="447.6" y1="369.6727" y2="369.6727"/><text fill="#000000" font-family="sans-serif" font-size="8.4" lengthAdjust="spacing" textLength="116.4" x="328.2" y="381.1371">-create(lendingDTO) : Lending</text></g><!--reverse link LendingService to LendingServiceImpl--><g id="link_LendingService_LendingServiceImpl"><path d="M545.887,407.6094 C521.137,421.4574 503.808,432.426 480.6,449.4 C464.484,461.184 447.954,476.994 436.872,488.232 " fill="none" id="LendingService-backto-LendingServiceImpl" style="stroke:#181818;stroke-width:0.6;stroke-dasharray:7.0,7.0;"/><polygon fill="none" points="555.312,402.336,544.1292,404.4678,547.6448,410.7511,555.312,402.336" style="stroke:#181818;stroke-width:0.6;"/></g><!--reverse link Lending to Isbn--><g id="link_Lending_Isbn"><path codeLine="141" d="M323.598,716.4 C330.516,716.4 330.234,716.4 337.152,716.4 " fill="none" id="Lending-backto-Isbn" style="stroke:#181818;stroke-width:0.6;"/><polygon fill="none" points="316.398,716.4,319.998,718.8,323.598,716.4,319.998,714,316.398,716.4" style="stroke:#181818;stroke-width:0.6;"/></g><!--link ReaderNumber to Lending--><g id="link_ReaderNumber_Lending"><path codeLine="142" d="M327.444,270.768 C322.452,281.976 317.376,294.624 313.8,306.6 C281.616,414.438 298.416,447.006 271.2,556.2 C268.272,567.954 266.9545,573.1836 263.3665,585.2736 " fill="none" id="ReaderNumber-to-Lending" style="stroke:#181818;stroke-width:0.6;"/><polygon fill="none" points="261.318,592.176,264.643,589.4076,263.3665,585.2736,260.0414,588.042,261.318,592.176" style="stroke:#181818;stroke-width:0.6;"/></g><!--reverse link Lending to LendingNumber--><g id="link_Lending_LendingNumber"><path codeLine="143" d="M218.4,848.004 C218.4,865.188 218.4,874.338 218.4,887.82 " fill="none" id="Lending-backto-LendingNumber" style="stroke:#181818;stroke-width:0.6;"/><polygon fill="#181818" points="218.4,840.804,216,844.404,218.4,848.004,220.8,844.404,218.4,840.804" style="stroke:#181818;stroke-width:0.6;"/></g><!--link LendingNumber to Fine--><g id="link_LendingNumber_Fine"><path codeLine="144" d="M258.036,922.8 C265.014,922.8 264.792,922.8 271.77,922.8 " fill="none" id="LendingNumber-to-Fine" style="stroke:#181818;stroke-width:0.6;"/><polygon fill="none" points="278.97,922.8,275.37,920.4,271.77,922.8,275.37,925.2,278.97,922.8" style="stroke:#181818;stroke-width:0.6;"/></g><!--reverse link ReaderDetails to ReaderNumber--><g id="link_ReaderDetails_ReaderNumber"><path codeLine="145" d="M382.7393,153.0095 C375.3953,168.7595 368.598,183.33 360.354,200.994 " fill="none" id="ReaderDetails-backto-ReaderNumber" style="stroke:#181818;stroke-width:0.6;"/><polygon fill="#181818" points="385.782,146.484,382.0855,148.7325,382.7393,153.0095,386.4358,150.761,385.782,146.484" style="stroke:#181818;stroke-width:0.6;"/></g><!--link LendingController to LendingViewMapper--><g id="link_LendingController_LendingViewMapper"><path codeLine="147" d="M727.854,165.048 C760.902,180.264 793.932,195.4744 822.81,208.7704 " fill="none" id="LendingController-to-LendingViewMapper" style="stroke:#181818;stroke-width:0.6;stroke-dasharray:7.0,7.0;"/><polygon fill="#181818" points="826.08,210.276,822.1787,205.8376,823.355,209.0213,820.1712,210.1976,826.08,210.276" style="stroke:#181818;stroke-width:0.6;"/></g><!--link LendingController to LendingService--><g id="link_LendingController_LendingService"><path codeLine="148" d="M637.2,165.24 C637.2,208.236 637.2,271.122 637.2,314.052 " fill="none" id="LendingController-to-LendingService" style="stroke:#181818;stroke-width:0.6;stroke-dasharray:7.0,7.0;"/><polygon fill="#181818" points="637.2,317.652,639.6,312.252,637.2,314.652,634.8,312.252,637.2,317.652" style="stroke:#181818;stroke-width:0.6;"/></g><!--reverse link UserService to LendingController--><g id="link_UserService_LendingController"><path codeLine="149" d="M637.2,48.168 C637.2,58.488 637.2,67.944 637.2,80.382 " fill="none" id="UserService-backto-LendingController" style="stroke:#181818;stroke-width:0.6;stroke-dasharray:7.0,7.0;"/><polygon fill="#181818" points="637.2,44.568,634.8,49.968,637.2,47.568,639.6,49.968,637.2,44.568" style="stroke:#181818;stroke-width:0.6;"/></g><!--reverse link ReaderService to LendingController--><g id="link_ReaderService_LendingController"><path codeLine="150" d="M456.4669,45.8534 C480.9709,56.1914 508.728,67.902 538.332,80.394 " fill="none" id="ReaderService-backto-LendingController" style="stroke:#181818;stroke-width:0.6;stroke-dasharray:7.0,7.0;"/><polygon fill="#181818" points="453.15,44.454,457.1924,48.7643,455.9141,45.6201,459.0582,44.3418,453.15,44.454" style="stroke:#181818;stroke-width:0.6;"/></g><!--link LendingController to ConcurrencyService--><g id="link_LendingController_ConcurrencyService"><path codeLine="151" d="M798.18,122.7 C805.194,122.7 808.602,122.7 815.616,122.7 " fill="none" id="LendingController-to-ConcurrencyService" style="stroke:#181818;stroke-width:0.6;stroke-dasharray:7.0,7.0;"/><polygon fill="#181818" points="819.216,122.7,813.816,120.3,816.216,122.7,813.816,125.1,819.216,122.7" style="stroke:#181818;stroke-width:0.6;"/></g><!--link LendingServiceImpl to Lending--><g id="link_LendingServiceImpl_Lending"><path codeLine="153" d="M407.262,517.326 C387.516,534.378 353.568,564.42 326.4,592.2 C323.064,595.614 322.1766,596.4951 318.8046,600.0471 " fill="none" id="LendingServiceImpl-to-Lending" style="stroke:#181818;stroke-width:0.6;stroke-dasharray:7.0,7.0;"/><polygon fill="#181818" points="316.326,602.658,321.7844,600.3941,318.3915,600.4823,318.3033,597.0893,316.326,602.658" style="stroke:#181818;stroke-width:0.6;"/></g><!--link LendingServiceImpl to FineRepository--><g id="link_LendingServiceImpl_FineRepository"><path codeLine="154" d="M438.192,517.26 C449.61,528.018 465.954,543.24 480.6,556.2 C499.164,572.628 508.716,572.082 523.2,592.2 C546.75,624.906 560.1428,666.9692 566.8628,692.6552 " fill="none" id="LendingServiceImpl-to-FineRepository" style="stroke:#181818;stroke-width:0.6;stroke-dasharray:7.0,7.0;"/><polygon fill="#181818" points="567.774,696.138,568.7291,690.3064,567.0147,693.2357,564.0854,691.5213,567.774,696.138" style="stroke:#181818;stroke-width:0.6;"/></g><!--link ReaderService to ReaderDetails--><g id="link_ReaderService_ReaderDetails"><path codeLine="156" d="M404.736,44.568 C403.086,60.27 401.1521,78.7217 399.4121,95.2877 " fill="none" id="ReaderService-to-ReaderDetails" style="stroke:#181818;stroke-width:0.6;stroke-dasharray:7.0,7.0;"/><polygon fill="#181818" points="399.036,98.868,401.987,93.7482,399.3494,95.8844,397.2132,93.2468,399.036,98.868" style="stroke:#181818;stroke-width:0.6;"/></g><!--reverse link ReaderDetails to LendingController--><g id="link_ReaderDetails_LendingController"><path codeLine="157" d="M458.706,122.7 C465.762,122.7 469.212,122.7 476.268,122.7 " fill="none" id="ReaderDetails-backto-LendingController" style="stroke:#181818;stroke-width:0.6;stroke-dasharray:7.0,7.0;"/><polygon fill="#181818" points="455.106,122.7,460.506,125.1,458.106,122.7,460.506,120.3,455.106,122.7" style="stroke:#181818;stroke-width:0.6;"/></g><!--reverse link LendingRepository to LendingServiceImpl--><g id="link_LendingRepository_LendingServiceImpl"><path codeLine="159" d="M264.648,502.8 C303.33,502.8 338.406,502.8 377.088,502.8 " fill="none" id="LendingRepository-backto-LendingServiceImpl" style="stroke:#181818;stroke-width:0.6;stroke-dasharray:7.0,7.0;"/><polygon fill="#181818" points="261.048,502.8,266.448,505.2,264.048,502.8,266.448,500.4,261.048,502.8" style="stroke:#181818;stroke-width:0.6;"/></g><!--link LendingServiceImpl to ReaderRepository--><g id="link_LendingServiceImpl_ReaderRepository"><path codeLine="160" d="M426.078,517.338 C432.624,554.112 449.7473,650.3237 457.2953,692.7437 " fill="none" id="LendingServiceImpl-to-ReaderRepository" style="stroke:#181818;stroke-width:0.6;stroke-dasharray:7.0,7.0;"/><polygon fill="#181818" points="457.926,696.288,459.3429,690.5511,457.4005,693.3344,454.6171,691.3919,457.926,696.288" style="stroke:#181818;stroke-width:0.6;"/></g><!--link LendingServiceImpl to BookRepository--><g id="link_LendingServiceImpl_BookRepository"><path codeLine="161" d="M470.166,502.8 C477.138,502.8 480.51,502.8 487.476,502.8 " fill="none" id="LendingServiceImpl-to-BookRepository" style="stroke:#181818;stroke-width:0.6;stroke-dasharray:7.0,7.0;"/><polygon fill="#181818" points="491.076,502.8,485.676,500.4,488.076,502.8,485.676,505.2,491.076,502.8" style="stroke:#181818;stroke-width:0.6;"/></g><!--reverse link LendingMapper to LendingServiceImpl--><g id="link_LendingMapper_LendingServiceImpl"><path codeLine="163" d="M393.8789,389.0718 C401.7449,419.0058 413.724,464.598 419.976,488.394 " fill="none" id="LendingMapper-backto-LendingServiceImpl" style="stroke:#181818;stroke-width:0.6;stroke-dasharray:7.0,7.0;"/><polygon fill="#181818" points="392.964,385.59,392.0152,391.4226,393.7264,388.4915,396.6576,390.2027,392.964,385.59" style="stroke:#181818;stroke-width:0.6;"/></g><!--reverse link SetLendingReturnedRequest to LendingMapper--><g id="link_SetLendingReturnedRequest_LendingMapper"><path codeLine="164" d="M264.624,360 C285.762,360 303.306,360 324.444,360 " fill="none" id="SetLendingReturnedRequest-backto-LendingMapper" style="stroke:#181818;stroke-width:0.6;stroke-dasharray:7.0,7.0;"/><polygon fill="#181818" points="261.024,360,266.424,362.4,264.024,360,266.424,357.6,261.024,360" style="stroke:#181818;stroke-width:0.6;"/></g><!--link LendingViewMapper to LendingView--><g id="link_LendingViewMapper_LendingView"><path codeLine="166" d="M880.2,261.588 C880.2,274.59 880.2,287.364 880.2,302.982 " fill="none" id="LendingViewMapper-to-LendingView" style="stroke:#181818;stroke-width:0.6;stroke-dasharray:7.0,7.0;"/><polygon fill="#181818" points="880.2,306.582,882.6,301.182,880.2,303.582,877.8,301.182,880.2,306.582" style="stroke:#181818;stroke-width:0.6;"/></g><!--link LendingViewMapper to LendingsAverageDurationView--><g id="link_LendingViewMapper_LendingsAverageDurationView"><path codeLine="167" d="M909.27,261.438 C936.18,284.616 972.9203,316.2626 997.5803,337.5026 " fill="none" id="LendingViewMapper-to-LendingsAverageDurationView" style="stroke:#181818;stroke-width:0.6;stroke-dasharray:7.0,7.0;"/><polygon fill="#181818" points="1000.308,339.852,997.7827,334.5094,998.0349,337.8942,994.6502,338.1464,1000.308,339.852" style="stroke:#181818;stroke-width:0.6;"/></g><!--SRC=[hLTDR-Cs4BthL-XMTHi5FGU6WCH6K0FTfaXs0_H8InE724sg9EM56_I_TqXH4h_iRO3DmR4uZyFvUFD4__HAEoXRAbi6XNgZl2UI7CgM4QLkjPPqDsZOje8_qN-W_BKehANy7NX7-Nujk9Q2CP3bUr7YtozbAu5egCP_3lO8Vm-WzC_bpRJncS8tj-65ykxkvDR_60uxa1Lkxa2E3_bT2lJiN0-IGrSntyLL1d4nZ3tes-D-CqYYgU2L1rAtHv1a3vCjtFI0ncwOCbLLZqYxcIgzyevfYd-BWkoKbgJLPL15O_vC-jwheXQURSei7tWMQau_6qLok3ksBeCIulOd903VE-DEYBSlL3E83KeJgJVORdEWQ0aptoUFz43FsJfoKb-vfcni42AsNCCUf6TtvKrio1fu9co0BLy3rye3n1dc-XTd76EM5D4RHSVoXRGmUNm2UQJu675-dU5yAK69GRRWDUy2yST3mpwOdG-zYOgmgPVDCWOVvlzLsO6Y4hfda0gzff7PMGZgOUV1QxfF_IpbKwAvecqFFIifVi31zYsqleVr_gf0niKsmGtw5JVJ5ilT6Kn5bXMNaLaEdJrQKOdTZLqmQ4uEK0tkIr3qSUS6DA5CUPcX_BM3bC3RKoPALzvxAGxRbyz4jw-_MJyLzPziuSH8j9HfZz0BHRMGfmyAx0ME_MzoCUpdmw1nlEtotUdHa-LKeuFkEtgI8sJKQwdHMWnScmgjRHtrNq2avHfMuZ8PDsBOCVW06HCcP6exbclRXSc5DBf36RoqbQeTZxRSerXbjjZg624pyHfCCZFbQcLOhKzDCmbM_pOH9XNVCxhhBKih1UdwSUGgBhB5TIiEPaO9XXmf_WzMRjFiAPr5q4nujjL7GRl5l0dFFeEOw11OBL6CTGECd50o4wRbdC_ZuV9eGhX_qWNeVPJsz_3Xp2Rowmj_AETNNj_Ix0Cfisw3bOI1xYgmMXrDx4qplpWbx772vCbCR7ap5R4kkRixB6NLOepSJs8-PelJidYVd9iPka5gXzWWqcGqlFJIeaK-ugn-S5AcrvdHRKtVBGSysk544zgLDtYxOixtq7T8VGki4EPFKzhG4HOIcQe_qQTTj6xdm9xEtGdUBunyJ8dngZhl65z7JkGtNnvYdQyBgxwJeedQzjnxPl2Yww0ni_5JtObll0x9M8JKh2NTl-fQZ0eQSkHJvBT8VxTSNpVfFJoBMu3kPPz33Jt2l6jB3cCIHbHm7ydXcim5Oqx1lqvvePqpXw-WeWWlGzTpE9CEV2_i2PSzpo6JEyovuEBtSHPdsupWyFsR3y1s8Q1h4JpD8PuTYDclz-CieifbHFPNuty0]--></g></svg>