<?xml version="1.0" encoding="us-ascii" standalone="no"?><svg xmlns="http://www.w3.org/2000/svg" xmlns:xlink="http://www.w3.org/1999/xlink" contentStyleType="text/css" height="481px" preserveAspectRatio="none" style="width:834px;height:481px;background:#FFFFFF;" version="1.1" viewBox="0 0 834 481" width="834px" zoomAndPan="magnify"><defs/><g><text fill="#000000" font-family="sans-serif" font-size="14" font-weight="bold" lengthAdjust="spacing" textLength="252" x="290.25" y="29.9659">GET book details by Isbn as librarian</text><rect fill="#FFFFFF" height="254.6481" style="stroke:#181818;stroke-width:1.0;" width="10" x="33.5" y="134.1358"/><rect fill="#FFFFFF" height="221.9421" style="stroke:#181818;stroke-width:1.0;" width="10" x="284.5" y="157.8419"/><rect fill="#FFFFFF" height="158.5301" style="stroke:#181818;stroke-width:1.0;" width="10" x="413.5" y="189.5479"/><rect fill="#FFFFFF" height="95.118" style="stroke:#181818;stroke-width:1.0;" width="10" x="575.5" y="221.2539"/><rect fill="#FFFFFF" height="31.706" style="stroke:#181818;stroke-width:1.0;" width="10" x="743" y="252.9599"/><line style="stroke:#181818;stroke-width:0.5;stroke-dasharray:5.0,5.0;" x1="38" x2="38" y1="124.1358" y2="397.784"/><line style="stroke:#181818;stroke-width:0.5;stroke-dasharray:5.0,5.0;" x1="289" x2="289" y1="124.1358" y2="397.784"/><line style="stroke:#181818;stroke-width:0.5;stroke-dasharray:5.0,5.0;" x1="418.5" x2="418.5" y1="124.1358" y2="397.784"/><line style="stroke:#181818;stroke-width:0.5;stroke-dasharray:5.0,5.0;" x1="580.5" x2="580.5" y1="124.1358" y2="397.784"/><line style="stroke:#181818;stroke-width:0.5;stroke-dasharray:5.0,5.0;" x1="747.5" x2="747.5" y1="124.1358" y2="397.784"/><text fill="#000000" font-family="sans-serif" font-size="14" lengthAdjust="spacing" textLength="61" x="5" y="120.0339">Librarian</text><ellipse cx="38.5" cy="53.5679" fill="#E2E2F0" rx="8" ry="8" style="stroke:#181818;stroke-width:0.5;"/><path d="M38.5,61.5679 L38.5,88.5679 M25.5,69.5679 L51.5,69.5679 M38.5,88.5679 L25.5,103.5679 M38.5,88.5679 L51.5,103.5679 " fill="none" style="stroke:#181818;stroke-width:0.5;"/><text fill="#000000" font-family="sans-serif" font-size="14" lengthAdjust="spacing" textLength="61" x="5" y="411.7499">Librarian</text><ellipse cx="38.5" cy="424.3519" fill="#E2E2F0" rx="8" ry="8" style="stroke:#181818;stroke-width:0.5;"/><path d="M38.5,432.3519 L38.5,459.3519 M25.5,440.3519 L51.5,440.3519 M38.5,459.3519 L25.5,474.3519 M38.5,459.3519 L51.5,474.3519 " fill="none" style="stroke:#181818;stroke-width:0.5;"/><rect fill="#E2E2F0" height="33.0679" rx="2.5" ry="2.5" style="stroke:#181818;stroke-width:0.5;" width="47" x="266" y="90.0679"/><text fill="#000000" font-family="sans-serif" font-size="14" lengthAdjust="spacing" textLength="33" x="273" y="112.0339">:Rest</text><rect fill="#E2E2F0" height="33.0679" rx="2.5" ry="2.5" style="stroke:#181818;stroke-width:0.5;" width="47" x="266" y="396.784"/><text fill="#000000" font-family="sans-serif" font-size="14" lengthAdjust="spacing" textLength="33" x="273" y="418.7499">:Rest</text><rect fill="#E2E2F0" height="33.0679" rx="2.5" ry="2.5" style="stroke:#181818;stroke-width:0.5;" width="150" x="343.5" y="90.0679"/><text fill="#000000" font-family="sans-serif" font-size="14" lengthAdjust="spacing" textLength="136" x="350.5" y="112.0339">Ctrl:GenreController</text><rect fill="#E2E2F0" height="33.0679" rx="2.5" ry="2.5" style="stroke:#181818;stroke-width:0.5;" width="150" x="343.5" y="396.784"/><text fill="#000000" font-family="sans-serif" font-size="14" lengthAdjust="spacing" textLength="136" x="350.5" y="418.7499">Ctrl:GenreController</text><rect fill="#E2E2F0" height="33.0679" rx="2.5" ry="2.5" style="stroke:#181818;stroke-width:0.5;" width="154" x="503.5" y="90.0679"/><text fill="#000000" font-family="sans-serif" font-size="14" lengthAdjust="spacing" textLength="140" x="510.5" y="112.0339">service:GenreService</text><rect fill="#E2E2F0" height="33.0679" rx="2.5" ry="2.5" style="stroke:#181818;stroke-width:0.5;" width="154" x="503.5" y="396.784"/><text fill="#000000" font-family="sans-serif" font-size="14" lengthAdjust="spacing" textLength="140" x="510.5" y="418.7499">service:GenreService</text><rect fill="#E2E2F0" height="33.0679" rx="2.5" ry="2.5" style="stroke:#181818;stroke-width:0.5;" width="161" x="667.5" y="90.0679"/><text fill="#000000" font-family="sans-serif" font-size="14" lengthAdjust="spacing" textLength="147" x="674.5" y="112.0339">repo:GenreRepository</text><rect fill="#E2E2F0" height="33.0679" rx="2.5" ry="2.5" style="stroke:#181818;stroke-width:0.5;" width="161" x="667.5" y="396.784"/><text fill="#000000" font-family="sans-serif" font-size="14" lengthAdjust="spacing" textLength="147" x="674.5" y="418.7499">repo:GenreRepository</text><rect fill="#FFFFFF" height="254.6481" style="stroke:#181818;stroke-width:1.0;" width="10" x="33.5" y="134.1358"/><rect fill="#FFFFFF" height="221.9421" style="stroke:#181818;stroke-width:1.0;" width="10" x="284.5" y="157.8419"/><rect fill="#FFFFFF" height="158.5301" style="stroke:#181818;stroke-width:1.0;" width="10" x="413.5" y="189.5479"/><rect fill="#FFFFFF" height="95.118" style="stroke:#181818;stroke-width:1.0;" width="10" x="575.5" y="221.2539"/><rect fill="#FFFFFF" height="31.706" style="stroke:#181818;stroke-width:1.0;" width="10" x="743" y="252.9599"/><polygon fill="#181818" points="272.5,153.8419,282.5,157.8419,272.5,161.8419,276.5,157.8419" style="stroke:#181818;stroke-width:1.0;"/><line style="stroke:#181818;stroke-width:1.0;" x1="43.5" x2="278.5" y1="157.8419" y2="157.8419"/><text fill="#000000" font-family="sans-serif" font-size="13" font-weight="bold" lengthAdjust="spacing" textLength="7" x="50.5" y="152.0328">1</text><text fill="#000000" font-family="sans-serif" font-size="13" lengthAdjust="spacing" textLength="211" x="61.5" y="152.0328">requests the top 5 genres by books</text><polygon fill="#181818" points="401.5,185.5479,411.5,189.5479,401.5,193.5479,405.5,189.5479" style="stroke:#181818;stroke-width:1.0;"/><line style="stroke:#181818;stroke-width:1.0;" x1="294.5" x2="407.5" y1="189.5479" y2="189.5479"/><text fill="#000000" font-family="sans-serif" font-size="13" font-weight="bold" lengthAdjust="spacing" textLength="7" x="301.5" y="183.7389">2</text><text fill="#000000" font-family="sans-serif" font-size="13" lengthAdjust="spacing" textLength="41" x="312.5" y="183.7389">Top5();</text><polygon fill="#181818" points="563.5,217.2539,573.5,221.2539,563.5,225.2539,567.5,221.2539" style="stroke:#181818;stroke-width:1.0;"/><line style="stroke:#181818;stroke-width:1.0;" x1="423.5" x2="569.5" y1="221.2539" y2="221.2539"/><text fill="#000000" font-family="sans-serif" font-size="13" font-weight="bold" lengthAdjust="spacing" textLength="7" x="430.5" y="215.4449">3</text><text fill="#000000" font-family="sans-serif" font-size="13" lengthAdjust="spacing" textLength="120" x="441.5" y="215.4449">getTop5(GenreDTO)</text><polygon fill="#181818" points="731,248.9599,741,252.9599,731,256.9599,735,252.9599" style="stroke:#181818;stroke-width:1.0;"/><line style="stroke:#181818;stroke-width:1.0;" x1="585.5" x2="737" y1="252.9599" y2="252.9599"/><text fill="#000000" font-family="sans-serif" font-size="13" font-weight="bold" lengthAdjust="spacing" textLength="7" x="592.5" y="247.1509">4</text><text fill="#000000" font-family="sans-serif" font-size="13" lengthAdjust="spacing" textLength="93" x="603.5" y="247.1509">getTop5(genre)</text><polygon fill="#181818" points="596.5,280.6659,586.5,284.6659,596.5,288.6659,592.5,284.6659" style="stroke:#181818;stroke-width:1.0;"/><line style="stroke:#181818;stroke-width:1.0;stroke-dasharray:2.0,2.0;" x1="590.5" x2="747" y1="284.6659" y2="284.6659"/><text fill="#000000" font-family="sans-serif" font-size="13" font-weight="bold" lengthAdjust="spacing" textLength="7" x="602.5" y="278.8569">5</text><text fill="#000000" font-family="sans-serif" font-size="13" lengthAdjust="spacing" textLength="84" x="613.5" y="278.8569">genre or error</text><polygon fill="#181818" points="434.5,312.3719,424.5,316.3719,434.5,320.3719,430.5,316.3719" style="stroke:#181818;stroke-width:1.0;"/><line style="stroke:#181818;stroke-width:1.0;stroke-dasharray:2.0,2.0;" x1="428.5" x2="579.5" y1="316.3719" y2="316.3719"/><text fill="#000000" font-family="sans-serif" font-size="13" font-weight="bold" lengthAdjust="spacing" textLength="7" x="440.5" y="310.5629">6</text><text fill="#000000" font-family="sans-serif" font-size="13" lengthAdjust="spacing" textLength="84" x="451.5" y="310.5629">genre or error</text><polygon fill="#181818" points="305.5,344.0779,295.5,348.0779,305.5,352.0779,301.5,348.0779" style="stroke:#181818;stroke-width:1.0;"/><line style="stroke:#181818;stroke-width:1.0;stroke-dasharray:2.0,2.0;" x1="299.5" x2="417.5" y1="348.0779" y2="348.0779"/><text fill="#000000" font-family="sans-serif" font-size="13" font-weight="bold" lengthAdjust="spacing" textLength="7" x="311.5" y="342.2689">7</text><text fill="#000000" font-family="sans-serif" font-size="13" lengthAdjust="spacing" textLength="84" x="322.5" y="342.2689">genre or error</text><polygon fill="#181818" points="54.5,375.784,44.5,379.784,54.5,383.784,50.5,379.784" style="stroke:#181818;stroke-width:1.0;"/><line style="stroke:#181818;stroke-width:1.0;stroke-dasharray:2.0,2.0;" x1="48.5" x2="288.5" y1="379.784" y2="379.784"/><text fill="#000000" font-family="sans-serif" font-size="13" font-weight="bold" lengthAdjust="spacing" textLength="7" x="60.5" y="373.975">8</text><text fill="#000000" font-family="sans-serif" font-size="13" lengthAdjust="spacing" textLength="92" x="71.5" y="373.975">get top 5 genre</text><!--SRC=[NL3BJWCn3BpxAwnUe8UofruMYKj15H8IKYaVaDrQRKGs3ewtKl-UF9R2zXBPdibundSdrH3RfWdEU1q7zz3pq4Jw7idtj3fOSnGpW1cLJQ_sR9IGVUdzE7Ga06hL4MvVzjWnV-61r5WNiRlWQ-myceZETcB46W-GH5XmyVOxMMJyCoQTO4HjRqEoWOjsHr4Bbeivjb5nxPQyq8Qz2Zj7KgWPc5EJxjdsLDaVjIdKgPwpXG9NwYvLqIQdbyb3u6AzvYzs8R-uUYe6MvHyiQWHzKIe772DnwnKxf3l4W4oC_ye0N3FONs_V0J8RHvFdjhqKGjOh3pltvSmGNLTCdcbb1rBo4DSpJKIWEdK9CBo9t1TVqEe9gvnRj3gFA4vTDd-FoFy0000]--></g></svg>