<?xml version="1.0" encoding="us-ascii" standalone="no"?><svg xmlns="http://www.w3.org/2000/svg" xmlns:xlink="http://www.w3.org/1999/xlink" contentStyleType="text/css" height="1155px" preserveAspectRatio="none" style="width:1683px;height:1155px;background:#FFFFFF;" version="1.1" viewBox="0 0 1683 1155" width="1683px" zoomAndPan="magnify"><defs/><g><text fill="#000000" font-family="sans-serif" font-size="14" font-weight="bold" lengthAdjust="spacing" textLength="256" x="712.5" y="29.9659">Register a new reader as anonymous</text><rect fill="#FFFFFF" height="928.4745" style="stroke:#181818;stroke-width:1.0;" width="10" x="42.5" y="134.1358"/><rect fill="#FFFFFF" height="904.7685" style="stroke:#181818;stroke-width:1.0;" width="10" x="373.5" y="157.8419"/><rect fill="#FFFFFF" height="719.5324" style="stroke:#181818;stroke-width:1.0;" width="10" x="378.5" y="343.0779"/><rect fill="#FFFFFF" height="559.0023" style="stroke:#181818;stroke-width:1.0;" width="10" x="383.5" y="503.608"/><rect fill="#FFFFFF" height="357.7662" style="stroke:#181818;stroke-width:1.0;" width="10" x="388.5" y="695.8441"/><rect fill="#FFFFFF" height="793.6504" style="stroke:#181818;stroke-width:1.0;" width="10" x="652.5" y="189.5479"/><rect fill="#FFFFFF" height="63.412" style="stroke:#181818;stroke-width:1.0;" width="10" x="861.5" y="221.2539"/><rect fill="#FFFFFF" height="95.118" style="stroke:#181818;stroke-width:1.0;" width="10" x="861.5" y="542.314"/><rect fill="#FFFFFF" height="63.412" style="stroke:#181818;stroke-width:1.0;" width="10" x="861.5" y="888.0802"/><rect fill="#FFFFFF" height="31.706" style="stroke:#181818;stroke-width:1.0;" width="10" x="1051" y="574.0201"/><rect fill="#FFFFFF" height="142.8241" style="stroke:#181818;stroke-width:1.0;" width="10" x="1051" y="919.7862"/><rect fill="#FFFFFF" height="809.6504" style="stroke:#181818;stroke-width:1.0;" width="10" x="1177.5" y="252.9599"/><rect fill="#FFFFFF" height="63.412" style="stroke:#181818;stroke-width:1.0;" width="10" x="1292.5" y="381.784"/><rect fill="#FFFFFF" height="95.118" style="stroke:#181818;stroke-width:1.0;" width="10" x="1292.5" y="734.5501"/><rect fill="#FFFFFF" height="31.706" style="stroke:#181818;stroke-width:1.0;" width="10" x="1467" y="766.2562"/><rect fill="#FFFFFF" height="649.1203" style="stroke:#181818;stroke-width:1.0;" width="10" x="1616.5" y="413.49"/><rect fill="none" height="51.412" style="stroke:#000000;stroke-width:1.5;" width="410.5" x="335.5" y="299.6659"/><rect fill="none" height="51.412" style="stroke:#000000;stroke-width:1.5;" width="410.5" x="335.5" y="460.196"/><rect fill="none" height="51.412" style="stroke:#000000;stroke-width:1.5;" width="410.5" x="335.5" y="652.4321"/><rect fill="none" height="146.5301" style="stroke:#000000;stroke-width:1.5;" width="822.5" x="335.5" y="844.6682"/><line style="stroke:#181818;stroke-width:0.5;stroke-dasharray:5.0,5.0;" x1="47" x2="47" y1="124.1358" y2="1071.6103"/><line style="stroke:#181818;stroke-width:0.5;stroke-dasharray:5.0,5.0;" x1="378.5" x2="378.5" y1="124.1358" y2="1071.6103"/><line style="stroke:#181818;stroke-width:0.5;stroke-dasharray:5.0,5.0;" x1="657" x2="657" y1="124.1358" y2="1071.6103"/><line style="stroke:#181818;stroke-width:0.5;stroke-dasharray:5.0,5.0;" x1="866" x2="866" y1="124.1358" y2="1071.6103"/><line style="stroke:#181818;stroke-width:0.5;stroke-dasharray:5.0,5.0;" x1="1056" x2="1056" y1="124.1358" y2="1071.6103"/><line style="stroke:#181818;stroke-width:0.5;stroke-dasharray:5.0,5.0;" x1="1182" x2="1182" y1="124.1358" y2="1071.6103"/><line style="stroke:#181818;stroke-width:0.5;stroke-dasharray:5.0,5.0;" x1="1297" x2="1297" y1="124.1358" y2="1071.6103"/><line style="stroke:#181818;stroke-width:0.5;stroke-dasharray:5.0,5.0;" x1="1472" x2="1472" y1="124.1358" y2="1071.6103"/><line style="stroke:#181818;stroke-width:0.5;stroke-dasharray:5.0,5.0;" x1="1621" x2="1621" y1="124.1358" y2="1071.6103"/><text fill="#000000" font-family="sans-serif" font-size="14" lengthAdjust="spacing" textLength="79" x="5" y="120.0339">Anonymous</text><ellipse cx="47.5" cy="53.5679" fill="#E2E2F0" rx="8" ry="8" style="stroke:#181818;stroke-width:0.5;"/><path d="M47.5,61.5679 L47.5,88.5679 M34.5,69.5679 L60.5,69.5679 M47.5,88.5679 L34.5,103.5679 M47.5,88.5679 L60.5,103.5679 " fill="none" style="stroke:#181818;stroke-width:0.5;"/><text fill="#000000" font-family="sans-serif" font-size="14" lengthAdjust="spacing" textLength="79" x="5" y="1085.5762">Anonymous</text><ellipse cx="47.5" cy="1098.1782" fill="#E2E2F0" rx="8" ry="8" style="stroke:#181818;stroke-width:0.5;"/><path d="M47.5,1106.1782 L47.5,1133.1782 M34.5,1114.1782 L60.5,1114.1782 M47.5,1133.1782 L34.5,1148.1782 M47.5,1133.1782 L60.5,1148.1782 " fill="none" style="stroke:#181818;stroke-width:0.5;"/><rect fill="#E2E2F0" height="33.0679" rx="2.5" ry="2.5" style="stroke:#181818;stroke-width:0.5;" width="66" x="345.5" y="90.0679"/><text fill="#000000" font-family="sans-serif" font-size="14" lengthAdjust="spacing" textLength="52" x="352.5" y="112.0339">:System</text><rect fill="#E2E2F0" height="33.0679" rx="2.5" ry="2.5" style="stroke:#181818;stroke-width:0.5;" width="66" x="345.5" y="1070.6103"/><text fill="#000000" font-family="sans-serif" font-size="14" lengthAdjust="spacing" textLength="52" x="352.5" y="1092.5762">:System</text><rect fill="#E2E2F0" height="33.0679" rx="2.5" ry="2.5" style="stroke:#181818;stroke-width:0.5;" width="157" x="579" y="90.0679"/><text fill="#000000" font-family="sans-serif" font-size="14" lengthAdjust="spacing" textLength="143" x="586" y="112.0339">Ctrl:ReaderController</text><rect fill="#E2E2F0" height="33.0679" rx="2.5" ry="2.5" style="stroke:#181818;stroke-width:0.5;" width="157" x="579" y="1070.6103"/><text fill="#000000" font-family="sans-serif" font-size="14" lengthAdjust="spacing" textLength="143" x="586" y="1092.5762">Ctrl:ReaderController</text><rect fill="#E2E2F0" height="33.0679" rx="2.5" ry="2.5" style="stroke:#181818;stroke-width:0.5;" width="175" x="779" y="90.0679"/><text fill="#000000" font-family="sans-serif" font-size="14" lengthAdjust="spacing" textLength="161" x="786" y="112.0339">userService:UserService</text><rect fill="#E2E2F0" height="33.0679" rx="2.5" ry="2.5" style="stroke:#181818;stroke-width:0.5;" width="175" x="779" y="1070.6103"/><text fill="#000000" font-family="sans-serif" font-size="14" lengthAdjust="spacing" textLength="161" x="786" y="1092.5762">userService:UserService</text><rect fill="#E2E2F0" height="33.0679" rx="2.5" ry="2.5" style="stroke:#181818;stroke-width:0.5;" width="184" x="964" y="90.0679"/><text fill="#000000" font-family="sans-serif" font-size="14" lengthAdjust="spacing" textLength="170" x="971" y="112.0339">userRepo:UserRepository</text><rect fill="#E2E2F0" height="33.0679" rx="2.5" ry="2.5" style="stroke:#181818;stroke-width:0.5;" width="184" x="964" y="1070.6103"/><text fill="#000000" font-family="sans-serif" font-size="14" lengthAdjust="spacing" textLength="170" x="971" y="1092.5762">userRepo:UserRepository</text><rect fill="#E2E2F0" height="33.0679" rx="2.5" ry="2.5" style="stroke:#181818;stroke-width:0.5;" width="49" x="1158" y="90.0679"/><text fill="#000000" font-family="sans-serif" font-size="14" lengthAdjust="spacing" textLength="35" x="1165" y="112.0339">:User</text><rect fill="#E2E2F0" height="33.0679" rx="2.5" ry="2.5" style="stroke:#181818;stroke-width:0.5;" width="49" x="1158" y="1070.6103"/><text fill="#000000" font-family="sans-serif" font-size="14" lengthAdjust="spacing" textLength="35" x="1165" y="1092.5762">:User</text><rect fill="#E2E2F0" height="33.0679" rx="2.5" ry="2.5" style="stroke:#181818;stroke-width:0.5;" width="161" x="1217" y="90.0679"/><text fill="#000000" font-family="sans-serif" font-size="14" lengthAdjust="spacing" textLength="147" x="1224" y="112.0339">service:ReaderService</text><rect fill="#E2E2F0" height="33.0679" rx="2.5" ry="2.5" style="stroke:#181818;stroke-width:0.5;" width="161" x="1217" y="1070.6103"/><text fill="#000000" font-family="sans-serif" font-size="14" lengthAdjust="spacing" textLength="147" x="1224" y="1092.5762">service:ReaderService</text><rect fill="#E2E2F0" height="33.0679" rx="2.5" ry="2.5" style="stroke:#181818;stroke-width:0.5;" width="168" x="1388" y="90.0679"/><text fill="#000000" font-family="sans-serif" font-size="14" lengthAdjust="spacing" textLength="154" x="1395" y="112.0339">repo:ReaderRepository</text><rect fill="#E2E2F0" height="33.0679" rx="2.5" ry="2.5" style="stroke:#181818;stroke-width:0.5;" width="168" x="1388" y="1070.6103"/><text fill="#000000" font-family="sans-serif" font-size="14" lengthAdjust="spacing" textLength="154" x="1395" y="1092.5762">repo:ReaderRepository</text><rect fill="#E2E2F0" height="33.0679" rx="2.5" ry="2.5" style="stroke:#181818;stroke-width:0.5;" width="111" x="1566" y="90.0679"/><text fill="#000000" font-family="sans-serif" font-size="14" lengthAdjust="spacing" textLength="97" x="1573" y="112.0339">reader:Reader</text><rect fill="#E2E2F0" height="33.0679" rx="2.5" ry="2.5" style="stroke:#181818;stroke-width:0.5;" width="111" x="1566" y="1070.6103"/><text fill="#000000" font-family="sans-serif" font-size="14" lengthAdjust="spacing" textLength="97" x="1573" y="1092.5762">reader:Reader</text><rect fill="#FFFFFF" height="928.4745" style="stroke:#181818;stroke-width:1.0;" width="10" x="42.5" y="134.1358"/><rect fill="#FFFFFF" height="904.7685" style="stroke:#181818;stroke-width:1.0;" width="10" x="373.5" y="157.8419"/><rect fill="#FFFFFF" height="719.5324" style="stroke:#181818;stroke-width:1.0;" width="10" x="378.5" y="343.0779"/><rect fill="#FFFFFF" height="559.0023" style="stroke:#181818;stroke-width:1.0;" width="10" x="383.5" y="503.608"/><rect fill="#FFFFFF" height="357.7662" style="stroke:#181818;stroke-width:1.0;" width="10" x="388.5" y="695.8441"/><rect fill="#FFFFFF" height="793.6504" style="stroke:#181818;stroke-width:1.0;" width="10" x="652.5" y="189.5479"/><rect fill="#FFFFFF" height="63.412" style="stroke:#181818;stroke-width:1.0;" width="10" x="861.5" y="221.2539"/><rect fill="#FFFFFF" height="95.118" style="stroke:#181818;stroke-width:1.0;" width="10" x="861.5" y="542.314"/><rect fill="#FFFFFF" height="63.412" style="stroke:#181818;stroke-width:1.0;" width="10" x="861.5" y="888.0802"/><rect fill="#FFFFFF" height="31.706" style="stroke:#181818;stroke-width:1.0;" width="10" x="1051" y="574.0201"/><rect fill="#FFFFFF" height="142.8241" style="stroke:#181818;stroke-width:1.0;" width="10" x="1051" y="919.7862"/><rect fill="#FFFFFF" height="809.6504" style="stroke:#181818;stroke-width:1.0;" width="10" x="1177.5" y="252.9599"/><rect fill="#FFFFFF" height="63.412" style="stroke:#181818;stroke-width:1.0;" width="10" x="1292.5" y="381.784"/><rect fill="#FFFFFF" height="95.118" style="stroke:#181818;stroke-width:1.0;" width="10" x="1292.5" y="734.5501"/><rect fill="#FFFFFF" height="31.706" style="stroke:#181818;stroke-width:1.0;" width="10" x="1467" y="766.2562"/><rect fill="#FFFFFF" height="649.1203" style="stroke:#181818;stroke-width:1.0;" width="10" x="1616.5" y="413.49"/><polygon fill="#181818" points="361.5,153.8419,371.5,157.8419,361.5,161.8419,365.5,157.8419" style="stroke:#181818;stroke-width:1.0;"/><line style="stroke:#181818;stroke-width:1.0;" x1="52.5" x2="367.5" y1="157.8419" y2="157.8419"/><text fill="#000000" font-family="sans-serif" font-size="13" font-weight="bold" lengthAdjust="spacing" textLength="7" x="59.5" y="152.0328">1</text><text fill="#000000" font-family="sans-serif" font-size="13" lengthAdjust="spacing" textLength="291" x="70.5" y="152.0328">requests reader registration based on given data</text><polygon fill="#181818" points="640.5,185.5479,650.5,189.5479,640.5,193.5479,644.5,189.5479" style="stroke:#181818;stroke-width:1.0;"/><line style="stroke:#181818;stroke-width:1.0;" x1="383.5" x2="646.5" y1="189.5479" y2="189.5479"/><text fill="#000000" font-family="sans-serif" font-size="13" font-weight="bold" lengthAdjust="spacing" textLength="7" x="390.5" y="183.7389">2</text><text fill="#000000" font-family="sans-serif" font-size="13" lengthAdjust="spacing" textLength="239" x="401.5" y="183.7389">registerReader(RegisterReaderRequest);</text><polygon fill="#181818" points="849.5,217.2539,859.5,221.2539,849.5,225.2539,853.5,221.2539" style="stroke:#181818;stroke-width:1.0;"/><line style="stroke:#181818;stroke-width:1.0;" x1="662.5" x2="855.5" y1="221.2539" y2="221.2539"/><text fill="#000000" font-family="sans-serif" font-size="13" font-weight="bold" lengthAdjust="spacing" textLength="7" x="669.5" y="215.4449">3</text><text fill="#000000" font-family="sans-serif" font-size="13" lengthAdjust="spacing" textLength="169" x="680.5" y="215.4449">create(username, password)</text><polygon fill="#181818" points="1165.5,248.9599,1175.5,252.9599,1165.5,256.9599,1169.5,252.9599" style="stroke:#181818;stroke-width:1.0;"/><line style="stroke:#181818;stroke-width:1.0;" x1="871.5" x2="1171.5" y1="252.9599" y2="252.9599"/><text fill="#000000" font-family="sans-serif" font-size="13" font-weight="bold" lengthAdjust="spacing" textLength="7" x="878.5" y="247.1509">4</text><text fill="#000000" font-family="sans-serif" font-size="13" lengthAdjust="spacing" textLength="175" x="889.5" y="247.1509">User(username, password, ...)</text><polygon fill="#181818" points="673.5,280.6659,663.5,284.6659,673.5,288.6659,669.5,284.6659" style="stroke:#181818;stroke-width:1.0;"/><line style="stroke:#181818;stroke-width:1.0;stroke-dasharray:2.0,2.0;" x1="667.5" x2="865.5" y1="284.6659" y2="284.6659"/><text fill="#000000" font-family="sans-serif" font-size="13" font-weight="bold" lengthAdjust="spacing" textLength="7" x="679.5" y="278.8569">5</text><text fill="#000000" font-family="sans-serif" font-size="13" lengthAdjust="spacing" textLength="106" x="690.5" y="278.8569">User or exception</text><path d="M335.5,299.6659 L398.5,299.6659 L398.5,309.3719 L388.5,319.3719 L335.5,319.3719 L335.5,299.6659 " fill="#EEEEEE" style="stroke:#000000;stroke-width:1.5;"/><rect fill="none" height="51.412" style="stroke:#000000;stroke-width:1.5;" width="410.5" x="335.5" y="299.6659"/><text fill="#000000" font-family="sans-serif" font-size="13" font-weight="bold" lengthAdjust="spacing" textLength="18" x="350.5" y="314.5629">alt</text><text fill="#000000" font-family="sans-serif" font-size="11" font-weight="bold" lengthAdjust="spacing" textLength="138" x="413.5" y="313.4248">[If exception is returned]</text><polygon fill="#181818" points="399.5,339.0779,389.5,343.0779,399.5,347.0779,395.5,343.0779" style="stroke:#181818;stroke-width:1.0;"/><line style="stroke:#181818;stroke-width:1.0;" x1="393.5" x2="651.5" y1="343.0779" y2="343.0779"/><text fill="#000000" font-family="sans-serif" font-size="13" font-weight="bold" lengthAdjust="spacing" textLength="7" x="405.5" y="337.2689">6</text><text fill="#000000" font-family="sans-serif" font-size="13" lengthAdjust="spacing" textLength="132" x="416.5" y="337.2689">Username is duplicate</text><polygon fill="#181818" points="1280.5,377.784,1290.5,381.784,1280.5,385.784,1284.5,381.784" style="stroke:#181818;stroke-width:1.0;"/><line style="stroke:#181818;stroke-width:1.0;" x1="662.5" x2="1286.5" y1="381.784" y2="381.784"/><text fill="#000000" font-family="sans-serif" font-size="13" font-weight="bold" lengthAdjust="spacing" textLength="7" x="669.5" y="375.975">7</text><text fill="#000000" font-family="sans-serif" font-size="13" lengthAdjust="spacing" textLength="170" x="680.5" y="375.975">create(name, dateOfBirth, ...)</text><polygon fill="#181818" points="1604.5,409.49,1614.5,413.49,1604.5,417.49,1608.5,413.49" style="stroke:#181818;stroke-width:1.0;"/><line style="stroke:#181818;stroke-width:1.0;" x1="1302.5" x2="1610.5" y1="413.49" y2="413.49"/><text fill="#000000" font-family="sans-serif" font-size="13" font-weight="bold" lengthAdjust="spacing" textLength="7" x="1309.5" y="407.681">8</text><text fill="#000000" font-family="sans-serif" font-size="13" lengthAdjust="spacing" textLength="175" x="1320.5" y="407.681">Reader(name, dateOfBirth, ...)</text><polygon fill="#181818" points="673.5,441.196,663.5,445.196,673.5,449.196,669.5,445.196" style="stroke:#181818;stroke-width:1.0;"/><line style="stroke:#181818;stroke-width:1.0;stroke-dasharray:2.0,2.0;" x1="667.5" x2="1296.5" y1="445.196" y2="445.196"/><text fill="#000000" font-family="sans-serif" font-size="13" font-weight="bold" lengthAdjust="spacing" textLength="7" x="679.5" y="439.387">9</text><text fill="#000000" font-family="sans-serif" font-size="13" lengthAdjust="spacing" textLength="120" x="690.5" y="439.387">Reader or exception</text><path d="M335.5,460.196 L398.5,460.196 L398.5,469.902 L388.5,479.902 L335.5,479.902 L335.5,460.196 " fill="#EEEEEE" style="stroke:#000000;stroke-width:1.5;"/><rect fill="none" height="51.412" style="stroke:#000000;stroke-width:1.5;" width="410.5" x="335.5" y="460.196"/><text fill="#000000" font-family="sans-serif" font-size="13" font-weight="bold" lengthAdjust="spacing" textLength="18" x="350.5" y="475.093">alt</text><text fill="#000000" font-family="sans-serif" font-size="11" font-weight="bold" lengthAdjust="spacing" textLength="138" x="413.5" y="473.9549">[If exception is returned]</text><polygon fill="#181818" points="404.5,499.608,394.5,503.608,404.5,507.608,400.5,503.608" style="stroke:#181818;stroke-width:1.0;"/><line style="stroke:#181818;stroke-width:1.0;" x1="398.5" x2="651.5" y1="503.608" y2="503.608"/><text fill="#000000" font-family="sans-serif" font-size="13" font-weight="bold" lengthAdjust="spacing" textLength="14" x="410.5" y="497.799">10</text><text fill="#000000" font-family="sans-serif" font-size="13" lengthAdjust="spacing" textLength="112" x="428.5" y="497.799">Reader is duplicate</text><polygon fill="#181818" points="849.5,538.314,859.5,542.314,849.5,546.314,853.5,542.314" style="stroke:#181818;stroke-width:1.0;"/><line style="stroke:#181818;stroke-width:1.0;" x1="662.5" x2="855.5" y1="542.314" y2="542.314"/><text fill="#000000" font-family="sans-serif" font-size="13" font-weight="bold" lengthAdjust="spacing" textLength="14" x="669.5" y="536.505">11</text><text fill="#000000" font-family="sans-serif" font-size="13" lengthAdjust="spacing" textLength="61" x="687.5" y="536.505">save(user)</text><polygon fill="#181818" points="1039,570.0201,1049,574.0201,1039,578.0201,1043,574.0201" style="stroke:#181818;stroke-width:1.0;"/><line style="stroke:#181818;stroke-width:1.0;" x1="871.5" x2="1045" y1="574.0201" y2="574.0201"/><text fill="#000000" font-family="sans-serif" font-size="13" font-weight="bold" lengthAdjust="spacing" textLength="14" x="878.5" y="568.2111">12</text><text fill="#000000" font-family="sans-serif" font-size="13" lengthAdjust="spacing" textLength="61" x="896.5" y="568.2111">save(user)</text><polygon fill="#181818" points="882.5,601.7261,872.5,605.7261,882.5,609.7261,878.5,605.7261" style="stroke:#181818;stroke-width:1.0;"/><line style="stroke:#181818;stroke-width:1.0;stroke-dasharray:2.0,2.0;" x1="876.5" x2="1055" y1="605.7261" y2="605.7261"/><text fill="#000000" font-family="sans-serif" font-size="13" font-weight="bold" lengthAdjust="spacing" textLength="14" x="888.5" y="599.9171">13</text><text fill="#000000" font-family="sans-serif" font-size="13" lengthAdjust="spacing" textLength="106" x="906.5" y="599.9171">User or exception</text><polygon fill="#181818" points="673.5,633.4321,663.5,637.4321,673.5,641.4321,669.5,637.4321" style="stroke:#181818;stroke-width:1.0;"/><line style="stroke:#181818;stroke-width:1.0;stroke-dasharray:2.0,2.0;" x1="667.5" x2="865.5" y1="637.4321" y2="637.4321"/><text fill="#000000" font-family="sans-serif" font-size="13" font-weight="bold" lengthAdjust="spacing" textLength="14" x="679.5" y="631.6231">14</text><text fill="#000000" font-family="sans-serif" font-size="13" lengthAdjust="spacing" textLength="106" x="697.5" y="631.6231">User or exception</text><path d="M335.5,652.4321 L398.5,652.4321 L398.5,662.1381 L388.5,672.1381 L335.5,672.1381 L335.5,652.4321 " fill="#EEEEEE" style="stroke:#000000;stroke-width:1.5;"/><rect fill="none" height="51.412" style="stroke:#000000;stroke-width:1.5;" width="410.5" x="335.5" y="652.4321"/><text fill="#000000" font-family="sans-serif" font-size="13" font-weight="bold" lengthAdjust="spacing" textLength="18" x="350.5" y="667.3291">alt</text><text fill="#000000" font-family="sans-serif" font-size="11" font-weight="bold" lengthAdjust="spacing" textLength="138" x="413.5" y="666.191">[If exception is returned]</text><polygon fill="#181818" points="409.5,691.8441,399.5,695.8441,409.5,699.8441,405.5,695.8441" style="stroke:#181818;stroke-width:1.0;"/><line style="stroke:#181818;stroke-width:1.0;" x1="403.5" x2="651.5" y1="695.8441" y2="695.8441"/><text fill="#000000" font-family="sans-serif" font-size="13" font-weight="bold" lengthAdjust="spacing" textLength="14" x="415.5" y="690.0351">15</text><text fill="#000000" font-family="sans-serif" font-size="13" lengthAdjust="spacing" textLength="132" x="433.5" y="690.0351">Username is duplicate</text><polygon fill="#181818" points="1280.5,730.5501,1290.5,734.5501,1280.5,738.5501,1284.5,734.5501" style="stroke:#181818;stroke-width:1.0;"/><line style="stroke:#181818;stroke-width:1.0;" x1="662.5" x2="1286.5" y1="734.5501" y2="734.5501"/><text fill="#000000" font-family="sans-serif" font-size="13" font-weight="bold" lengthAdjust="spacing" textLength="14" x="669.5" y="728.7411">16</text><text fill="#000000" font-family="sans-serif" font-size="13" lengthAdjust="spacing" textLength="74" x="687.5" y="728.7411">save(reader)</text><polygon fill="#181818" points="1455,762.2562,1465,766.2562,1455,770.2562,1459,766.2562" style="stroke:#181818;stroke-width:1.0;"/><line style="stroke:#181818;stroke-width:1.0;" x1="1302.5" x2="1461" y1="766.2562" y2="766.2562"/><text fill="#000000" font-family="sans-serif" font-size="13" font-weight="bold" lengthAdjust="spacing" textLength="14" x="1309.5" y="760.4472">17</text><text fill="#000000" font-family="sans-serif" font-size="13" lengthAdjust="spacing" textLength="74" x="1327.5" y="760.4472">save(reader)</text><polygon fill="#181818" points="1313.5,793.9622,1303.5,797.9622,1313.5,801.9622,1309.5,797.9622" style="stroke:#181818;stroke-width:1.0;"/><line style="stroke:#181818;stroke-width:1.0;stroke-dasharray:2.0,2.0;" x1="1307.5" x2="1471" y1="797.9622" y2="797.9622"/><text fill="#000000" font-family="sans-serif" font-size="13" font-weight="bold" lengthAdjust="spacing" textLength="14" x="1319.5" y="792.1532">18</text><text fill="#000000" font-family="sans-serif" font-size="13" lengthAdjust="spacing" textLength="120" x="1337.5" y="792.1532">Reader or exception</text><polygon fill="#181818" points="673.5,825.6682,663.5,829.6682,673.5,833.6682,669.5,829.6682" style="stroke:#181818;stroke-width:1.0;"/><line style="stroke:#181818;stroke-width:1.0;stroke-dasharray:2.0,2.0;" x1="667.5" x2="1296.5" y1="829.6682" y2="829.6682"/><text fill="#000000" font-family="sans-serif" font-size="13" font-weight="bold" lengthAdjust="spacing" textLength="14" x="679.5" y="823.8592">19</text><text fill="#000000" font-family="sans-serif" font-size="13" lengthAdjust="spacing" textLength="120" x="697.5" y="823.8592">Reader or exception</text><path d="M335.5,844.6682 L398.5,844.6682 L398.5,854.3742 L388.5,864.3742 L335.5,864.3742 L335.5,844.6682 " fill="#EEEEEE" style="stroke:#000000;stroke-width:1.5;"/><rect fill="none" height="146.5301" style="stroke:#000000;stroke-width:1.5;" width="822.5" x="335.5" y="844.6682"/><text fill="#000000" font-family="sans-serif" font-size="13" font-weight="bold" lengthAdjust="spacing" textLength="18" x="350.5" y="859.5652">alt</text><text fill="#000000" font-family="sans-serif" font-size="11" font-weight="bold" lengthAdjust="spacing" textLength="138" x="413.5" y="858.4271">[If exception is returned]</text><polygon fill="#181818" points="849.5,884.0802,859.5,888.0802,849.5,892.0802,853.5,888.0802" style="stroke:#181818;stroke-width:1.0;"/><line style="stroke:#181818;stroke-width:1.0;" x1="662.5" x2="855.5" y1="888.0802" y2="888.0802"/><text fill="#000000" font-family="sans-serif" font-size="13" font-weight="bold" lengthAdjust="spacing" textLength="14" x="669.5" y="882.2712">20</text><text fill="#000000" font-family="sans-serif" font-size="13" lengthAdjust="spacing" textLength="85" x="687.5" y="882.2712">remove(User);</text><polygon fill="#181818" points="1039,915.7862,1049,919.7862,1039,923.7862,1043,919.7862" style="stroke:#181818;stroke-width:1.0;"/><line style="stroke:#181818;stroke-width:1.0;" x1="871.5" x2="1045" y1="919.7862" y2="919.7862"/><text fill="#000000" font-family="sans-serif" font-size="13" font-weight="bold" lengthAdjust="spacing" textLength="14" x="878.5" y="913.9772">21</text><text fill="#000000" font-family="sans-serif" font-size="13" lengthAdjust="spacing" textLength="85" x="896.5" y="913.9772">remove(User);</text><polygon fill="#181818" points="673.5,947.4923,663.5,951.4923,673.5,955.4923,669.5,951.4923" style="stroke:#181818;stroke-width:1.0;"/><line style="stroke:#181818;stroke-width:1.0;stroke-dasharray:2.0,2.0;" x1="667.5" x2="865.5" y1="951.4923" y2="951.4923"/><text fill="#000000" font-family="sans-serif" font-size="13" font-weight="bold" lengthAdjust="spacing" textLength="14" x="679.5" y="945.6833">22</text><text fill="#000000" font-family="sans-serif" font-size="13" lengthAdjust="spacing" textLength="3" x="697.5" y="945.6833">&#160;</text><polygon fill="#181818" points="409.5,979.1983,399.5,983.1983,409.5,987.1983,405.5,983.1983" style="stroke:#181818;stroke-width:1.0;"/><line style="stroke:#181818;stroke-width:1.0;stroke-dasharray:2.0,2.0;" x1="403.5" x2="656.5" y1="983.1983" y2="983.1983"/><text fill="#000000" font-family="sans-serif" font-size="13" font-weight="bold" lengthAdjust="spacing" textLength="14" x="415.5" y="977.3893">23</text><text fill="#000000" font-family="sans-serif" font-size="13" lengthAdjust="spacing" textLength="112" x="433.5" y="977.3893">Reader is duplicate</text><polygon fill="#181818" points="409.5,1017.9043,399.5,1021.9043,409.5,1025.9043,405.5,1021.9043" style="stroke:#181818;stroke-width:1.0;"/><line style="stroke:#181818;stroke-width:1.0;stroke-dasharray:2.0,2.0;" x1="403.5" x2="656.5" y1="1021.9043" y2="1021.9043"/><text fill="#000000" font-family="sans-serif" font-size="13" font-weight="bold" lengthAdjust="spacing" textLength="14" x="415.5" y="1016.0953">24</text><text fill="#000000" font-family="sans-serif" font-size="13" lengthAdjust="spacing" textLength="39" x="433.5" y="1016.0953">reader</text><polygon fill="#181818" points="63.5,1049.6103,53.5,1053.6103,63.5,1057.6103,59.5,1053.6103" style="stroke:#181818;stroke-width:1.0;"/><line style="stroke:#181818;stroke-width:1.0;stroke-dasharray:2.0,2.0;" x1="57.5" x2="382.5" y1="1053.6103" y2="1053.6103"/><text fill="#000000" font-family="sans-serif" font-size="13" font-weight="bold" lengthAdjust="spacing" textLength="14" x="69.5" y="1047.8013">25</text><text fill="#000000" font-family="sans-serif" font-size="13" lengthAdjust="spacing" textLength="103" x="87.5" y="1047.8013">registered reader</text><!--SRC=[hLJBRkCm3BphAuXSqW9jVFS22tHxwgc0Yto0QhEf05jo9JhT_FsAaloCWGJTv928uf0QpIZSVXArBi-ojfQQkgRUbQR977vrg4jyh9GyMDa8sP6H9QcZ90IZGwoxvXsj4AIeHYZme1oX1GaQly6Yh3Xm8BNHfyPqJWZVmLZOFFKx6yuFaMYb9LMgrXE1JVvsyksQ08dBUVwPR9qNuPHdeycQkaORq9oPOpk7zWtjKPMOxyTrG4_Yyw82MnCgUE6KPtyQYiQj1N5E3gXvpYKIaVUKnYe5oyT7x880Xqiimn8wONWPL8- -ZKgBOGcFlvEykVVCk-x8zURPOAcLf8o6T-cmyjR3GHrHGoL92X4hkKUm8rKmMsvmLyp28hQ__oK4exbg8duEfJ-My8vrrxB11sYbSz_6LlTYWklByl2zWdw0tMwtA1a8yYxuDuX_IspvNaBM12yVumOelZzrLcCbm7zwhhrA-tGY0wkkhLNfMGlKbH3PTeNew5mEJXxZ1Rq8yrpWE9FZdEeDkMwpqOIb0L5ERp2-VlnHbZwJefDxHKFpz7kvOj0_5lpljLANSmDMtzKekhZQdX-uS-s3k-cBE_CmN27-VnUE-L4op_9MO3eKhxbpQmzdAbfiZ6UqZ_y8Xbrmw491pt5oulNFPZO9m-ZinvlF30Dp779-72RSFm00]--></g></svg>