<?xml version="1.0" encoding="us-ascii" standalone="no"?><svg xmlns="http://www.w3.org/2000/svg" xmlns:xlink="http://www.w3.org/1999/xlink" contentStyleType="text/css" height="513px" preserveAspectRatio="none" style="width:1253px;height:513px;background:#FFFFFF;" version="1.1" viewBox="0 0 1253 513" width="1253px" zoomAndPan="magnify"><defs/><g><text fill="#000000" font-family="sans-serif" font-size="14" font-weight="bold" lengthAdjust="spacing" textLength="256" x="497.5" y="29.9659">Register a new reader as anonymous</text><rect fill="#FFFFFF" height="286.3541" style="stroke:#181818;stroke-width:1.0;" width="10" x="42.5" y="134.1358"/><rect fill="#FFFFFF" height="253.6481" style="stroke:#181818;stroke-width:1.0;" width="10" x="373.5" y="157.8419"/><rect fill="#FFFFFF" height="190.2361" style="stroke:#181818;stroke-width:1.0;" width="10" x="652.5" y="189.5479"/><rect fill="#FFFFFF" height="126.8241" style="stroke:#181818;stroke-width:1.0;" width="10" x="862.5" y="221.2539"/><rect fill="#FFFFFF" height="31.706" style="stroke:#181818;stroke-width:1.0;" width="10" x="1037" y="284.6659"/><rect fill="#FFFFFF" height="167.5301" style="stroke:#181818;stroke-width:1.0;" width="10" x="1186.5" y="252.9599"/><line style="stroke:#181818;stroke-width:0.5;stroke-dasharray:5.0,5.0;" x1="47" x2="47" y1="124.1358" y2="429.49"/><line style="stroke:#181818;stroke-width:0.5;stroke-dasharray:5.0,5.0;" x1="378.5" x2="378.5" y1="124.1358" y2="429.49"/><line style="stroke:#181818;stroke-width:0.5;stroke-dasharray:5.0,5.0;" x1="657" x2="657" y1="124.1358" y2="429.49"/><line style="stroke:#181818;stroke-width:0.5;stroke-dasharray:5.0,5.0;" x1="867" x2="867" y1="124.1358" y2="429.49"/><line style="stroke:#181818;stroke-width:0.5;stroke-dasharray:5.0,5.0;" x1="1042" x2="1042" y1="124.1358" y2="429.49"/><line style="stroke:#181818;stroke-width:0.5;stroke-dasharray:5.0,5.0;" x1="1191" x2="1191" y1="124.1358" y2="429.49"/><text fill="#000000" font-family="sans-serif" font-size="14" lengthAdjust="spacing" textLength="79" x="5" y="120.0339">Anonymous</text><ellipse cx="47.5" cy="53.5679" fill="#E2E2F0" rx="8" ry="8" style="stroke:#181818;stroke-width:0.5;"/><path d="M47.5,61.5679 L47.5,88.5679 M34.5,69.5679 L60.5,69.5679 M47.5,88.5679 L34.5,103.5679 M47.5,88.5679 L60.5,103.5679 " fill="none" style="stroke:#181818;stroke-width:0.5;"/><text fill="#000000" font-family="sans-serif" font-size="14" lengthAdjust="spacing" textLength="79" x="5" y="443.4559">Anonymous</text><ellipse cx="47.5" cy="456.0579" fill="#E2E2F0" rx="8" ry="8" style="stroke:#181818;stroke-width:0.5;"/><path d="M47.5,464.0579 L47.5,491.0579 M34.5,472.0579 L60.5,472.0579 M47.5,491.0579 L34.5,506.0579 M47.5,491.0579 L60.5,506.0579 " fill="none" style="stroke:#181818;stroke-width:0.5;"/><rect fill="#E2E2F0" height="33.0679" rx="2.5" ry="2.5" style="stroke:#181818;stroke-width:0.5;" width="66" x="345.5" y="90.0679"/><text fill="#000000" font-family="sans-serif" font-size="14" lengthAdjust="spacing" textLength="52" x="352.5" y="112.0339">:System</text><rect fill="#E2E2F0" height="33.0679" rx="2.5" ry="2.5" style="stroke:#181818;stroke-width:0.5;" width="66" x="345.5" y="428.49"/><text fill="#000000" font-family="sans-serif" font-size="14" lengthAdjust="spacing" textLength="52" x="352.5" y="450.4559">:System</text><rect fill="#E2E2F0" height="33.0679" rx="2.5" ry="2.5" style="stroke:#181818;stroke-width:0.5;" width="157" x="579" y="90.0679"/><text fill="#000000" font-family="sans-serif" font-size="14" lengthAdjust="spacing" textLength="143" x="586" y="112.0339">Ctrl:ReaderController</text><rect fill="#E2E2F0" height="33.0679" rx="2.5" ry="2.5" style="stroke:#181818;stroke-width:0.5;" width="157" x="579" y="428.49"/><text fill="#000000" font-family="sans-serif" font-size="14" lengthAdjust="spacing" textLength="143" x="586" y="450.4559">Ctrl:ReaderController</text><rect fill="#E2E2F0" height="33.0679" rx="2.5" ry="2.5" style="stroke:#181818;stroke-width:0.5;" width="161" x="787" y="90.0679"/><text fill="#000000" font-family="sans-serif" font-size="14" lengthAdjust="spacing" textLength="147" x="794" y="112.0339">service:ReaderService</text><rect fill="#E2E2F0" height="33.0679" rx="2.5" ry="2.5" style="stroke:#181818;stroke-width:0.5;" width="161" x="787" y="428.49"/><text fill="#000000" font-family="sans-serif" font-size="14" lengthAdjust="spacing" textLength="147" x="794" y="450.4559">service:ReaderService</text><rect fill="#E2E2F0" height="33.0679" rx="2.5" ry="2.5" style="stroke:#181818;stroke-width:0.5;" width="168" x="958" y="90.0679"/><text fill="#000000" font-family="sans-serif" font-size="14" lengthAdjust="spacing" textLength="154" x="965" y="112.0339">repo:ReaderRepository</text><rect fill="#E2E2F0" height="33.0679" rx="2.5" ry="2.5" style="stroke:#181818;stroke-width:0.5;" width="168" x="958" y="428.49"/><text fill="#000000" font-family="sans-serif" font-size="14" lengthAdjust="spacing" textLength="154" x="965" y="450.4559">repo:ReaderRepository</text><rect fill="#E2E2F0" height="33.0679" rx="2.5" ry="2.5" style="stroke:#181818;stroke-width:0.5;" width="111" x="1136" y="90.0679"/><text fill="#000000" font-family="sans-serif" font-size="14" lengthAdjust="spacing" textLength="97" x="1143" y="112.0339">reader:Reader</text><rect fill="#E2E2F0" height="33.0679" rx="2.5" ry="2.5" style="stroke:#181818;stroke-width:0.5;" width="111" x="1136" y="428.49"/><text fill="#000000" font-family="sans-serif" font-size="14" lengthAdjust="spacing" textLength="97" x="1143" y="450.4559">reader:Reader</text><rect fill="#FFFFFF" height="286.3541" style="stroke:#181818;stroke-width:1.0;" width="10" x="42.5" y="134.1358"/><rect fill="#FFFFFF" height="253.6481" style="stroke:#181818;stroke-width:1.0;" width="10" x="373.5" y="157.8419"/><rect fill="#FFFFFF" height="190.2361" style="stroke:#181818;stroke-width:1.0;" width="10" x="652.5" y="189.5479"/><rect fill="#FFFFFF" height="126.8241" style="stroke:#181818;stroke-width:1.0;" width="10" x="862.5" y="221.2539"/><rect fill="#FFFFFF" height="31.706" style="stroke:#181818;stroke-width:1.0;" width="10" x="1037" y="284.6659"/><rect fill="#FFFFFF" height="167.5301" style="stroke:#181818;stroke-width:1.0;" width="10" x="1186.5" y="252.9599"/><polygon fill="#181818" points="361.5,153.8419,371.5,157.8419,361.5,161.8419,365.5,157.8419" style="stroke:#181818;stroke-width:1.0;"/><line style="stroke:#181818;stroke-width:1.0;" x1="52.5" x2="367.5" y1="157.8419" y2="157.8419"/><text fill="#000000" font-family="sans-serif" font-size="13" font-weight="bold" lengthAdjust="spacing" textLength="7" x="59.5" y="152.0328">1</text><text fill="#000000" font-family="sans-serif" font-size="13" lengthAdjust="spacing" textLength="291" x="70.5" y="152.0328">requests reader registration based on given data</text><polygon fill="#181818" points="640.5,185.5479,650.5,189.5479,640.5,193.5479,644.5,189.5479" style="stroke:#181818;stroke-width:1.0;"/><line style="stroke:#181818;stroke-width:1.0;" x1="383.5" x2="646.5" y1="189.5479" y2="189.5479"/><text fill="#000000" font-family="sans-serif" font-size="13" font-weight="bold" lengthAdjust="spacing" textLength="7" x="390.5" y="183.7389">2</text><text fill="#000000" font-family="sans-serif" font-size="13" lengthAdjust="spacing" textLength="239" x="401.5" y="183.7389">registerReader(RegisterReaderRequest);</text><polygon fill="#181818" points="850.5,217.2539,860.5,221.2539,850.5,225.2539,854.5,221.2539" style="stroke:#181818;stroke-width:1.0;"/><line style="stroke:#181818;stroke-width:1.0;" x1="662.5" x2="856.5" y1="221.2539" y2="221.2539"/><text fill="#000000" font-family="sans-serif" font-size="13" font-weight="bold" lengthAdjust="spacing" textLength="7" x="669.5" y="215.4449">3</text><text fill="#000000" font-family="sans-serif" font-size="13" lengthAdjust="spacing" textLength="170" x="680.5" y="215.4449">create(name, dateOfBirth, ...)</text><polygon fill="#181818" points="1174.5,248.9599,1184.5,252.9599,1174.5,256.9599,1178.5,252.9599" style="stroke:#181818;stroke-width:1.0;"/><line style="stroke:#181818;stroke-width:1.0;" x1="872.5" x2="1180.5" y1="252.9599" y2="252.9599"/><text fill="#000000" font-family="sans-serif" font-size="13" font-weight="bold" lengthAdjust="spacing" textLength="7" x="879.5" y="247.1509">4</text><text fill="#000000" font-family="sans-serif" font-size="13" lengthAdjust="spacing" textLength="175" x="890.5" y="247.1509">Reader(name, dateOfBirth, ...)</text><polygon fill="#181818" points="1025,280.6659,1035,284.6659,1025,288.6659,1029,284.6659" style="stroke:#181818;stroke-width:1.0;"/><line style="stroke:#181818;stroke-width:1.0;" x1="872.5" x2="1031" y1="284.6659" y2="284.6659"/><text fill="#000000" font-family="sans-serif" font-size="13" font-weight="bold" lengthAdjust="spacing" textLength="7" x="879.5" y="278.8569">5</text><text fill="#000000" font-family="sans-serif" font-size="13" lengthAdjust="spacing" textLength="70" x="890.5" y="278.8569">add(reader)</text><polygon fill="#181818" points="883.5,312.3719,873.5,316.3719,883.5,320.3719,879.5,316.3719" style="stroke:#181818;stroke-width:1.0;"/><line style="stroke:#181818;stroke-width:1.0;stroke-dasharray:2.0,2.0;" x1="877.5" x2="1041" y1="316.3719" y2="316.3719"/><text fill="#000000" font-family="sans-serif" font-size="13" font-weight="bold" lengthAdjust="spacing" textLength="7" x="889.5" y="310.5629">6</text><text fill="#000000" font-family="sans-serif" font-size="13" lengthAdjust="spacing" textLength="88" x="900.5" y="310.5629">reader or error</text><polygon fill="#181818" points="673.5,344.0779,663.5,348.0779,673.5,352.0779,669.5,348.0779" style="stroke:#181818;stroke-width:1.0;"/><line style="stroke:#181818;stroke-width:1.0;stroke-dasharray:2.0,2.0;" x1="667.5" x2="866.5" y1="348.0779" y2="348.0779"/><text fill="#000000" font-family="sans-serif" font-size="13" font-weight="bold" lengthAdjust="spacing" textLength="7" x="679.5" y="342.2689">7</text><text fill="#000000" font-family="sans-serif" font-size="13" lengthAdjust="spacing" textLength="88" x="690.5" y="342.2689">reader or error</text><polygon fill="#181818" points="394.5,375.784,384.5,379.784,394.5,383.784,390.5,379.784" style="stroke:#181818;stroke-width:1.0;"/><line style="stroke:#181818;stroke-width:1.0;stroke-dasharray:2.0,2.0;" x1="388.5" x2="656.5" y1="379.784" y2="379.784"/><text fill="#000000" font-family="sans-serif" font-size="13" font-weight="bold" lengthAdjust="spacing" textLength="7" x="400.5" y="373.975">8</text><text fill="#000000" font-family="sans-serif" font-size="13" lengthAdjust="spacing" textLength="88" x="411.5" y="373.975">reader or error</text><polygon fill="#181818" points="63.5,407.49,53.5,411.49,63.5,415.49,59.5,411.49" style="stroke:#181818;stroke-width:1.0;"/><line style="stroke:#181818;stroke-width:1.0;stroke-dasharray:2.0,2.0;" x1="57.5" x2="377.5" y1="411.49" y2="411.49"/><text fill="#000000" font-family="sans-serif" font-size="13" font-weight="bold" lengthAdjust="spacing" textLength="7" x="69.5" y="405.681">9</text><text fill="#000000" font-family="sans-serif" font-size="13" lengthAdjust="spacing" textLength="152" x="80.5" y="405.681">registered reader or error</text><!--SRC=[ZP9DRi9038NtSmgBJK62i4-bIYq7g1JK0vZ4XP6IcTJZK77xUduG9Ajkad7y-NdUKruk8cEez_knHoVJq5Uj7_Q1VYPoBUqwYsV6mU0a7bknLnG2xrBjfk54R8nOwGaQEjiWn83Ww1UOi8j507JUtGO_1MDKmJEitkzVLh7_5LHaH1RRsb7l0AlwU5Eb8NNpSTu_2FTranOSl1FsVK-SwDYPiof-jIqL_9Yhh9pFSvnfz8Ljz1YiNlYMy5WksOWLkZ3nc7pcf98t4v-mUojUQir6qmqIxY5nYevHh7Tmma2THWndUoK77GeQaoUZHl9U9k8Tey2wcPLDbj-y6XFfjBca0Ask55ex76WRjUdp-yEoNBPGLTN652wEPAswlFyteTa1Tjqw-zgO-0Lsp_kBO_qBYDdpO_p9sfp85cRfBIHADeh4e1_XQ8nBzWy0]--></g></svg>
